<svg width="49" height="48" fill="none" xmlns="http://www.w3.org/2000/svg"><g clip-path="url(#clip0_11_157)"><path d="M36.583 48h-.148a.67.67 0 01-.519-.376c-.111-.15-.111-.338-.111-.526 0-.038-.037-.038-.037-.075a.818.818 0 01-.074-.715c0-.037.037-.037.037-.075a.841.841 0 010-.601v-.038a.945.945 0 010-.639.773.773 0 01-.037-.639c-.075-.188-.075-.376 0-.601 0-.038.037-.075.037-.113a.78.78 0 01-.037-.639v-.037a.945.945 0 010-.64c0-.037.037-.075.037-.075a.884.884 0 01-.037-.751.98.98 0 01.037-.564c0-.038 0-.038.037-.075-.111-.263-.148-.489-.037-.752 0-.038.037-.075.037-.113-.074-.188-.111-.376-.037-.601a.841.841 0 010-.602v-.037c-.074-.188-.037-.376 0-.564 0-.038 0-.038.037-.075a.862.862 0 01-.037-.677c0-.037.037-.075.037-.113a.956.956 0 01-.037-.714c0-.037.037-.075.037-.112a.862.862 0 01-.037-.677.945.945 0 010-.64.743.743 0 010-.563c0-.038.037-.113.074-.15a.861.861 0 01-.037-.677c0-.037.037-.075.037-.113-.111-.225-.148-.45-.074-.676.037-.038.037-.113.074-.15-.111-.226-.148-.452-.037-.677 0-.038.037-.075.037-.113-.111-.226-.148-.451-.074-.676.037-.038.037-.113.074-.15a.689.689 0 01-.037-.602c0-.038.037-.113.074-.15-.111-.189-.111-.414-.074-.602 0-.038 0-.038.037-.075-.111-.188-.111-.376-.037-.602 0-.037.037-.075.037-.112-.074-.188-.111-.376-.037-.564l.111-.226-.037-.037a.61.61 0 01-.037-.564v-.038a.644.644 0 01-.037-.526c.037-.075.074-.188.148-.263 0-.038-.037-.038-.037-.075a.643.643 0 01-.037-.527l.111-.225c-.037-.038-.037-.075-.074-.113-.074-.15-.111-.338-.037-.488 0-.038.037-.113.074-.15-.074-.151-.111-.302-.037-.49 0-.037.037-.075.037-.112 0 0 0-.038-.037-.038-.074-.15-.111-.3-.037-.45l.111-.226-.074-.076c-.074-.112-.074-.263-.037-.413.037-.075.074-.188.148-.263l-.111-.113a.45.45 0 01-.037-.376l.111-.225-.111-.113a.37.37 0 01-.037-.338.667.667 0 01.185-.301.291.291 0 01-.148-.15.405.405 0 01-.037-.301c.037-.075.074-.15.148-.263-.037-.038-.074-.075-.074-.113-.111-.188-.037-.338.111-.489l-.111-.112c-.111-.226 0-.414.222-.677h-.074c-.074 0-.148-.075-.185-.113-.074-.15 0-.338.074-.526-.037 0-.037-.038-.074-.075-.074-.113-.037-.226.074-.263 0 0 .037 0 .037-.038.037-.038.111-.113.222-.113.075 0 .112.038.149.113.074.113.037.226 0 .376.26-.226.407-.376.593-.338.074 0 .148.075.185.113.148.263-.148.563-.482.902l-.11.112c.11-.112.221-.188.333-.3.481-.451.778-.677 1.037-.64.075 0 .149.076.223.151.037.038.037.113.037.15a.889.889 0 01.482-.15c.111 0 .185.075.26.188.036.037.036.075.036.113.148-.076.26-.076.37-.076a.28.28 0 01.26.188c.038.076.038.113.075.188.148-.075.296-.112.407-.075.111.038.223.075.297.226.037.037.037.112.037.15.111-.038.222-.038.333-.038a.54.54 0 01.334.226c.037.038.037.113.074.15.148-.037.26-.075.37-.037a.54.54 0 01.334.225c.037.038.037.075.037.113h.186c.148.038.296.113.37.263 0 .038.038.075.038.075h.037c.148.038.296.113.37.264 0 0 0 .037.037.037h.074c.186.038.297.113.408.3.037.038.037.114.074.151h.149c.185.038.333.15.444.3.037.076.074.151.074.226a.66.66 0 01.445.339c.037.037.037.075.037.112.111.076.223.15.26.264.037.075.074.112.074.188.185.037.37.15.445.338.037.075.074.113.074.188.11.075.222.15.296.263.037.037.037.075.074.113.149.075.26.188.371.338a.612.612 0 01.111.338.87.87 0 01.26.263.612.612 0 01.11.339.5.5 0 01.223.263.613.613 0 01.111.338c.112.075.186.15.26.3a.641.641 0 01.111.377c.074.075.148.15.223.263.074.15.11.3.11.45.075.076.112.151.186.226a.845.845 0 01.111.602c.037.037.037.075.074.113.075.15.111.263.111.413 0 .038.038.038.038.075.074.15.11.3.11.451 0 .038.038.038.038.075.074.15.148.339.111.489.037.038.111.113.148.188.149.226.149.489.075.752v.037c.11.226.148.489.074.715.11.187.148.375.11.6a.998.998 0 01.075.565.862.862 0 01.037.676c0 .038 0 .038-.037.076a.884.884 0 01.037.751c-.037.075-.037.15-.111.188a.946.946 0 010 .64c0 .037 0 .037-.037.074a.874.874 0 01-.037.527l-.111.225a1.06 1.06 0 010 .677c-.038.075-.038.113-.075.188a.857.857 0 01-.037.526c-.037.15-.148.3-.26.45.038.151 0 .264-.036.414a1.13 1.13 0 01-.148.301c.036.15 0 .3-.038.414-.037.15-.148.3-.259.413.037.15 0 .263-.037.413-.074.188-.222.376-.408.602 0 .075 0 .188-.037.263-.074.226-.26.451-.556.677 0 .112 0 .225-.037.338-.074.263-.296.526-.63.752 0 .037 0 .112-.037.15-.111.376-.556.714-1.15 1.052v.076c-.147.413-.889.789-2.075 1.353a1.103 1.103 0 00-.296.15l.074.075c.037.113.037.226-.074.264a.233.233 0 01-.223 0c-.11.075-.407.3-.593.488-.444.414-.704.602-.926.564-.074 0-.149-.075-.186-.15 0-.038-.037-.076-.037-.113-1.149.977-1.89 1.54-2.409 1.428-.074 0-.111-.037-.148-.037-.667.376-1.112.601-1.483.601zm-.296-.601c.074.112.148.15.222.188.26.037.667-.113 1.15-.452-.038-.037-.038-.075-.038-.15-.519.3-.964.489-1.334.414 0 0 .037 0 0 0zm0-.414c.037 0 .037.038.074.038.296.037.778-.188 1.371-.564a.993.993 0 01.185-.226c-.593.376-1.111.564-1.482.564-.037.038-.111.113-.148.188zm4.522-1.88a39.253 39.253 0 01-2.224 1.88c.63-.3 1.668-1.24 2.557-2.03-.111.038-.222.113-.333.15zm-2.743 1.617s0 .038-.037.038c0 .037-.037.075 0 .112.482-.338 1-.789 1.556-1.24-.11.038-.222.113-.296.15-.445.376-.853.677-1.223.94zm-1.854-.489c.038.038.075.076.112.076a.656.656 0 01.26-.188h-.26c-.037 0-.074.075-.111.112zm5.078-.714c-.148.113-.259.188-.333.263.111-.037.222-.15.333-.263zm-3.076-.601c-.519.263-1 .526-1.371.752.37-.113.852-.376 1.371-.752zm-2.002.639l.038.037c.074-.075.148-.112.222-.188h-.148a.497.497 0 01-.111.15zm3.262-.451c-.185.15-.407.3-.593.45.037-.037.111-.037.148-.074a4.71 4.71 0 00.482-.414l-.037.038zm-2.26-.339l-.334.226c.37-.113.778-.376 1.297-.714-.37.188-.667.376-.964.488zm-1.002.15l.038.038.074-.075c-.037 0-.037 0-.074-.037 0 .037-.038.037-.038.075zm3.522-.676a15.86 15.86 0 00-.816.677c.111-.038.26-.113.37-.15.26-.188.483-.414.742-.64a2.528 2.528 0 00-.296.113zm.926.376c-.074.075-.148.15-.26.226.075-.038.112-.038.186-.076a.985.985 0 01.223-.188c-.037 0-.075 0-.149.038zm1.631-.113c-.037.038-.111.076-.148.113.148-.075.334-.15.482-.225l.667-.339c-.297.15-.63.301-1 .451zm-3.373-1.278c-.963.414-1.816.865-2.298 1.278.111 0 .26-.037.408-.075.297-.188.593-.338.964-.526.296-.188.593-.414.926-.677zm-2.78 1.053l.038.037c.074-.075.148-.15.222-.188-.037 0-.111-.037-.148-.037 0 .075-.075.15-.112.188zm5.783-.15c-.075.037-.112.112-.186.15.037 0 .074-.038.074-.038.075-.037.186-.075.26-.113.074-.037.111-.112.185-.15-.111.038-.222.113-.333.15zm-2.224-.564l-.556.45c.11-.037.26-.112.37-.15.149-.15.334-.263.482-.413-.074.037-.185.075-.296.113zm2.52-.339c-.222.188-.445.376-.667.602.037-.038.111-.038.148-.076.223-.187.445-.413.704-.6-.074.037-.11.074-.185.074zm-5.04.188c-.186.113-.371.226-.483.338.52-.037 1.298-.526 2.187-1.165-.148.075-.296.15-.445.188-.481.301-.89.526-1.26.64zm-.853.075c-.037.038-.037.076-.074.076l.074-.076c.037 0 .037 0 0 0zm7.413-.112a3.412 3.412 0 00-.297.188c.297-.15.63-.264.89-.414h-.111c-.149.075-.297.15-.482.226zM41.142 43c-.148.15-.296.263-.445.376a.522.522 0 01.223-.076c.148-.112.296-.263.445-.375-.075.037-.149.037-.223.075zm2.52-.338c-.259.187-.518.413-.815.639.26-.113.482-.188.742-.301a1.96 1.96 0 01.518-.226c.63-.3 1.187-.564 1.594-.864-.037-.075-.074-.113-.111-.113-.593.263-1.223.564-1.927.864zm-4.892-.677c-.815.376-1.52.752-2.002 1.09.075 0 .149-.038.223-.038.37-.225.778-.413 1.223-.639.185-.112.37-.263.556-.413zm-2.558.94l.075.075c.11-.113.26-.188.37-.3h-.26a.383.383 0 00-.184.225zm8.563-.038c0 .038 0 .038 0 0l.222-.113-.222.113zm-3.559-.601c-.185.15-.37.3-.519.45.075-.037.186-.075.26-.112.185-.15.333-.3.519-.451a1.793 1.793 0 00-.26.113zm1.224.225c-.075.038-.112.113-.186.15.074-.037.111-.112.186-.15zm-2.261-.526a7.155 7.155 0 01-.63.489c.148-.076.296-.113.444-.188.185-.15.37-.301.556-.489-.111.075-.222.15-.37.188zm3.447.038c-.149.112-.297.263-.482.375.11-.037.222-.075.296-.112.223-.188.482-.339.705-.489a7.27 7.27 0 01-.52.225zm-1.112-.264c-.186.15-.334.301-.52.451.075-.037.149-.037.223-.075.185-.15.37-.3.519-.45-.037.037-.111.074-.222.074zm-6.264.414l.037.037.11-.112c-.036 0-.073 0-.11-.038 0 .038 0 .075-.037.113zm2.001-.677c-.482.226-.926.451-1.26.677.37-.113.778-.338 1.26-.677zm1.928-.112c-.149.112-.26.225-.408.338.074-.038.111-.038.185-.075a2.61 2.61 0 01.37-.301c-.036 0-.073.038-.148.038zm3.743-.15c-.185.15-.37.337-.593.488.037 0 .074-.038.074-.038.26-.188.482-.376.704-.526-.037 0-.11.038-.185.075zm-4.93-.79c-.926.413-1.705.827-2.26 1.24.222-.037.444-.113.74-.263.038-.037.112-.037.149-.075.408-.188.852-.526 1.371-.902zm6.932 1.127c.037.038.037.076.074.076.11-.113.185-.188.26-.301a.874.874 0 01-.334.225zm-9.748-.112c.036.037.074.112.11.112.112-.112.223-.188.334-.3h-.222c-.037 0-.074 0-.074-.038-.074.113-.111.15-.148.226zm6.412-.376c-.186.15-.334.3-.52.45a.546.546 0 01.26-.074c.186-.15.334-.301.52-.451a.525.525 0 00-.26.075zm-2.706-.263c-.26.225-.519.413-.778.601.296-.113.593-.263.89-.376.184-.188.407-.338.63-.526-.26.075-.52.188-.742.3zm6.412 0a28.49 28.49 0 01-1.075.564c.111 0 .223-.038.297 0a7.72 7.72 0 00.815-.49c0-.037-.037-.074-.037-.074zm-4.818.075a2.61 2.61 0 01-.37.3c.11-.037.221-.075.37-.15.111-.113.26-.225.37-.338-.148.075-.259.113-.37.188zm2.52-.376l-.556.451c.111-.038.186-.075.297-.113a7.15 7.15 0 01.63-.488c-.148.075-.26.112-.37.15zm-5.3-.714c-.816.376-1.483.714-1.965 1.09.445-.075 1.15-.489 1.965-1.09zm-2.187.714l-.111.113.111-.113zm5.19-.451c-.186.15-.371.338-.557.489.037 0 .074-.038.111-.038.186-.15.371-.338.556-.489-.037.038-.074.038-.11.038zm-1.817.188c-.074.075-.148.113-.222.188.074-.038.148-.113.222-.188zm-3.818.113v.037-.037zm10.008-.076h.074c.074 0 .111.038.185.038.26-.15.445-.3.63-.413 0-.038 0-.038-.037-.076v-.037c-.26.15-.556.3-.852.488zm-2.187-.375a3.937 3.937 0 00-.445.375c.111-.037.223-.075.297-.112.148-.15.333-.263.482-.376a1.705 1.705 0 01-.334.113zm2.446-.226c-.296.075-.63.263-1 .526.333-.188.667-.376 1-.526zm-3.447-.075c-.185.15-.37.3-.519.488.111-.037.26-.112.371-.15.185-.15.37-.338.556-.489-.185.076-.297.113-.408.15zm-6.672.338c.038.038.112.113.149.113.037-.038.111-.075.185-.15h-.185c-.037 0-.074 0-.111-.038 0 .038 0 .075-.038.075zm2.04-.526a7.346 7.346 0 00-1.076.601c.334-.15.667-.338 1.075-.601zm3.298-.038c-.222.188-.445.414-.667.602.222-.075.407-.15.63-.226.222-.188.445-.413.667-.601a1.81 1.81 0 00-.63.225zm-1.483-.188c-.296.226-.593.489-.852.677.296-.15.63-.263.963-.413.223-.188.445-.376.705-.602-.297.15-.556.263-.816.338zm7.154.376s.037.038 0 0c.037 0 .037-.037.074-.037-.037 0-.037.037-.074.037zm-.334-.864c-.407.037-1 .376-1.705.864.667-.3 1.26-.564 1.705-.864zm-9.933.601l-.334.226c.556-.038 1.409-.602 2.41-1.353-.075.037-.186.075-.26.112-.704.526-1.297.865-1.816 1.015zm-.779.038l.038.037c.037-.037.074-.037.074-.075-.037 0-.075-.037-.075-.037-.037.037-.037.037-.037.075zm7.08-.677c-.223.226-.482.414-.704.64.037 0 .074-.038.11-.038.26-.226.483-.414.705-.64-.037.038-.074.038-.111.038zm3.521.602c.037 0 .111.037.148.037.186-.113.334-.225.445-.376 0 0 0-.037-.037-.037a7.27 7.27 0 01-.556.376zm-.815-.903c-.297.188-.593.414-.927.64.89-.376 1.705-.79 2.298-1.166-.111 0-.26 0-.408.038-.296.15-.63.3-.963.488zm-6.005.264a3.937 3.937 0 00-.445.375c.111-.037.223-.112.371-.15.148-.113.26-.225.408-.338l-.334.113zm-3.484.3h.297c.481-.338 1.074-.639 1.779-.977.26-.188.481-.376.74-.564-.296.113-.592.263-.852.376-.519.376-1 .639-1.408.752-.222.15-.408.263-.556.413zm8.08-.79c-.26.226-.556.452-.815.715.148-.075.296-.113.444-.188.334-.3.668-.564 1.001-.79-.185.076-.407.189-.63.264zm-1.557-.037a3.2 3.2 0 00-.518.489c.185-.075.407-.15.593-.226.185-.15.333-.3.519-.45-.223.037-.408.112-.594.187zm-2.631-.488c-.37.3-.704.601-1.038.864.148-.075.26-.113.408-.188.333-.263.63-.526.963-.827-.11.038-.222.075-.333.15zm1.075.413a3.984 3.984 0 00-.408.376c.26-.075.482-.188.741-.263.149-.113.297-.263.445-.376-.296.075-.556.188-.778.263zm5.819.3c.037 0 .074.038.111.038.111-.112.223-.188.334-.3v-.038a1.55 1.55 0 01-.445.3zm-8.636-1.202c-.779.338-1.446.677-1.89 1.015.037 0 .074 0 .148-.038.407-.263.852-.488 1.408-.751a.874.874 0 00.334-.226zm8.71.038c-.408.075-1 .376-1.668.864.037-.037.074-.037.148-.075.334-.188.63-.376.927-.451.185-.113.408-.226.593-.338zm-10.86.639l-.222.225c.11-.075.185-.15.296-.225h-.074zm8.228-.376c-.148.15-.333.263-.481.413.037-.037.11-.037.148-.075.185-.15.37-.3.519-.413a.62.62 0 01-.186.075zm-2.854-.414c-.296.263-.593.526-.89.752a1.91 1.91 0 01.26-.113c.297-.263.556-.488.853-.752-.074.076-.148.076-.223.113zm5.746.451c.037 0 .074.038.11.075.075-.037.112-.112.149-.15 0-.037-.037-.037-.037-.075a.763.763 0 01-.222.15zm-11.342-.188c.037.038.074.076.148.076.222-.188.482-.376.815-.564-.222.075-.444.15-.63.15-.148.113-.26.226-.333.338zm8.191-.45c-.185.15-.37.338-.593.488.222-.075.408-.15.63-.226l.667-.563c-.222.112-.445.225-.704.3zm-3.892.037c-.185.15-.333.3-.519.451.037 0 .074-.038.148-.038.149-.15.334-.3.52-.413-.075-.038-.112 0-.149 0zm2.595-.376c-.26.226-.556.489-.816.714 0 0-.037 0-.037.038.26-.113.52-.188.742-.3.296-.264.593-.527.89-.753a4.79 4.79 0 01-.78.301zm4.336-.263c-.407.113-.963.413-1.63.864a9.456 9.456 0 001.63-.864zm-11.416.564v.075c.037 0 .037-.038 0-.075.037.037.037.037 0 0zm11.416-.038h.149c.074 0 .11.038.185.038.148-.113.26-.226.37-.338-.036-.038-.074-.113-.11-.15-.186.15-.408.3-.63.45h.036zm-5.708-.338c-.148.113-.296.263-.444.376.11-.038.222-.075.296-.113.148-.113.297-.263.408-.376-.074.038-.186.075-.26.113zm-1.742.15c-.074.075-.148.113-.222.188l.556-.225c.074-.075.148-.113.222-.188-.222.075-.407.15-.556.225zm-3.78-.112a.282.282 0 00.185.075c.111-.075.222-.188.334-.264a.748.748 0 01-.408 0c-.037.076-.074.113-.111.189zm11.49-.94c-.445.075-1.112.45-1.854.977.742-.338 1.372-.639 1.854-.977zm-2.558.15c-.333.263-.667.526-1 .827h.037c.37-.3.704-.601 1.037-.864 0 .037-.037.037-.074.037zm-5.596.414c-.186.15-.334.263-.52.413.223-.113.482-.188.705-.3.148-.113.296-.264.445-.377-.186.076-.408.188-.63.264zm-.149-.715c-.445.339-.852.677-1.26.903.37-.188.778-.376 1.223-.564.26-.226.556-.451.853-.715-.297.15-.556.264-.816.376zm3.67.527c-.149.112-.26.225-.408.338a.522.522 0 01.222-.075c.149-.113.26-.226.408-.338a.522.522 0 00-.222.075zm-1.446 0c-.074.075-.148.112-.185.188.037 0 .074-.038.074-.038.074-.075.148-.113.185-.188 0 .038-.037.038-.074.038zm6.227-1.24c-.519.037-1.334.526-2.298 1.24.964-.414 1.78-.865 2.298-1.24zm.074 1.202H48c.074-.038.111-.113.185-.15a.776.776 0 00-.222.15zm-11.787-.113c.038.038.075.075.112.075a.512.512 0 01.148-.112h-.037c-.074 0-.111-.038-.148-.038l-.075.075zm2.039-.639a9.531 9.531 0 00-1.26.715c.37-.113.815-.376 1.26-.715zm3.188.263c-.149.113-.297.264-.445.376.148-.075.333-.113.482-.188.148-.15.296-.263.444-.376a2.545 2.545 0 00-.481.188zm3.076 0c-.148.113-.26.226-.408.339.297-.113.63-.263.927-.376.148-.113.297-.263.445-.376-.297.15-.63.263-.964.413zm-1.668.113c-.074.075-.148.113-.185.188.111-.038.185-.075.296-.113.074-.075.149-.112.186-.188-.112.038-.186.076-.297.113zm-3.892-1.466c-1 .451-1.853.865-2.335 1.316.52 0 1.372-.526 2.335-1.316zm.89.376c-.37.3-.742.602-1.112.865.148-.076.334-.15.482-.226.296-.263.63-.526.926-.79a.708.708 0 01-.296.151zm1.594.15l-.779.677.556-.225c.26-.226.52-.451.742-.677-.149.113-.334.15-.52.226zm1.593.188c-.148.15-.333.264-.481.414.037 0 .074-.038.074-.038.148-.15.333-.3.482-.413-.038 0-.038.037-.075.037zm4.967.376h.074c.037 0 .111.038.148.038.075-.075.149-.188.223-.263v-.038c0-.037-.037-.037-.037-.075-.148.113-.26.226-.408.338zm-11.787.038c.075-.075.186-.15.297-.263h-.074a.7.7 0 00-.223.263zm8.044-.188c-.075.075-.149.113-.223.188.111-.038.185-.075.26-.113.074-.075.148-.113.222-.188a.398.398 0 00-.26.113zm0-.714l-.556.45c.11-.037.222-.074.296-.112.185-.15.37-.338.556-.489-.074.038-.185.113-.296.15zm-1.187-.339c-.259.226-.518.451-.74.677.148-.075.333-.15.518-.188l.779-.676a3.23 3.23 0 00-.556.188zm-1.704-.112c-.26.225-.556.488-.816.714.222-.075.445-.188.667-.263l.779-.677a2.12 2.12 0 00-.63.226zm4.596.413a2.05 2.05 0 00-.297.226c1-.451 1.853-.902 2.372-1.316h-.111c-.519.414-1.186.752-1.964 1.09zm-9.637.226c.148-.15.333-.263.556-.414-.037 0-.112.038-.149.038-.148.113-.296.225-.407.376zm1.705-.564c-.371.188-.705.376-.964.526.26-.113.593-.3.964-.526zm10.007.376h.148c.038 0 .112.037.149.037.037-.037.074-.075.074-.112-.037-.038-.111-.113-.185-.113-.038.075-.112.113-.186.188zm-7.783-.752c-.26.226-.482.413-.705.601.037-.037.075-.037.149-.075.222-.188.444-.376.704-.601-.074.037-.111.037-.148.075zm5.819-.038c-.26.188-.52.414-.816.64a5.99 5.99 0 00.482-.226c.779-.564 1.446-.94 2.002-1.09.185-.113.333-.263.444-.376-.11 0-.222 0-.333.037-.445.339-1.075.677-1.78 1.015zm-9.934.527v.075l.037-.038c0-.037 0-.037-.037-.037zm8.71-.79c-.296.226-.592.489-.889.752.037 0 .074-.038.111-.038.334-.263.63-.526.927-.789-.074.038-.111.038-.148.075zm3.744.602l.037.037c0-.037 0-.075.037-.112-.037 0-.074.037-.074.075zm-5.523-.715c-.259.226-.518.452-.74.677.184-.075.333-.15.518-.225l.779-.677a1.748 1.748 0 01-.556.226zm-6.745.527c.037.037.074.037.148.037h.111c.519-.375 1.26-.751 2.113-1.165.333-.263.667-.526 1.038-.827-.297.113-.593.263-.89.376-.815.64-1.557 1.09-2.113 1.165l-.407.414zm11.75.037h.073c.149-.112.26-.225.334-.338-.111.113-.26.226-.408.338zm-6.598-.639c-.186.188-.408.339-.593.527.11-.038.185-.076.296-.113.185-.188.408-.338.593-.526a2.535 2.535 0 00-.296.112zm-1.853.15c-.112.114-.26.226-.371.301.26-.112.519-.225.778-.3.111-.075.223-.188.334-.263a5.82 5.82 0 00-.741.263zm8.34-1.315c-.594.038-1.52.64-2.596 1.466.186-.075.334-.15.482-.225.705-.527 1.335-.903 1.817-1.015.148-.076.222-.15.296-.226zm-9.082 1.015c-.185.15-.333.263-.519.376.334-.15.667-.3 1.038-.451a3.96 3.96 0 01.408-.339 10 10 0 01-.927.414zm-2.743.263v.113l.075-.075c-.038 0-.038-.038-.075-.038zm8.71-.752c-.296.226-.555.489-.852.715.222-.076.408-.188.63-.264.37-.3.742-.601 1.075-.826-.26.112-.556.263-.852.375zm-2.038.15c-.185.151-.37.339-.556.49.223-.076.408-.151.63-.264.185-.15.37-.338.556-.488-.222.075-.445.15-.63.263zm-6.45.264c.038 0 .075.037.112.037h.111c.519-.376 1.223-.751 2.039-1.127.26-.226.556-.451.852-.677-.37.15-.741.3-1.075.489-.593.413-1.112.752-1.556.864a1.761 1.761 0 00-.482.414zm5.079-.339c-.112.076-.186.188-.297.264.037 0 .074-.038.111-.038.111-.075.186-.188.297-.263-.037 0-.074 0-.111.037zm-5.264-.112v.112c.038-.037.075-.037.075-.075-.038-.037-.075-.037-.075-.037zm4.819-.338c-.148.112-.26.225-.408.338.223-.075.408-.15.63-.226.148-.113.26-.225.408-.338a2.12 2.12 0 00-.63.226zm3.595-.189c-.185.15-.37.339-.593.49.222-.076.445-.189.63-.264a8.47 8.47 0 01.705-.526c-.223.075-.482.188-.742.3zm-1.964.189c-.111.075-.186.187-.297.263.074-.038.186-.076.26-.113.11-.075.185-.188.296-.263-.074.037-.185.075-.26.113zm5.745.037c.037 0 .074 0 .074.038 0-.038-.037-.038-.037-.038 0-.037-.037-.037-.037 0zm-1-.564c-.297.113-.631.338-1.002.564.37-.188.704-.376 1.001-.564zm-11.01.489c.038 0 .075.038.075.038h.26c.407-.264.926-.564 1.519-.828.37-.263.778-.6 1.186-.94-.334.151-.667.302-.964.452-.593.45-1.149.752-1.593.902a1.194 1.194 0 00-.482.376zm4.523-.752c-.297.263-.593.489-.853.752.223-.113.482-.188.741-.3.26-.226.556-.49.816-.715-.222.075-.445.15-.704.263zm3.15.226c-.111.075-.222.188-.333.263.222-.075.444-.188.704-.263.111-.113.222-.188.37-.301-.259.113-.518.226-.74.3zm-1.297-.15c-.148.112-.297.262-.445.375.037 0 .074-.037.111-.037.149-.15.297-.263.445-.414-.037.038-.074.075-.111.075zm-6.598.187c0 .038-.037.113 0 .15l.111-.112c-.037 0-.074-.038-.11-.038zm11.935-.037h.224s0-.038.037-.038c-.037-.037-.074-.075-.148-.075-.038.075-.075.075-.112.113zm-4.04-.677l-.556.451c.111-.038.186-.075.297-.113.185-.188.407-.338.593-.488-.074.037-.185.075-.334.15zm-1.371-.263c-.26.225-.52.451-.742.676l-.037.038c.223-.075.408-.15.63-.263.297-.263.556-.489.816-.714a4.92 4.92 0 00-.667.263zm-6.301.639c.037 0 .074.037.074.037h.26c.407-.3.963-.563 1.556-.864a9.176 9.176 0 001-.79c-.333.151-.63.264-.926.414-.556.414-1.075.714-1.482.827-.186.113-.371.226-.482.376zm4.336-.602c-.222.188-.481.414-.704.602.222-.075.445-.188.667-.263a9.32 9.32 0 00.667-.602c-.185.076-.407.15-.63.264zm7.302.076c-.148.112-.296.263-.445.376.186-.038.371-.076.52-.076.073-.075.11-.15.185-.225-.112-.038-.186-.075-.26-.075zm-.667-.677c-.408.15-.89.451-1.409.827.556-.263 1.038-.526 1.409-.827zm-11.157.752v.075l.075-.075h-.075zm11.268-1.504c-.556.076-1.408.64-2.335 1.354 1.038-.451 1.89-.903 2.335-1.354zm-6.82.527c-.296.263-.63.563-.926.789.259-.113.519-.226.815-.338l.89-.79-.779.339zm4.003-.038c-.296.263-.63.526-.963.79.074-.038.11-.038.185-.076.37-.3.704-.601 1.038-.864-.074.075-.186.112-.26.15zm-2.15.15c-.222.188-.444.414-.667.602.223-.075.445-.188.668-.263.222-.226.481-.414.704-.602-.26.038-.482.15-.704.263zm-6.078.527h.297c.407-.264.889-.527 1.445-.79.296-.225.593-.45.89-.714a7.35 7.35 0 00-.779.376c-.556.413-1.038.714-1.483.827-.148.075-.259.188-.37.3zm11.898-.076c.037 0 .037.038.074.038 0-.038 0-.075-.037-.113 0 .038-.037.038-.037.075zm-.297-.413c-.111.113-.222.263-.37.376.074 0 .148-.038.222-.038a.889.889 0 00.222-.338h-.074zm-.964-1.165c-.444.15-1.074.526-1.742 1.015.742-.339 1.335-.677 1.742-1.015zm-4.521.225c-.297.263-.593.526-.853.752l-.037.038c.222-.076.408-.188.63-.264.334-.3.63-.563.927-.826-.223.112-.445.188-.667.3zm1.964.038c-.297.225-.556.45-.852.714l.778-.338c1.038-.827 1.964-1.429 2.632-1.579.074-.113.148-.188.185-.3h-.297c-.482.488-1.371.977-2.446 1.503zm-8.117.676h.259c.37-.263.853-.526 1.409-.789.26-.188.519-.413.815-.639-.185.075-.334.15-.519.226-.667.488-1.26.864-1.705.94-.111.075-.185.187-.26.262zm4.114-.676c-.26.225-.519.45-.741.639.222-.113.444-.188.704-.3.222-.226.482-.414.704-.64-.26.15-.482.226-.667.3zm7.413.338a.517.517 0 00-.111.15h.037c.037-.075.074-.112.074-.15zm-11.564-.338h.147c.409-.3.965-.602 1.632-.902.185-.15.37-.301.593-.451-1.038.45-1.965.94-2.372 1.353zm8.265-.978c-.37.301-.778.64-1.186.978.297-.113.556-.263.853-.376.926-.752 1.779-1.316 2.446-1.504.074-.112.148-.188.185-.3-.111 0-.296 0-.445.075-.407.376-1.075.752-1.853 1.127zm-4.336.339c-.223.188-.445.413-.668.601.223-.075.445-.188.668-.263l.667-.564a2.335 2.335 0 00-.667.226zm1.964-.038c-.222.226-.482.414-.704.64l.778-.339.779-.677a8.415 8.415 0 00-.853.376zm5.412.489h.11v-.038c-.036-.037-.073-.037-.073-.075-.037.038-.037.075-.075.113h.038zm-11.416-.3c0 .037-.038.074-.038.074.038-.037.075-.037.075-.075 0 .038-.038 0-.038 0zm11.008-.34c-.037.039-.111.076-.148.151.148-.037.296-.075.407-.037 0 0 0-.038.037-.038-.037-.037-.074-.037-.11-.037-.075-.038-.15-.038-.186-.038zm-7.154-.45c-.185.188-.407.338-.593.489l.556-.226c.185-.15.37-.338.556-.489a7.14 7.14 0 01-.519.226zm1.965-.113a9.63 9.63 0 00-.667.602c.222-.076.407-.15.63-.264.222-.188.444-.413.704-.601-.222.113-.445.188-.667.263zm-5.152.3l-.334.226c.37-.075.927-.413 1.52-.902-.112.038-.186.113-.297.15a2.766 2.766 0 01-.89.527zm7.672-.638a88.02 88.02 0 00-1.038.827c.297-.15.593-.263.853-.414.704-.526 1.334-.94 1.853-1.127.111-.113.185-.226.26-.301-.112 0-.297.037-.445.113-.37.3-.89.601-1.483.902zm2.965.526s.037 0 0 0c.037 0 .037 0 0 0zm-11.23-.225h.037c.11 0 .222 0 .37-.038.26-.15.556-.338.853-.489.296-.225.63-.488.964-.752-1.001.452-1.854.903-2.224 1.279zm5.411-.49c-.185.151-.37.302-.519.452.223-.075.445-.188.63-.263.186-.15.37-.338.556-.489-.222.113-.445.188-.667.3zm-1.779.076c-.148.15-.296.263-.445.376.111-.038.26-.113.37-.15.15-.113.297-.264.446-.376a2.44 2.44 0 00-.371.15zm4.188-.451c-.296.226-.593.489-.926.752.407-.188.815-.376 1.149-.527.556-.413 1.038-.714 1.482-.902.149-.15.26-.263.334-.413-.111 0-.26.038-.408.075-.37.338-.964.677-1.63 1.015zm-4.633-.075c-.222.188-.407.338-.593.526.26-.113.556-.226.853-.338.185-.188.407-.339.593-.527-.297.113-.593.226-.853.339zm1.928-.075a4.075 4.075 0 00-.408.375c.185-.075.333-.15.519-.225.148-.113.296-.263.445-.376-.223.075-.371.15-.556.226zm2.372-.376c-.223.188-.482.376-.705.601.297-.113.557-.263.816-.376.63-.488 1.186-.864 1.668-1.015.111-.112.185-.188.222-.3-.11 0-.222.037-.37.075-.334.3-.927.639-1.631 1.015zm-7.487.075a.286.286 0 00-.075.15c-.037.075 0 .113 0 .15.149-.112.297-.262.52-.375-.186.037-.334.075-.445.075zm.852.113a.514.514 0 00-.148.112c.037-.037.111-.075.148-.112zm9.711.075s0-.038 0 0c0-.038 0 0 0 0zm-5.374-.677a9.402 9.402 0 00-.63.564c.11-.038.222-.113.37-.15.223-.188.445-.414.704-.602-.185.076-.296.15-.444.188zm-1.742.038c-.223.188-.408.376-.593.526.037 0 .074-.038.11-.038.186-.187.409-.338.594-.526-.037 0-.074.038-.111.038zm3.484-.038c-.186.15-.334.301-.52.451.297-.15.594-.263.89-.413.63-.489 1.186-.827 1.631-1.053.111-.112.186-.225.186-.3v-.038c-.075 0-.112 0-.186.038-.37.45-1.075.902-2.001 1.315zm-4.263-.263c-.148.15-.296.263-.444.376.333-.15.667-.263 1.037-.413.149-.15.297-.264.482-.414-.37.15-.741.3-1.075.451zm7.525.3c0 .038 0 .038 0 0 0 .038 0 .038 0 0 0 .038.037.038 0 0zm-5.523-.488c-.148.15-.334.3-.482.451l-.037.038c.296-.113.556-.226.852-.376.186-.15.371-.3.52-.451-.297.113-.557.225-.853.338zm-4.782.226c0 .037 0 .037 0 0-.037.075-.037.15 0 .188.075-.038.112-.113.186-.15h-.148l-.038-.038zm7.34-.752c-.334.263-.742.564-1.113.902.223-.075.408-.188.63-.263.742-.601 1.446-1.09 1.965-1.278.037-.038.037-.075.074-.15-.185 0-.445.112-.704.263-.26.188-.556.376-.853.526zm-4.82.038c-.407.338-.778.639-1.074.864.37-.188.741-.376 1.149-.526.26-.226.519-.451.815-.714a4.84 4.84 0 00-.89.376zm-1.445-.076c-.222.113-.444.264-.63.376.186-.075.408-.225.63-.376zm3.966-.263c-.185.15-.37.339-.593.527.037 0 .074-.038.111-.038.223-.188.408-.376.593-.526-.037 0-.074.037-.11.037zm-5.004.451s-.037 0 0 0c-.037 0-.037 0 0 0zm7.228-.751c-.26.188-.519.413-.815.639.222-.113.482-.226.667-.339.296-.225.593-.413.852-.564.112-.112.223-.188.297-.3-.111.037-.26.112-.445.188-.185.15-.37.263-.556.376zm-4.707-.113c-.26.225-.519.413-.741.601l.444-.225c.223-.188.445-.376.63-.564-.074.075-.185.113-.333.188zm7.042.526c.037 0 .037.038 0 0zm-5.004-.714c-.259.225-.518.45-.778.714l1-.451c.371-.3.705-.601 1.039-.865-.408.188-.816.414-1.26.602zm3.41-.865c-.481.038-1.334.677-2.26 1.429.481-.226.926-.414 1.297-.64.185-.15.37-.262.556-.338.185-.15.333-.3.407-.45zm-7.894 1.166c-.038.037-.075.112-.112.15.075-.038.112-.113.186-.15h-.074zm4.003-.79c-.186.188-.371.338-.556.489.296-.113.556-.263.852-.376l.667-.564c-.333.188-.63.3-.963.451zm-1.78.113c-.148.15-.333.263-.481.413.148-.075.333-.15.482-.225.148-.113.296-.263.444-.376-.148.075-.296.15-.444.188zm-2.075-.226a.863.863 0 00-.26.301v.113c.334-.3.927-.602 1.668-.94.223-.188.482-.413.705-.639l-.038.038c-.333.15-.704.338-1.074.526-.408.338-.742.564-1.001.601zm8.45.301c0 .038.038.038.038.038 0-.038-.037-.038-.037-.038zm-6.82-.45c-.148.112-.296.262-.444.337.222-.112.445-.188.667-.3.111-.113.26-.226.37-.339a4.394 4.394 0 00-.592.301zm5.264-.264c-.222.113-.482.3-.741.489.296-.15.519-.339.741-.489zm-3.188-.075c-.148.15-.296.263-.444.413.11-.037.259-.113.37-.15.186-.15.334-.3.52-.414-.15.038-.297.113-.446.15zm-3.67-.263c-.147.112-.258.225-.258.3v.076c0 .037.036.037.036.037h.038c.222-.188.556-.376.963-.564.26-.225.556-.488.853-.714-.297.15-.63.3-.927.489-.296.15-.519.3-.704.376zm3.485-.301c-.148.15-.333.263-.482.413.149-.075.297-.112.445-.188.222-.187.408-.338.593-.526a1.957 1.957 0 01-.556.301zm2.558.263c-.075.038-.112.075-.186.113.074-.038.111-.075.186-.113zm.852-.376c-.037.15-.148.263-.297.414a1.73 1.73 0 01.557-.226s0-.037-.038-.037c-.037-.076-.074-.113-.148-.113 0-.038-.037-.038-.074-.038zm-1.075-.263c-.222.113-.482.3-.741.489.333-.15.593-.339.741-.489zm-2.26-.451c-.297.263-.63.526-.89.79.222-.113.444-.189.63-.301.704-.602 1.223-1.015 1.668-1.203v-.038c0-.037-.037-.037-.075-.037a.785.785 0 00-.481.188c-.186.188-.482.376-.853.601zm-2.41-.226c-.63.339-1.372.752-1.446.978h.075c.185-.113.37-.263.63-.376.26-.188.519-.413.74-.601zm5.263.49c0 .037 0 .037 0 0-.037.074-.037.15-.074.187a.521.521 0 01.222-.075v-.038c-.074-.037-.11-.037-.148-.075zm-3.261-.828c-.334.263-.668.564-.964.827.407-.188.815-.376 1.149-.601.296-.226.556-.451.778-.564.037-.038.037-.075.037-.113v-.075c0-.038-.037-.038-.037-.038-.111 0-.296.076-.519.226-.111.075-.26.188-.444.338zm-2.558-.037c-.37.225-.816.45-.852.601.148-.038.481-.338.852-.601zm5.3.564s.037 0 0 0c.037 0 .037 0 0 0zm-.593-.376c-.037.037-.074.112-.111.15.111-.075.222-.113.297-.15 0 0-.038 0-.038-.038-.037.038-.11.038-.148.038zm-1.89-1.053c-.26 0-1 .64-1.483 1.053.334-.188.704-.339 1.001-.527l.445-.338c.037-.037.074-.113.111-.15v-.038h-.074zm-3.299.526c-.111.075-.185.113-.26.188.075-.037.186-.113.26-.188zm2.595-.789c-.186 0-.742.489-1.186.864.556-.338 1.111-.639 1.186-.864zm-.705-.226c-.148.038-.37.226-.593.451.26-.187.52-.338.593-.45zM.89 47.962H.778a.728.728 0 01-.482-.338c-.037-.113-.074-.188-.11-.3-.038-.038-.038-.076-.075-.113-.111-.226-.148-.414-.074-.64a.743.743 0 010-.563.742.742 0 010-.564c0-.038.037-.075.037-.113a.861.861 0 01-.037-.676c0-.038 0-.038.037-.075-.074-.15-.074-.376 0-.602-.074-.226-.111-.413-.037-.639 0 0 0-.038.037-.038a.779.779 0 01-.037-.639c0-.037.037-.075.037-.112a.862.862 0 01-.037-.677s0-.037.037-.037a.779.779 0 01-.037-.64v-.037a.649.649 0 010-.526.841.841 0 010-.602c0-.037 0-.037.037-.075a.743.743 0 010-.564c0-.037.037-.037.037-.075-.111-.225-.148-.45-.037-.676 0-.038.037-.076.037-.113a.689.689 0 01-.037-.602 1.088 1.088 0 010-.488c0-.038.037-.075.037-.113a.689.689 0 01-.037-.601c0-.038.037-.038.037-.076a.689.689 0 01-.037-.601c0-.038.037-.113.074-.15a.61.61 0 01-.037-.564c0-.038.037-.038.037-.075-.111-.188-.111-.376-.074-.564 0-.038.037-.075.037-.113a.485.485 0 010-.451c0-.038 0-.038.037-.075a.882.882 0 01-.074-.602c0-.037.037-.075.037-.112a.637.637 0 01-.037-.451c0-.038.037-.113.074-.15 0 0 0-.038-.037-.038-.074-.15-.111-.301-.037-.451a.79.79 0 01.148-.226c-.037-.037-.037-.075-.074-.113C.074 31.8.074 31.65.111 31.5c.037-.075.074-.15.111-.188-.037-.038-.074-.075-.074-.113a.45.45 0 01-.037-.376l.111-.225-.074-.076c-.111-.187-.037-.413.111-.563a.292.292 0 01-.148-.15C0 29.618.074 29.43.222 29.28l-.11-.113c-.112-.188-.038-.375.036-.563v-.038c-.037-.038-.074-.038-.074-.075-.037-.113-.037-.226.074-.263h.037c.111-.038.186-.075.297-.075.074 0 .111.037.148.112.074.15.037.339-.037.527l.074-.076c.223-.225.408-.413.593-.376.074 0 .148.076.186.15.037.076.037.151.037.226.185-.15.333-.225.481-.188.112 0 .186.076.223.15.037.076.074.151.074.226.185-.113.334-.188.482-.15a.28.28 0 01.26.188c.036.037.036.075.036.113.074 0 .149-.038.186 0 .074 0 .222.075.296.225.037.038.037.075.037.113.111-.038.223-.038.297-.038a.54.54 0 01.333.226c.037.037.037.113.074.15h.186c.148.038.296.113.37.263.038.038.038.075.038.113.185.038.296.113.407.3v.038a.59.59 0 01.37.301c.038.038.038.075.038.113a.59.59 0 01.37.3.59.59 0 01.371.301.54.54 0 01.074.226.87.87 0 01.26.263c.037.075.074.188.111.263.111.075.185.15.222.263a.54.54 0 01.075.226c.11.075.185.15.259.263a.605.605 0 01.111.3c.074.076.148.15.223.264.074.112.11.188.11.3.038.038.038.075.075.113.074.15.111.3.111.489a.518.518 0 01.111.15c.074.15.111.3.111.451.038.038.075.113.112.15.11.188.148.376.11.527 0 0 0 .037.038.037a.785.785 0 01.111.564.767.767 0 01.074.64c.111.187.111.375.074.563a.912.912 0 01.075.752c0 .037-.038.075-.038.112a.862.862 0 01.038.677c-.038.075-.038.113-.075.188.075.188.037.376 0 .564a.287.287 0 01-.074.15c.037.188.037.376 0 .526a.82.82 0 01-.185.301 1.26 1.26 0 010 .526 1.431 1.431 0 01-.334.489c.037.15.037.3-.037.451a.888.888 0 01-.222.338c0 .113 0 .226-.037.301a1.35 1.35 0 01-.408.526c0 .075-.037.15-.037.188-.074.226-.296.451-.593.64v.037c-.148.413-.704.714-1.483 1.052.037.075 0 .188-.11.226-.112.037-.223.037-.26-.075-.074.037-.148.075-.26.112a5.58 5.58 0 00-.852.79c-.667.639-1.075 1.052-1.446.977-.074 0-.185-.075-.222-.113-.482.414-.964.714-1.334.714zm-.26-.789c.037.038.074.038.111.038.186.037.408-.075.667-.226-.259.15-.518.188-.74.15H.63v.038c0-.038 0-.038 0 0zm2.78-1.015c-.26.263-.519.526-.778.752.185-.038.778-.564 1.074-.865-.11.038-.222.076-.296.113zm-1.853.226l-.445.225c.148-.037.296-.113.445-.225zm-1.038.188c0 .037 0 .037 0 0 .037 0 .037 0 .037-.038 0 .038 0 .038-.037.038zm1.297-.827c-.333.15-.63.3-.852.45.222-.037.519-.225.852-.45zm-1.112.113l-.037.037.037-.038zm-.111-.49c.037 0 .037 0 0 0 .185-.074.334-.187.519-.262-.111.037-.185.037-.297.037l-.222.226zm2.076-.525c-.074.037-.112.112-.186.15.112-.038.186-.075.297-.113l.148-.15a.334.334 0 01-.26.113zm-.149-.602a7.517 7.517 0 01-.667.489c.186-.075.408-.15.63-.263.149-.113.297-.263.445-.414a.995.995 0 01-.408.188zm-1.927.376a.28.28 0 00.148.075c.111-.075.26-.15.37-.225-.147.037-.296.037-.407.037l-.111.113zm4.559-.113c-.074.038-.111.113-.185.15.593-.225 1.149-.45 1.556-.676-.407.188-.89.376-1.371.526zm-1.26-.752c-.148.15-.297.264-.408.414.074-.038.111-.038.185-.075.112-.113.26-.226.371-.376l.037-.038c-.074 0-.111.038-.185.075zm-1.075-.375a6.97 6.97 0 01-.89.676c.112-.037.26-.112.371-.15a9.63 9.63 0 00.667-.602c0 .038-.074.038-.148.076zm-2.298.601c.037.038.037.075.074.075l.334-.225h-.26c-.037.037-.111.075-.148.15zm6.004-.526c.037 0 .075.037.075.037.222-.112.407-.188.556-.3v-.038c-.223.113-.408.226-.63.3zm-2.557-.489c-.185.188-.37.376-.556.526.074-.037.185-.075.26-.112l.518-.527-.222.113zm-3.41.338c0 .038.037.038.037.038.148-.113.297-.188.445-.3-.111 0-.186.037-.26 0-.11.112-.185.187-.222.262zm2.298-.639a7.134 7.134 0 01-.63.49c.111-.038.26-.114.37-.151.149-.15.334-.3.482-.451a.6.6 0 01-.222.113zm2.261-.112c-.185.15-.334.338-.519.488.074-.037.111-.037.185-.075.186-.188.371-.338.556-.526l-.222.113zm1.78.037h.073a.68.68 0 01.26.075c.148-.075.296-.187.37-.263v-.037c-.037-.038-.037-.075-.074-.113-.222.15-.408.226-.63.338zm-2.818-.338c-.148.15-.296.263-.408.413.037 0 .075-.037.112-.037.148-.15.26-.263.407-.414-.037 0-.074 0-.11.038zm-3.484.3c.037.038.074.038.111.076.186-.113.37-.263.593-.376-.185.075-.333.113-.482.075-.11.113-.185.15-.222.226zm2.113-.488a4.924 4.924 0 01-.593.451l.556-.225c.148-.113.296-.264.444-.376-.148.075-.296.112-.407.15zm3.78-.038c-.11.113-.26.188-.407.339.519-.376.963-.602 1.334-.564h.074c.111-.075.223-.113.297-.188-.074-.075-.149-.113-.186-.113a7.693 7.693 0 01-1.112.526zm-1.408-.15c-.148.113-.26.263-.408.376.074-.038.148-.038.223-.075.148-.15.259-.263.407-.376a.521.521 0 01-.222.075zm-2.41-.488c-.333.263-.63.488-.889.639.222-.113.482-.226.741-.301.186-.15.371-.338.556-.489-.148.038-.296.075-.407.15zm1.372.187c-.148.113-.26.264-.37.376.074-.037.148-.037.185-.075l.37-.376c-.074.038-.11.038-.185.075zm-3.484.264c.037.037.074.075.148.075l.334-.226a.507.507 0 01-.334 0H.667a.518.518 0 01-.111.15zm5.745-.414c-.148.113-.296.263-.445.414.149-.076.297-.113.445-.188.445-.339.853-.527 1.223-.564.26-.15.482-.3.667-.451l-.074-.075c-.482.338-1.112.601-1.816.864zm-1.149-.225l-.37.375c.036 0 .074-.037.11-.037.149-.113.26-.263.408-.376-.074 0-.11 0-.148.038zm2.854.075c.037.037.074.037.074.075.074-.075.148-.188.148-.263-.037.075-.148.15-.222.188zm-3.966-.414c-.148.15-.334.301-.482.451.111-.037.186-.075.297-.112l.445-.452c-.112.038-.186.076-.26.113zm-3.52.302c.037.038.037.075.074.075.037-.037.111-.075.148-.113H.704c-.037 0-.074 0-.111-.037l-.074.075zm5.708-.376a4.465 4.465 0 00-.445.414l.334-.113c.222-.188.444-.339.63-.489-.186.038-.334.113-.52.188zm-3.373-.225c-.26.225-.519.45-.778.639.11-.038.26-.113.407-.15.186-.189.408-.34.63-.565-.11.038-.185.038-.259.076zm2.335-.113c-.148.15-.296.3-.482.45.074-.037.149-.037.186-.074.148-.15.333-.301.481-.451-.037.037-.11.037-.185.075zm-3.447-.113c-.222.113-.445.226-.63.338.148-.075.37-.188.63-.338zm2.298-.226c-.185.15-.334.339-.519.49.111-.038.185-.076.297-.114.148-.15.333-.3.482-.488a.398.398 0 01-.26.112zm-3.373.339l-.111.113a.495.495 0 01.148-.113H.667zm5.782-.489c-.185.15-.37.338-.593.526.037-.037.111-.037.149-.075.259-.225.481-.413.704-.564a1.7 1.7 0 01-.26.113zm-3.41-.188c-.185.188-.37.338-.556.489.037-.038.112-.038.149-.075.185-.15.333-.301.519-.451-.038.037-.075.037-.112.037zm2.15-.037c-.148.15-.333.3-.482.45a.68.68 0 01.26-.075c.148-.15.333-.3.482-.488-.075.037-.149.075-.26.113zm2.669.375h.185c.148-.112.26-.187.334-.3 0-.038-.037-.038-.037-.075-.186.112-.371.225-.593.338.037.037.074.037.11.037zM.556 39.92c0 .037.037.037 0 0 .148-.076.296-.15.445-.264-.074 0-.149.038-.223.038l-.222.226zm3.521-.527c-.148.15-.296.301-.445.414.074-.038.112-.038.186-.075.148-.15.296-.301.444-.414-.074.038-.11.075-.185.075zm2.41-.15c-.186.15-.371.338-.557.489a2.66 2.66 0 00.297-.113c.296-.263.556-.451.815-.64-.148.076-.333.189-.556.264zm-3.596.038c-.074.075-.185.15-.26.225.075-.038.149-.038.186-.075a.985.985 0 01.222-.188c-.037 0-.11.038-.148.038zm2.261-.264c-.148.15-.296.264-.445.414a.68.68 0 01.26-.075c.148-.15.296-.301.444-.414a.53.53 0 01-.259.075zm2.891.264h.111c.037 0 .074 0 .111.037.075-.037.112-.113.149-.15l-.111-.113c-.112.075-.223.15-.371.226h.111zM.63 39.242c.037 0 .037.038.074.038.408-.301.964-.564 1.594-.827.148-.113.297-.226.408-.376l-.556.225c-.445.339-.816.564-1.15.602-.148.112-.296.225-.37.338zm1.853-.413c-.185.15-.37.3-.519.413.223-.113.482-.188.705-.3.11-.114.222-.226.37-.339l-.556.225zm1.483.037c-.074.075-.148.113-.185.188l.074-.038c.074-.075.148-.112.185-.188 0 .038-.037.038-.074.038zm2.446-.3c-.148.15-.333.3-.482.45.112-.037.26-.112.371-.15.222-.188.445-.376.667-.526l-.556.225zm-6.004.262v.038c.037 0 .037 0 0-.038.037 0 .037 0 0 0zm8.228-.037s.037 0 0 0c.037 0 .037 0 0 0 .037 0 .037 0 0 0zm-3.67-.263c-.073.075-.148.113-.185.188.075-.038.112-.038.186-.075a.986.986 0 01.222-.188c-.111.037-.148.075-.222.075zm3.41-.263c-.185.112-.37.263-.592.376.148-.038.333-.076.444-.038a.873.873 0 00.26-.263c0-.038-.037-.075-.111-.075zm-4.373 0c-.111.112-.222.225-.334.3.037 0 .075-.037.112-.037a2.26 2.26 0 01.333-.3c-.074 0-.074 0-.111.037zm-3.41.225a.28.28 0 00.148.075h.074c.112-.075.186-.112.297-.188-.148.038-.334.076-.445.038H.63c.037 0 0 .038-.037.075zm5.523-.376l-.223.226a2.53 2.53 0 00.297-.113c.111-.075.185-.15.26-.225a1.708 1.708 0 01-.334.112zm-1.112-.225l-.334.338c.037 0 .037 0 .074-.037l.334-.339c-.037.038-.037.038-.074.038zm-2.335-.564c-.334.3-.63.526-.927.714.074-.037.148-.075.222-.075.223-.188.482-.413.705-.639.037 0 .037 0 0 0zm1.037.376c-.11.113-.222.225-.37.338.148-.037.296-.113.445-.15l.333-.339a1.79 1.79 0 01-.408.15zm-3.187.188l.074.075c.148-.113.334-.225.556-.376a1.864 1.864 0 01-.408.075l-.222.226zm5.56-.414c-.149.113-.26.226-.408.376a.68.68 0 01.26-.075c.148-.15.296-.263.444-.413-.111.037-.185.075-.296.112zm2.372.038a5.42 5.42 0 01-.482.338c.111-.037.185-.037.296-.037a.701.701 0 00.223-.264s0-.037-.037-.037zm-3.41-.3c-.111.112-.26.225-.37.337l.11-.037c.112-.113.26-.226.371-.376-.037.038-.074.075-.111.075zm-1.335-.264c-.185.188-.37.376-.593.564.112-.038.223-.075.371-.15.185-.188.37-.339.556-.527l-.334.113zm-1.37-.113c-.223.188-.483.376-.668.527.26-.113.519-.226.815-.339.112-.113.26-.225.408-.338-.222 0-.37.075-.556.15zm3.854-.075c-.148.15-.297.263-.445.414.037 0 .074-.038.111-.038.186-.15.37-.3.52-.451a.281.281 0 01-.186.075zm-5.078.113c-.148.075-.26.188-.37.263.37-.226.852-.489 1.408-.676.074-.076.148-.113.222-.188a3.27 3.27 0 00-.63.3c-.26.15-.445.263-.63.3zm6.598.075c-.112.038-.223.113-.371.188.148-.075.26-.113.37-.188zm.555.113h.075c.037-.038.074-.075.074-.113-.037 0-.074.075-.149.113zm-3.298-.564c-.186.188-.371.338-.556.526.148-.037.26-.113.407-.15.186-.188.371-.376.556-.526-.11.037-.259.075-.407.15zM3.78 36.31c-.112.113-.223.188-.297.3l.297-.3zm-3.15.226h.036c.074 0 .148 0 .26-.038.185-.113.37-.225.593-.3a7.8 7.8 0 00.704-.565c-.704.301-1.297.602-1.594.903zm5.93-.677c-.223.188-.482.413-.742.639.074-.037.111-.037.148-.075.742-.64 1.409-1.09 1.928-1.128.037-.037.074-.075.074-.15h-.222a6.652 6.652 0 01-1.187.714zm1.593.564h.149c.037-.038.037-.075.037-.075-.037-.038-.037-.038-.075-.038 0 .038-.037.075-.11.113zm-3.484-.414l-.26.264.334-.113.26-.263a.592.592 0 00-.334.112zm-1.297-.15l-.222.226c.148-.038.296-.113.407-.15l.223-.226c-.112.037-.26.112-.408.15zm4.707-.188l-.148.15h.26c0-.037.036-.037.036-.075-.037-.037-.11-.037-.148-.075zm-7.376.15c.297.038.779-.263 1.297-.714-.555.226-1.037.451-1.297.715zm5.338-.338c-.112.075-.186.15-.297.263.222-.075.408-.15.593-.263.148-.113.297-.225.482-.338l-.778.338zm-2.78-.263c-.149.15-.297.3-.445.413a1.31 1.31 0 00.334-.15l.407-.413c-.074.075-.185.112-.296.15zm1.482.15c-.11.076-.185.188-.296.264.111-.076.222-.188.296-.264zm1.075-.45a3.66 3.66 0 00-.408.375c.149-.037.297-.113.445-.15.26-.226.52-.414.742-.564l-.779.338zm-1.334-.151l-.408.413c.148-.037.297-.112.445-.15.148-.15.296-.3.445-.413a3.406 3.406 0 00-.482.15zm-3.373.075c-.148.075-.297.188-.408.263.26 0 .63-.263 1.038-.601-.111.038-.222.113-.296.15-.149.075-.223.15-.334.188zm1.964-.188c-.148.113-.26.263-.407.376.11-.037.26-.075.37-.15.112-.113.26-.226.371-.376a1.28 1.28 0 01-.334.15zm4.67-.112c-.11.112-.259.225-.407.338a.522.522 0 01.222-.075c.074-.113.149-.188.186-.264zm-1.482-.527c-.222.15-.445.376-.704.602h.037a6.96 6.96 0 01.89-.677.521.521 0 00-.223.075zm-1.89.15c-.112.113-.26.226-.371.377.111-.038.185-.076.297-.113.148-.113.259-.263.407-.376-.148.037-.26.075-.333.113zm-3.744.339s.037 0 0 0c.111 0 .185 0 .297-.038.074-.037.185-.113.296-.15a5.02 5.02 0 00.593-.451c-.519.225-.964.413-1.186.639zm2.224-.451c-.148.15-.297.3-.445.413.148-.075.297-.113.445-.188l.408-.413c-.149.075-.26.15-.408.188zm4.596-.15c-.111.15-.296.263-.482.413.186-.113.408-.15.556-.188.037-.038.037-.075.074-.113v-.037c-.037-.038-.074-.038-.11-.038 0-.038 0-.038-.038-.038zm-1.52-.414c-.185.15-.407.338-.63.526.297-.113.556-.225.779-.376.185-.15.407-.263.593-.375.148-.113.26-.226.296-.339a.593.593 0 00-.333.113c-.223.15-.445.3-.705.451zm-1.705.038c-.148.15-.296.263-.407.413l.333-.113c.149-.15.297-.3.445-.413a4.12 4.12 0 00-.37.113zm-2.854 0a4.182 4.182 0 00-.593.338c.149-.038.371-.188.593-.338zm5.486.112c-.074.038-.148.113-.222.15.222-.112.407-.225.593-.262v-.038c-.074.038-.223.075-.371.15zm-4.003-.188c-.111.076-.185.188-.297.264.038 0 .038 0 .075-.038.11-.075.185-.188.296-.263-.037.037-.074.037-.074.037zm3.744-.977c-.334.075-.853.414-1.372.902.185-.075.37-.15.52-.263.221-.188.444-.3.63-.413l.222-.226zm-2.78.64c-.074.074-.186.15-.26.262.148-.037.297-.112.408-.15.074-.075.185-.15.26-.263-.112.037-.26.075-.408.15zm-2.52-.151a3.644 3.644 0 00-.557.338c.149-.037.334-.15.556-.338zm1.26.037l-.223.226c.111-.038.185-.075.297-.113l.222-.225c-.111.037-.185.075-.297.112zm1.26-.488l-.26.263c.037 0 .037 0 .074-.038.074-.075.186-.15.26-.263-.037.038-.074.038-.074.038zm2.409-.527c-.297.076-.704.376-1.15.752.557-.263.965-.488 1.15-.751zm-3.78.527a.933.933 0 00-.223.188c.037 0 .074-.038.111-.038.074-.075.148-.113.185-.188 0 0-.037 0-.074.038zM.63 32.175c-.074.076-.148.15-.148.226v.037c.296-.263.778-.488 1.334-.714.148-.15.297-.263.408-.413-.223.113-.445.188-.667.3-.37.377-.667.564-.927.564zm4.596-.338c-.185.15-.408.3-.593.489.297-.113.556-.263.778-.376a.505.505 0 00.149-.113c.148-.113.26-.225.296-.338a1.641 1.641 0 00-.445.225.785.785 0 01-.185.113zm-3.225.263l-.222.226c.148-.075.297-.113.445-.188l.222-.226c-.148.076-.296.15-.445.188zm1.483 0l-.185.188c.111-.037.185-.075.296-.113.074-.075.149-.112.186-.187-.112.037-.186.075-.297.112zm-.037-.601l-.296.3c.037 0 .074-.037.11-.037.112-.113.223-.226.334-.3-.037 0-.074.037-.148.037zm-2.706-.075c-.11.075-.222.188-.222.263v.112c.222-.15.482-.3.815-.45.186-.15.371-.339.52-.49-.26.114-.52.226-.742.34-.111.074-.26.15-.37.225zm4.596-.15c-.148.075-.37.225-.556.375a.762.762 0 00.186-.113c.074-.075.185-.112.26-.188.036-.037.073-.037.11-.075zm-2.001-.414c-.185.15-.37.338-.52.489.15-.076.297-.113.446-.189.482-.488.963-.864 1.334-1.014l-.074-.076c-.037 0-.111 0-.222.038-.186.263-.52.526-.964.752zm1.63.037a2.983 2.983 0 00-.518.339c.222-.113.407-.226.519-.339zm-3.483-.563c-.445.225-.927.45-1.001.639v.075h.037c.111-.075.26-.15.37-.226.223-.15.408-.338.594-.488zm1.63-.15c-.222.187-.444.413-.667.6.223-.112.445-.187.63-.3.334-.3.593-.526.89-.677 0-.037 0-.075-.037-.075 0-.037 0-.037-.037-.037-.074 0-.223.075-.408.188-.074.112-.222.188-.37.3zm-1.89-.377c-.26.15-.704.414-.704.527.111.037.445-.264.704-.527zm2.002-.413c-.186 0-.742.526-1.075.864.26-.112.519-.263.741-.375.111-.113.222-.188.334-.301.037-.038.037-.038.037-.075v-.076c0-.037 0-.037-.037-.037zm-.52-.3c-.11 0-.444.3-.704.525.334-.15.668-.375.705-.526zm14.16.337h-.149a.653.653 0 01-.482-.338c-.074-.113-.074-.188-.11-.3a1.137 1.137 0 01-.297-.301c-.111-.226-.149-.451-.074-.677a.418.418 0 010-.3c-.075-.189-.112-.376-.037-.564a.637.637 0 01.037-.451.637.637 0 01.037-.451c0-.038.037-.038.037-.076-.074-.15-.074-.3-.074-.45-.075-.226-.112-.414 0-.64l.11-.225a.885.885 0 01-.036-.752v-.038a.945.945 0 010-.639c0-.037.037-.075.037-.112 0 0 0-.038-.037-.038-.149-.263-.186-.526-.074-.79.037-.074.037-.112.074-.187a.862.862 0 01-.037-.677.856.856 0 01.037-.526c0-.038.037-.075.037-.113a.861.861 0 01-.037-.676c0-.038 0-.038.037-.075-.148-.264-.148-.49-.074-.752 0-.038.037-.113.074-.15-.111-.226-.111-.452-.037-.715a.773.773 0 01-.037-.639.856.856 0 01.037-.526c.037-.075.037-.15.111-.188-.074-.188-.111-.338-.074-.526a1.262 1.262 0 010-.527c0-.037 0-.037.037-.075a.862.862 0 01-.037-.676c0-.038.037-.075.074-.15a.953.953 0 01-.111-.64 1.086 1.086 0 010-.488l.111-.226c-.111-.188-.148-.413-.074-.601-.074-.15-.074-.338-.037-.526a.65.65 0 010-.527c0-.037 0-.037.037-.075-.037-.113 0-.263.037-.376a.858.858 0 01-.037-.526c.037-.113.074-.188.148-.3-.037-.038-.037-.076-.074-.113-.111-.188-.111-.376-.074-.564-.074-.15-.074-.3 0-.489 0-.037.037-.113.074-.15 0 0-.037-.038-.037-.075a.61.61 0 01-.037-.564.643.643 0 01-.037-.526.649.649 0 010-.376c.037-.075.074-.15.111-.263-.037-.038-.074-.076-.074-.113-.074-.15-.111-.338-.037-.489 0 0 0-.037.037-.037a.53.53 0 010-.339c0-.037.037-.075.037-.112a.778.778 0 010-.414c0-.038.037-.075.037-.113 0-.037-.037-.037-.037-.075-.074-.15-.111-.3-.037-.451l.111-.225-.037-.038c-.074-.113-.074-.263-.037-.414.037-.15.148-.263.26-.413a.45.45 0 01-.186-.188c-.074-.113-.074-.225-.037-.376v-.037s-.037-.038-.037-.076a.37.37 0 01-.037-.338c0-.037.037-.075.037-.113-.074-.112-.074-.225-.037-.3.037-.076.037-.113.111-.188-.111-.188-.037-.376.148-.602-.074 0-.148-.075-.222-.15-.148-.263.074-.526.37-.865-.074.038-.148.038-.185.038-.074 0-.148-.075-.185-.113-.074-.15 0-.338.074-.564 0-.037 0-.037.037-.075-.037 0-.037-.037-.037-.075-.074-.113-.037-.225.074-.263h.037c-.037-.15.037-.188.111-.188.075 0 .112.038.149.113.074.113.037.263-.037.45.26-.262.444-.375.593-.337.074 0 .148.075.185.112.148.301-.148.602-.519 1.015-.111.113-.26.263-.334.376.186-.15.482-.376.705-.564.593-.526.926-.79 1.186-.752.111 0 .185.076.222.15.037.114.074.189.037.302.26-.188.445-.264.63-.226.111 0 .186.075.26.188 0 0 0 .038.037.038h.148c.111 0 .186.075.26.187h.148c.111.038.222.076.296.188h.186a.46.46 0 01.296.226.716.716 0 01.074.3c.186-.075.371-.112.52-.112a.54.54 0 01.333.225c0 .038.037.038.037.076h.185c.148.037.297.112.37.263.038.037.038.075.075.15h.037c.148.038.26.075.334.188h.11c.186.038.297.113.372.263v.038a.337.337 0 01.222.225c.037.075.074.113.074.188h.148c.148.038.297.113.37.226.186.037.297.15.409.3.037.076.074.113.074.188a.384.384 0 01.185.226c.037.075.074.113.074.188.186.037.334.15.445.338.111.075.222.15.297.3a.611.611 0 01.11.34.73.73 0 01.483.337c.037.038.037.076.037.113.11.075.185.15.26.263.036.075.073.113.073.188a.516.516 0 01.111.15.64.64 0 01.075.189c.037.037.074.112.11.15.038.113.075.188.112.3.037.038.074.113.111.15a.64.64 0 01.111.377c.111.075.223.15.26.3.037.038.037.113.074.15a.82.82 0 01.111.189c.074.15.148.338.111.488.074.076.149.15.186.226.074.15.11.3.11.413.038.038.075.113.112.15.111.151.148.34.111.527.037.15.074.263.074.414.037.037.074.112.111.15.038.075.075.188.112.263.037.037.037.075.074.113a.846.846 0 01.111.601l.037.038c.148.263.185.526.074.79v.037c.148.263.148.526.074.789v.038a.948.948 0 01.074.714c.112.188.149.376.112.564.074.225.11.45 0 .676-.037.075-.074.188-.149.263a.861.861 0 01.037.677 1.132 1.132 0 01-.148.3c.148.226.148.49.074.752 0 .038-.037.076-.074.15.074.189.037.377 0 .602-.037.15-.11.263-.222.414a.841.841 0 010 .601l-.111.226c0 .112 0 .225-.037.338-.037.15-.149.3-.26.413a.76.76 0 01-.037.414c-.037.075-.074.188-.148.263 0 .075-.037.188-.037.263a1.135 1.135 0 01-.148.3c0 .076-.038.151-.038.226-.074.188-.185.338-.333.526 0 .076-.037.113-.037.188-.074.188-.185.339-.37.527 0 .037 0 .075-.038.112-.111.339-.445.64-.89.978 0 .075 0 .15-.037.225-.185.602-1.26 1.165-2.557 1.804.037.038.111.076.148.15.037.114.037.226-.074.264-.111.037-.222.037-.26-.075-.222-.038-1.037.676-1.482 1.09-.89.79-1.445 1.278-1.853 1.203-.111-.038-.223-.076-.26-.188a.549.549 0 01-.074-.264c-1.112.828-2.001 1.466-2.631 1.466zm-.297-.6c0 .037 0 .037 0 0 .074.112.111.15.222.187.705.113 2.52-1.503 4.115-2.894l.11-.113c-.147.075-.296.113-.444.188-1.63 1.39-3.076 2.593-4.003 2.631zm.074-.414c-.037 0-.037 0 0 0 .074.037.223 0 .334-.076-.111.038-.223.038-.334.076zm-.333-.489c.037.037.074.037.148.075l.037-.038h-.111c-.037-.037-.074-.037-.074-.037zm5.633-1.541c-1 .488-1.927 1.015-2.038 1.39-.037.076 0 .113 0 .151.185.037 1.038-.677 1.52-1.128.185-.15.333-.3.518-.413zm-4.373 1.24c-.037 0-.037.038-.074.038.037 0 .074-.038.074-.038zm-.408-.639c-.037 0-.037.038-.074.038l.222-.113c-.037.038-.074.075-.148.075zm-.852-.376s0 .038 0 0c.11-.075.185-.112.296-.188h-.074a.986.986 0 01-.222.188zm1.668-.488c-.112.075-.26.113-.371.188.111-.038.185-.113.296-.15.037-.038.037-.038.075-.038zm4.188-.602c-.26.226-.482.414-.704.64.37-.189.815-.377 1.223-.602 1.075-.526 2.298-1.09 2.743-1.541-.89.488-2.039 1.015-3.262 1.503zm-5.745-.488a.888.888 0 00-.223.338c.112-.113.223-.226.371-.338h-.148s.037 0 0 0zm5.485-.038c-.148.113-.259.226-.407.338.148-.075.296-.112.444-.188.112-.112.26-.225.371-.338a1.36 1.36 0 01-.408.188zm-2.668-.94c-.89.376-1.668.79-2.224 1.166.556-.339 1.223-.64 2.001-.978.037-.037.111-.112.223-.188zm.148.902c-.111.076-.185.15-.297.226.112-.038.186-.075.297-.113a.665.665 0 01.26-.188c-.075 0-.149.038-.26.076zm4.151-.563c-.11.075-.222.15-.333.263.778-.338 1.52-.677 2.112-1.015-.556.225-1.149.489-1.779.752zm-5.263-.527a8.148 8.148 0 00-1.297.715c.37-.113.815-.376 1.297-.715zm-1.927.677c.074-.038.11-.113.185-.15h-.037c-.074.037-.111.112-.148.15zm6.56-.413l-.111.112.556-.225c.037-.038.111-.075.148-.113-.222.075-.407.15-.593.226zm-6.671-.339c.037.075.11.113.148.15.741-.6 1.964-1.202 3.373-1.804.333-.263.667-.526.963-.826-.37.15-.741.3-1.075.45-1.26 1.015-2.372 1.73-3.113 1.692a2.413 2.413 0 00-.296.338zm2.075-.526c-.445.226-.815.413-1.149.639.297-.113.704-.338 1.15-.639zm1.52-.075l-.445.338c.296-.113.593-.263.89-.376.11-.075.222-.188.333-.3-.26.15-.519.263-.778.338zm1.742-.075c-.111.075-.185.188-.297.263.074-.038.112-.038.186-.075.11-.076.185-.188.296-.264-.074 0-.111.038-.185.076zm2.483.075c-.037.037-.111.075-.148.113a22.674 22.674 0 001.853-.827c-.482.225-1.075.45-1.705.714zm1.409-.113s.037 0 0 0a.716.716 0 00.333-.188c-.11.075-.222.113-.333.188zm-9.118-.113c.037 0 .074.038.11.038.668-.526 1.743-1.09 3.04-1.616.297-.226.593-.489.927-.752-.408.188-.816.338-1.186.526-.927.677-1.705 1.165-2.298 1.316a1.66 1.66 0 00-.593.488zm3.632-.45c-.185.15-.37.3-.519.413.037-.038.111-.038.186-.075.148-.15.333-.264.481-.414-.074.038-.11.038-.148.075zm-3.892-.151a.42.42 0 000 .3c.037-.075.111-.112.186-.187-.075-.038-.112-.076-.186-.113zm5.19-.413c-.186.15-.334.3-.52.45.223-.075.482-.187.705-.263.185-.15.333-.3.482-.45l.037-.038a3.965 3.965 0 01-.705.3zm1.408.15l-.223.225c.075-.037.112-.037.186-.075l.222-.225c-.074.037-.111.075-.185.075zm-6.375-.113c.074.038.11.075.185.075h.222c.037-.037.111-.075.149-.113a.75.75 0 01-.408 0c-.037.038-.111.038-.148.038zm5.522-1.09c-.296.263-.593.526-.852.752.037 0 .074-.038.074-.038.296-.263.556-.488.852-.752l-.074.038zm4.114.564c-.11.037-.222.113-.333.15.148-.037.26-.075.334-.15zm-8.302-.489c-.37.188-.667.414-.927.602.556-.038 1.409-.602 2.372-1.354-.37.15-.704.339-1 .489a2.751 2.751 0 01-.445.263zm-1.446.376c.038.038.038.075.075.113a.67.67 0 01.259-.188.522.522 0 01-.222-.075c-.075.037-.112.075-.112.15zm8.044-.601a68.75 68.75 0 00-.705.601.514.514 0 01.223-.075c.26-.226.519-.451.778-.64-.074.038-.185.076-.296.114zm-1.26-.301c-.223.188-.408.376-.63.564-.075.037-.112.113-.186.15.222-.113.482-.188.704-.3.26-.226.556-.49.816-.715-.223.113-.445.188-.705.3zm3.632.526c.11 0 .148.038.222.038.148-.075.26-.15.37-.263-.036-.038-.073-.038-.11-.075-.186.112-.334.187-.482.3zm-5.041-.827c-.297.263-.593.489-.853.752.297-.113.63-.263.927-.376.185-.15.37-.338.556-.488.111-.076.185-.189.296-.264-.296.113-.63.264-.926.376zm-4.93.714c.223 0 .482-.075.779-.188.185-.112.37-.188.556-.3.37-.226.778-.527 1.223-.865-1.112.414-2.039.902-2.558 1.353zm10.786-.413s.037.037 0 0c.037.037.074 0 .074 0v-.038c-.037 0-.037.038-.074.038zm-5.93-1.24c-.37.338-.742.676-1.112.977.296-.15.63-.263.963-.414l.89-.789c.037-.038.111-.075.148-.15-.296.15-.593.263-.89.375zm2.112.075c-.296.263-.63.526-.926.827.037 0 .037 0 .074-.038.296-.263.63-.564.927-.827 0 .038-.037.038-.075.038zm1.335.376zm-8.636.263c.037.037.11.037.148.075.26-.226.593-.414 1-.64a4.23 4.23 0 01-.778.226.666.666 0 00-.37.339zm10.934-.339c-.223 0-.482.076-.816.264.26-.113.52-.15.705-.113.074-.038.148-.075.185-.113 0-.038-.037-.038-.074-.038zm.222-.864c-.482.037-1.186.45-1.964 1.09.741-.414 1.445-.752 1.964-1.09zm-2.483 0c-.37.3-.704.601-1.075.902.296-.113.556-.226.852-.338 1.298-1.053 2.41-1.73 3.114-1.617a5.3 5.3 0 00.445-.413c-.075-.075-.112-.15-.223-.188-.741.564-1.853 1.128-3.113 1.654zm-8.896.676v.15c.037-.037.074-.074.074-.112 0 0-.037-.038-.074-.038zm4.374-.45c-.223.187-.408.338-.63.526.148-.076.296-.113.445-.188.185-.15.37-.339.556-.489-.112.075-.26.113-.371.15zm3.04-.527l-1.002.902-.037.038c.297-.113.63-.263.964-.376.37-.338.741-.639 1.112-.94-.37.113-.704.263-1.038.376zm3.965.752a1.7 1.7 0 01.26.113c.11-.076.185-.188.26-.263 0-.038-.038-.076-.038-.113l-.037-.038a3.085 3.085 0 01-.445.3zm-11.156-.15c.074.075.148.075.222.112.185-.15.37-.263.593-.413-.26.075-.445.113-.667.113a.818.818 0 00-.148.188zm3.187-1.053c-.519.414-1 .752-1.445 1.015.407-.226.89-.413 1.371-.639.297-.226.593-.489.89-.752-.26.15-.556.263-.816.376zm.149.752c-.112.075-.223.15-.297.225.297-.112.593-.263.927-.375.11-.076.185-.15.296-.264-.334.188-.667.301-.927.414zm6.338-1.353c-.408.3-.89.676-1.335 1.09.037 0 .074-.038.111-.038.705-.564 1.335-1.052 1.89-1.353a9.338 9.338 0 00-.666.3zm-3.151.676c-.148.113-.26.226-.408.376.297-.113.593-.225.853-.338.148-.113.26-.226.407-.338-.296.112-.593.225-.852.3zm-6.598.263c.037.038.075.076.149.076l.074-.076h-.223s0-.037 0 0zm11.454 0c.074 0 .148.038.185.038l.111-.113c-.037-.037-.074-.075-.111-.075a.784.784 0 01-.185.15zm-6.042-.413c-.111.075-.222.188-.297.263.112-.038.26-.075.371-.15.111-.113.223-.188.334-.301a.994.994 0 01-.408.188zm-3.855.038c-.148.075-.296.15-.407.225.11-.038.259-.113.407-.226zm1.928-.903c-.482.376-.927.752-1.372 1.015.297-.15.593-.3.927-.413.333-.263.667-.526 1-.827l-.555.225zm-3.15.902c.259 0 .555-.075.926-.3.037-.038.074-.038.11-.075.483-.263 1.039-.677 1.632-1.128-1.15.526-2.15 1.015-2.669 1.504zm11.675-.037s.037.038 0 0c.037 0 .074-.038.074-.075-.037.037-.037.075-.075.075zm-6.746-.752c-.26.226-.52.489-.816.714.26-.112.52-.188.779-.3.26-.226.519-.451.74-.677-.221.075-.48.188-.703.263zm-5.338.526c0 .038 0 .038.037.038.112-.075.186-.188.334-.263h-.037c-.037 0-.074 0-.111-.038-.111.113-.186.188-.223.263zm8.674-.375c-.112.112-.26.188-.371.3a24.23 24.23 0 001.334-.564c.186-.15.37-.263.556-.376-.482.226-1 .414-1.52.64zm-.705-.376c-.148.112-.296.263-.445.376.297-.113.63-.226.927-.376l.556-.451c-.333.15-.667.3-1.038.45zm-.852-.489l-.779.677c.149-.038.26-.113.408-.15.26-.226.556-.49.816-.715-.149.075-.297.15-.445.188zm-1.816-.113c-.297.263-.593.527-.89.752.223-.075.445-.188.704-.263l.853-.752a4.894 4.894 0 01-.667.263zm-4.56.64c-.036.037-.073.037-.073.074.444-.075 1.037-.413 1.704-.902-.63.414-1.186.752-1.63.827zm10.898-.565c-.26.188-.556.339-.89.527.408-.188.779-.301 1.075-.264l.222-.225c-.037-.038-.074-.038-.148-.038h-.26zm.593.414l.037.038v-.076s0 .038-.037.038zm-9.637-1.39c-.853.413-1.594.789-2.076 1.164h.074a14.89 14.89 0 011.557-.827c.148-.075.297-.188.445-.338zm-2.558.976c.038.038.038.038.038.076.074-.076.148-.113.222-.188-.037 0-.111-.038-.148-.038-.075.038-.075.113-.112.15zm7.006-.751l-.779.676c-.037 0-.037.038-.074.038.223-.075.482-.188.704-.263.297-.263.594-.527.853-.752-.223.075-.445.188-.704.3zm4.633-.301c-.445.075-1.075.451-1.78.977.705-.3 1.335-.639 1.78-.977zm-6.338.15c-.26.226-.52.451-.742.677.149-.075.334-.113.482-.188.26-.226.482-.413.742-.64-.149.038-.334.114-.482.151zm6.82.564c.037.038.11.038.148.075.037-.037.037-.075.037-.113.037-.075.037-.112.037-.187l-.222.225zm0-.564a5.662 5.662 0 01-.853.564c.074-.038.148-.038.223-.075.222-.15.444-.3.63-.489zm-1.705-.488c-.445.263-.89.639-1.409 1.052 1.297-.564 2.41-1.128 2.928-1.691-.185 0-.444.075-.704.188-.26.15-.519.3-.815.45zm-7.821-.301c-.927.413-1.705.79-2.187 1.203.519-.038 1.297-.527 2.187-1.203zm1.149.827a3.934 3.934 0 00-.408.338l.779-.338c.11-.113.222-.188.333-.3-.222.112-.482.187-.704.3zm5.263-.714c-.333.263-.63.526-.963.827l.556-.226c.444-.376.89-.714 1.297-.977-.297.113-.593.225-.89.376zm-2.15.075c-.222.188-.444.413-.667.601l-.037.038c.223-.075.445-.188.667-.263.26-.226.482-.414.742-.64-.26.114-.482.189-.705.264zm-6.894.413c0 .038 0 0 0 0zm.186-.338c.037 0 .074.038.11.038h.075s.037 0 .037-.038h-.222c.037 0 .037 0 0 0zm11.712-.038h.148c.038 0 .075 0 .075.038.11-.113.222-.263.26-.376l-.038-.037a2.36 2.36 0 01-.445.375zm-3.113-.789l-.779.677a8.56 8.56 0 00.853-.376c.37-.3.741-.564 1.075-.827-.37.188-.742.376-1.15.526zm-3.67.226c-.148.112-.26.225-.407.376.222-.076.444-.15.667-.264.148-.112.296-.263.445-.376-.26.076-.482.188-.705.264zm1.372.112c-.074.076-.186.15-.26.226.148-.075.297-.113.445-.188.074-.075.185-.15.26-.226-.149.113-.297.15-.445.188zm-2.558-.3c-.185.188-.407.338-.593.488.149-.075.297-.112.445-.188.185-.15.334-.3.519-.45-.111.037-.26.112-.37.15zm-1.705-.526c-.593.3-1.149.6-1.556.864.407-.113.963-.414 1.556-.864zm-2.224.714c.037.075.075.112.111.112.186-.15.371-.338.63-.488-.185.037-.333.075-.481.037a2.075 2.075 0 00-.26.339zm11.12-.226l-.223.113c.038-.038.112-.038.149-.075 0 0 .037 0 .074-.038zm-8.266-.037c-.037.037-.11.075-.148.112.334-.15.667-.263 1.038-.413.074-.038.111-.113.185-.15-.407.15-.741.3-1.075.45zm5.19-.188c-.075.075-.149.15-.223.188l.778-.339a1.17 1.17 0 01.26-.188c-.297.113-.556.226-.816.339zm4.002.037h.112-.112s.038 0 0 0zm-4.077-.714c-.185.15-.407.338-.593.489.148-.075.297-.113.445-.188l.667-.564a3.365 3.365 0 01-.519.263zm3.93-.038c-.149.15-.334.264-.557.414a1.82 1.82 0 01.593-.113c.074-.075.149-.15.186-.225-.075-.038-.112-.038-.223-.076.037 0 .037 0 0 0zm-5.524.038c-.11.113-.259.226-.37.338.222-.075.445-.188.704-.263.111-.113.223-.188.334-.3l-.668.225zm-4.93 0l-.444.226.445-.226zm3.596-.038c-.074.076-.148.113-.222.188.111-.037.222-.075.37-.15.075-.075.149-.15.223-.188a2.52 2.52 0 01-.37.15zm-.37-.601c-.223.226-.482.413-.705.601.297-.112.556-.225.853-.338.222-.188.445-.413.667-.601-.26.113-.556.225-.816.338zm-1.446-.15c-.334.263-.667.526-.964.751.408-.188.816-.375 1.26-.563l.668-.564c-.334.112-.668.225-.964.376zm-3.15.526c.037.037.074.075.148.075l.074-.075h-.148c0 .037-.038.037-.075 0zm11.527-1.39c-.593.074-1.483.638-2.484 1.465 1.112-.526 2.039-1.015 2.484-1.466zm-.668 1.052zm1.001-.226c-.185.15-.407.338-.667.489.185-.075.37-.113.519-.113.111-.113.222-.226.297-.338-.075 0-.112-.038-.149-.038zm.297.489s.037 0 0 0c.037 0 .037 0 0 0 0 0 .037-.038 0 0zm-11.676-.376c-.037.037-.074.075-.11.075.221-.038.518-.188.852-.376-.26.15-.52.263-.742.3zm7.006-.338c-.112.112-.223.188-.334.3.26-.112.482-.188.741-.3.149-.113.297-.264.445-.376a8.31 8.31 0 01-.852.375zm-.964-.376c-.223.225-.482.413-.704.639.11-.038.26-.113.37-.15.26-.226.52-.452.742-.64-.112.038-.26.075-.408.15zm2.854.225c-.111.075-.185.15-.297.226.742-.339 1.372-.677 1.78-1.015-.371.263-.89.526-1.483.79zm-6.375-.075c-.074.038-.148.113-.186.15.038 0 .075-.037.149-.037.074-.038.148-.113.185-.15-.037 0-.111.037-.148.037zm-2.706.15h.037l.334-.225c-.037 0-.075.037-.112.037-.11.076-.185.15-.259.188zm11.379-.15c.037 0 .037 0 0 0zm-5.708-.601c-.148.15-.297.263-.445.413l-.037.038c.26-.113.556-.226.816-.339.148-.15.296-.263.444-.413-.222.075-.482.188-.778.3zm-2.483-.339c-.26.226-.52.414-.742.602.037 0 .037-.038.074-.038.223-.188.482-.376.705-.601l-.037.037zm.89.376c-.075.075-.186.15-.26.226.26-.113.556-.226.852-.301.111-.075.186-.188.297-.263l.037-.038c-.334.113-.63.226-.927.376zm-2.558-.601c-.445.225-.853.413-1.186.601.333-.188.704-.376 1.112-.564.037-.037.074-.037.074-.037zm.148.376c-.074.037-.148.112-.223.15.112-.038.223-.113.334-.15.037-.038.111-.075.148-.113-.074.037-.185.075-.26.113zm9.007-1.316c-.556.075-1.409.64-2.41 1.428 1.075-.488 1.965-.94 2.41-1.428zm.667 1.316h.148c0-.038.037-.075.037-.113-.037-.038-.074-.038-.074-.038-.037.075-.111.113-.148.188-.037-.037 0-.037.037-.037zm-7.005-.602c-.186.15-.371.338-.556.489.037 0 .074-.038.11-.038.186-.15.372-.338.557-.488-.074.037-.074.037-.111.037zm6.412.038c-.223.037-.482.188-.779.338a6.07 6.07 0 01.779-.338zm-3.114-.038a3.937 3.937 0 00-.444.376c.185-.075.37-.15.518-.225.149-.113.334-.263.482-.376-.148.075-.333.15-.556.225zm-4.818-.827c-.704.301-1.334.564-1.89.865a20.968 20.968 0 011.779-.79c.037 0 .074-.037.11-.075zm4.225.414c-.185.15-.333.3-.519.45l.89-.337c.26-.226.556-.452.815-.64-.37.15-.74.339-1.186.527zm-1.556-.038c-.149.15-.334.3-.482.451.296-.112.593-.225.89-.376.148-.15.296-.263.481-.413l-.89.338zm-5.19.3c-.037.039-.11.076-.148.114.111-.038.26-.075.37-.15.075-.038.186-.113.26-.151.26-.15.52-.338.816-.564-.482.338-.927.64-1.297.752zm3.892-.262c-.037.037-.074.037-.074.075h.037l.037-.075zm-1.26.037l-.037.038c.037 0 .074-.038.148-.038l.037-.037c-.074 0-.11.037-.148.037zm8.117-.037h.112c0-.038.037-.038.037-.075v-.038c-.037-.038-.037-.075-.075-.075-.037.075-.11.113-.148.188h.074zm-11.305-.15c.038.037.075.075.149.075h.26c.37-.264.815-.489 1.334-.752.333-.263.704-.526 1.037-.865-.296.113-.63.263-.89.376-.592.451-1.111.752-1.556.827a1.45 1.45 0 00-.334.338zm5.523-.264l-.074.075c.037 0 .074-.037.074-.075.037 0 .074 0 .111-.037-.037 0-.074.037-.11.037zm5.375-.263s.037 0 0 0c.037 0 0 0 0 0zm-.927-.376c-.185.075-.334.188-.519.301.186-.075.37-.188.519-.3zm-5.745.188a.513.513 0 01-.148.113c.037 0 .074-.038.11-.038.038-.037.075-.075.15-.112-.038 0-.075.037-.112.037zm-.852-.338c-.186.15-.371.3-.52.451.371-.15.742-.3 1.15-.451.185-.15.333-.3.519-.451l.074-.075c-.037.037-.074.037-.149.075-.37.15-.704.3-1.075.451zm1.964.413c-.037.038 0 .038 0 0zm1.408-.112l-.074.075c.334-.15.667-.263 1.001-.414.037-.037.074-.037.111-.075-.333.15-.667.3-1.038.414zm4.078-.301l-.149.15h.037c.037-.075.075-.112.111-.15zm-1.038-.601a8.46 8.46 0 00-1.038.639 5.488 5.488 0 001.038-.64zm-9.118.601s-.037 0-.037.038c0-.038.037-.038.037-.038zm5.782 0c.037 0 .074 0 .111-.038-.037 0-.074 0-.111.038zm-5.19-.338c-.073.037-.147.112-.222.15.186-.113.408-.188.63-.3a.652.652 0 00.186-.151c-.223.113-.408.188-.593.3zm-1.26.075s.038 0 0 0c.112.037.26 0 .445-.075a1.836 1.836 0 01-.445.075s.038 0 0 0zm10.527-.526c-.111.15-.26.3-.445.45.186-.074.37-.112.556-.15 0-.037.037-.037.037-.075a.288.288 0 00.037-.15c-.037-.038-.074-.038-.185-.075 0 0 .037 0 0 0zm-4.077.263c-.074.075-.148.113-.223.188.075-.075.149-.15.223-.188zm-.667-.526c-.223.187-.482.413-.705.6.038 0 .075-.037.112-.037.26-.225.482-.413.704-.639-.037.038-.074.038-.111.076zm2.112.45c.037 0 .075-.037.112-.037-.075 0-.112 0-.112.038zm-5.67-1.428c-1.075.451-1.965.865-2.299 1.278.445-.376 1.224-.752 2.113-1.127a.81.81 0 00.185-.15zm2.668.677c-.148.113-.26.225-.37.338-.038.038-.112.075-.149.15.408-.187.816-.338 1.223-.526.149-.15.297-.263.482-.413-.408.15-.778.3-1.186.45zm2.965.188c-.11.075-.26.188-.37.3.074-.037.11-.075.185-.075.148-.112.334-.263.482-.338-.111 0-.185.075-.297.113zm-4.67-.075a.984.984 0 01-.222.188c.222-.076.482-.188.704-.264.074-.075.185-.15.26-.225-.223.075-.482.188-.742.3zm.037-.677c-.185.15-.37.3-.519.451.111-.038.186-.075.297-.113.148-.15.333-.3.482-.45a1.794 1.794 0 00-.26.112zm5.93-.526c-.407.15-.926.488-1.52.94.557-.414 1.076-.752 1.52-.94-.036 0-.036 0 0 0zm.186.338c-.074.075-.148.113-.222.188.148-.075.259-.113.37-.15.037-.038.074-.076.074-.113a.521.521 0 01-.222.075zm-9.377.075s.037 0 .074.038c.333.037 1-.414 1.779-1.053-.779.602-1.335.978-1.742.94-.075.038-.075.075-.111.075zm4.596-.45c-.149.112-.297.262-.445.375.26-.113.482-.225.741-.3.148-.113.297-.264.408-.377a3.074 3.074 0 01-.704.301zm3.039-.038c-.186.112-.37.263-.556.413l.222-.113a10.85 10.85 0 011.186-.79l.112-.112-.223.113c-.185.15-.445.338-.741.489zm-1.186-.113c-.186.15-.37.338-.593.488a15.453 15.453 0 001.556-.714c.26-.188.52-.338.779-.488.185-.15.296-.301.37-.414 0-.037.038-.075.038-.113-.112 0-.223.038-.371.076-.37.375-1 .751-1.78 1.165zm-4.04.037c-.037.038-.111.076-.149.113.297-.113.593-.225.927-.376.074-.075.148-.15.26-.225 0 0-.037 0-.037.037l-1.001.451zm1.853-.225l-.111.113c.074-.038.185-.076.26-.113l.11-.113c-.11.038-.185.075-.259.113zm-4.262-.677a.286.286 0 00-.075.15v.076c.075-.075.186-.15.297-.226h-.223zm5.67.113c-.037.038-.074.038-.11.075.37-.15.703-.3 1-.45a.652.652 0 00.185-.151c-.296.188-.667.338-1.075.526zm-1.853-.451c-.111.113-.222.188-.333.3 0 0-.038 0-.038.038L20.683 5c.112-.076.186-.189.297-.264-.26.113-.593.226-.927.376zm2.261-.489c-.296.226-.593.451-.89.715.112-.038.186-.076.297-.113.779-.64 1.446-1.09 1.965-1.278v-.075c-.186.037-.445.15-.742.338-.185.113-.408.263-.63.413zm-4.003.301c-.074.075-.185.15-.26.226.186-.076.371-.15.594-.226.074-.075.185-.15.26-.225a1.624 1.624 0 00-.594.225zm.297-1.579c-.075.038-.186.076-.26.15-.926.452-2.038 1.053-2.15 1.391v.038c.371-.263.89-.564 1.631-.902l.779-.677zm-.556 1.053c-.186.15-.371.338-.556.45.185-.074.407-.187.593-.262.148-.15.296-.263.444-.414-.148.075-.333.15-.481.226zm5.893-.113c-.074.15-.222.263-.408.414.074-.038.111-.076.186-.113.11-.113.185-.188.26-.301h-.038zm-3.855-.15c-.111.112-.222.188-.333.3a2.38 2.38 0 01.333-.3zm-.296-.527c-.186.15-.334.301-.52.452.186-.076.409-.188.594-.264.222-.225.445-.413.667-.563l-.741.375zm-3.558.339c0 .037 0 .037 0 0 0 .037 0 .037.037.037.222.038.815-.413 1.37-.902-.036 0-.073.038-.073.038-.593.488-1.038.79-1.334.827zm6.412-.752c-.111.188-.297.376-.556.564.37-.188.593-.414.667-.602-.037.038-.074.038-.111.038zm-1.52-1.203c-.37 0-1.26.79-2.038 1.466.185-.075.333-.15.518-.225.668-.564 1.224-1.015 1.631-1.203-.037 0-.074 0-.11-.038zm-2.26.526c-.15.15-.335.301-.483.414-.037.037-.111.075-.148.113.89-.451 1.964-1.015 2.039-1.391v-.075h-.112c-.11.338-.556.601-1.297.94zm2.705-.188a.786.786 0 01-.148.226c.148-.075.259-.15.407-.188-.037-.038-.037-.075-.074-.075-.074.037-.111.037-.185.037zm-4.41-.45c-.26.15-.594.375-.78.526.112-.076.26-.15.408-.226.112-.075.26-.188.371-.3zm1.593-.79c-.148.113-.37.263-.556.451 0 0 .037 0 .037-.037.185-.188.37-.301.519-.414zm-.853-.225c-.074.075-.185.15-.296.225.111-.038.222-.15.296-.225zM.556 21.049H.482a.54.54 0 01-.334-.225.551.551 0 01-.037-.414.667.667 0 01.185-.3c-.037-.038-.074-.075-.11-.15a.54.54 0 01-.038-.414v-.038c-.074-.15-.111-.3-.037-.45l.111-.226-.074-.076c-.074-.15-.111-.3-.037-.45 0-.038.037-.076.074-.15 0-.038-.037-.038-.037-.076-.074-.15-.111-.3-.037-.451l.111-.226-.074-.075c-.074-.15-.111-.3-.037-.45a1.13 1.13 0 01.148-.302.551.551 0 01-.148-.564v-.037a.45.45 0 01-.037-.376c0-.037.037-.075.037-.113-.074-.113-.074-.263-.037-.413.037-.075.074-.188.148-.263l-.11-.113c-.075-.113-.075-.263-.038-.413 0-.038 0-.038.037-.076v-.037a.45.45 0 01-.037-.376c0-.038.037-.075.037-.113a.45.45 0 01-.037-.376c0-.037.037-.037.037-.075a.37.37 0 01-.037-.338.787.787 0 01.148-.226l-.074-.075a.37.37 0 01-.037-.338.77.77 0 01.26-.376.429.429 0 01-.26-.188.404.404 0 01-.037-.3.667.667 0 01.185-.302l-.11-.112C.11 10.9.073 10.788.11 10.713l.111-.226-.11-.113c-.112-.188-.038-.338.11-.488-.037-.038-.11-.076-.11-.113-.112-.188 0-.376.184-.564-.074 0-.11-.075-.148-.113-.074-.15-.037-.3.037-.488V8.57c-.037 0-.037-.037-.037-.075-.037-.113-.037-.226.074-.263H.26a.281.281 0 01.186-.075c.074 0 .111.037.148.112.074.113.037.226 0 .376l.037-.037c.26-.226.408-.339.556-.301.074 0 .148.038.185.113.075.113.037.188 0 .3.223-.188.408-.3.556-.263.074 0 .149.075.186.15.037.076.037.151.037.189.11-.038.185-.038.26-.038.11 0 .185.075.222.15.037.038.037.113.037.15.074-.037.148-.037.222-.037.111 0 .185.075.26.188.037.075.037.15.037.226.11-.038.185-.038.296-.038.111 0 .185.075.26.188a.37.37 0 01.037.338c0 .038 0 .038-.037.075.074 0 .148-.037.222 0 .111.038.222.076.296.188a.53.53 0 01.075.226h.074a.578.578 0 01.296.225c.037.038.037.076.037.15a.45.45 0 01.186.189c.037.075.074.112.074.188.074.037.111.112.148.188a.54.54 0 01.074.225c.037.038.111.075.111.15a.54.54 0 01.037.414c.112.037.186.113.26.226a.716.716 0 01.074.3c.037.038.074.075.074.113.074.113.074.263.037.413a.64.64 0 01.037.452c-.037.075-.037.112-.074.187.074.038.111.113.148.188.075.15.112.301.037.451 0 .038-.037.076-.037.113.037.038.075.075.112.15.074.15.11.301.037.452a.667.667 0 01-.186.3c.074.15.074.301.037.451a1.53 1.53 0 01-.185.339l.037.037c.074.15.074.3.037.451-.037.076-.074.15-.148.263a.528.528 0 010 .339c-.074.225-.297.45-.667.714l.037.038a.37.37 0 01.037.338c-.111.338-.556.639-1.297 1.015.037.037.037.037.037.075.037.113.037.225-.074.263-.075.037-.186.037-.223-.038-.148.075-.519.376-.741.602-.556.488-.853.752-1.112.714-.111 0-.185-.075-.222-.15.074-.226.037-.301.037-.339-.371.301-.668.451-.927.451zm.222-.902a.882.882 0 00-.296.376v.113c0 .038.037.038.037.038.333.037 1.297-.828 1.964-1.429l.037-.038c-.26.113-.519.264-.74.376-.372.264-.705.489-1.002.564zm1.631-.075c-.222.15-.408.263-.482.376.112-.075.297-.226.482-.376zm-1.89-.338l.037.037H.63c.037 0 .037-.037.074-.037H.52zm3.484-1.278c-.297.225-.593.488-.89.752.038-.038.075-.038.149-.076.63-.338 1.482-.751 1.556-1.015v-.037c0-.038-.037-.038-.037-.038-.26.15-.519.263-.778.414zm-3.41.526l-.037.038.037-.038zm-.074-.677c0 .038-.037.038-.037.076v.112c.074-.075.185-.15.296-.225-.074.037-.185.075-.26.037zm3.002-.263c-.185.15-.333.301-.482.451a6.87 6.87 0 00.742-.375c.333-.264.593-.414.815-.452.26-.15.445-.3.593-.413-.408.226-.964.489-1.668.79zm-1.223-.075c-.148.113-.297.263-.445.338.186-.075.334-.15.52-.225.147-.113.259-.226.37-.338-.111.075-.297.15-.445.225zm.185-.827c-.296.263-.556.489-.815.64.148-.076.26-.114.408-.189l.667-.564a1.794 1.794 0 00-.26.113zm-1.89.414c-.074.075-.111.112-.111.188v.075c.111-.113.296-.226.482-.338-.149.037-.26.075-.371.075zm1.668-1.015c-.334.263-.593.488-.853.676.26-.112.556-.263.853-.413.222-.188.408-.376.63-.526-.222.075-.408.188-.63.263zm-1.52.112c-.11.113-.222.226-.26.301v.113c.334-.263.853-.564 1.558-.902.296-.263.593-.526.89-.752-.297.15-.594.3-.89.414-.556.488-.964.789-1.298.826zm3.188-.15c-.185.188-.408.338-.593.526.148-.075.333-.15.482-.225.296-.263.593-.489.815-.64a6.336 6.336 0 01-.704.34zm1.445-.037c.037 0 .075.037.112.037 0-.037.037-.037.037-.075v-.075a.512.512 0 01-.149.113zm-1.186-.79c-.222.188-.444.414-.704.602.074-.038.148-.075.26-.113.333-.3.63-.526.89-.714l-.446.225zm-3.67.564h.075-.074zm5.153-.639a2.05 2.05 0 01-.482.3c.111-.037.222-.037.297-.037a.675.675 0 00.185-.263zm-4.522 0c-.111.075-.185.113-.297.188.112-.075.186-.15.297-.188zm3.188-.827c-.334.263-.668.564-1.001.827.222-.075.408-.188.63-.3.741-.602 1.26-.978 1.668-1.015.037-.038.037-.076.074-.113v-.113c-.037-.038-.037-.038-.074-.038H5.56c-.297.226-.704.451-1.223.752zm1.445-.037c-.111.112-.296.225-.519.375.148-.037.26-.075.37-.037h.038c.037-.075.074-.113.111-.188.037-.038.037-.075 0-.15zm-5.04.15c-.038.037-.112.075-.149.113a1.17 1.17 0 00.26-.188c0 .037-.075.075-.112.075zm2.89-.376c-.148.113-.26.226-.407.338l.89-.45c.147-.114.259-.226.37-.302-.223.15-.556.264-.853.414zm-1.816-.263c-.185.15-.37.263-.519.376.297-.15.593-.3.964-.451.148-.113.26-.226.408-.376-.297.188-.593.3-.853.45zm-1.334.188v.037c0 .038.037.038.037.038h.037a.66.66 0 00.185-.15c-.074.037-.148.075-.26.075zm1.705-1.053a9.01 9.01 0 01-.741.602c.037-.038.074-.038.11-.075l.668-.564s0 .037-.037.037zm1.26-.526c-.148.15-.296.263-.445.414.297-.15.556-.264.853-.414a6.75 6.75 0 01.704-.526c-.334.15-.704.3-1.112.526zm-.185-.413c-.037.037-.074.037-.074.075h.037c.037-.038.037-.075.037-.075.037 0 .037-.038 0 0zm1.927 0l-.037.037c.074-.037.111-.037.185-.037H5.3c-.037-.038-.074-.038-.11 0zm-3.818-.113l-.074.075c.149-.075.334-.15.52-.226.036-.075.073-.112.11-.15-.185.113-.37.188-.556.3zm.63-1.09c-.63.338-1.445.827-1.482 1.052v.038h.037c.148-.113.334-.226.593-.338.297-.226.63-.527.852-.752zm3.04.676c-.111.113-.223.188-.37.301a1.06 1.06 0 01.296-.15.287.287 0 00.074-.15zM1.483 10.75c-.408.226-.927.564-1.001.714.185-.037.63-.413 1-.714zm2.446-.45c-.223 0-.853.563-1.334.976.185-.112.407-.188.593-.3.296-.226.518-.414.74-.489.038-.037.038-.075.075-.113l-.074-.075s.037.038 0 0zm-.482-.565c-.222 0-.927.64-1.334 1.015.556-.338 1.26-.752 1.334-1.015zM.89 10.45c-.112.075-.223.15-.297.187.111-.037.185-.112.297-.188zm1.927-1.053c-.148.038-.445.3-.704.526.333-.188.63-.413.704-.526z" fill="#009FDF"/></g><defs><clipPath id="clip0_11_157"><path fill="#fff" d="M0 0h49v48H0z"/></clipPath></defs></svg>