<svg width="197" height="191" fill="none" xmlns="http://www.w3.org/2000/svg"><g clip-path="url(#clip0_11_16)" fill="#fff"><path d="M162.982 129.12h-.406c-.609-.101-1.117-.405-1.422-1.011-.304-.405-.304-.91-.304-1.416 0-.101-.102-.101-.102-.202-.406-.607-.406-1.315-.203-1.921 0-.101.102-.101.102-.203a2.213 2.213 0 010-1.617v-.101c-.204-.506-.204-1.113 0-1.719-.305-.607-.305-1.113-.102-1.719-.203-.506-.203-1.011 0-1.618 0-.101.102-.202.102-.303-.305-.607-.305-1.214-.102-1.719v-.101c-.203-.506-.203-1.113 0-1.719 0-.101.102-.202.102-.202-.305-.607-.407-1.315-.102-2.023-.102-.505-.102-1.011.102-1.516 0-.101 0-.101.101-.203-.305-.707-.406-1.314-.101-2.022 0-.101.101-.202.101-.303-.203-.506-.305-1.011-.101-1.618a2.215 2.215 0 010-1.618v-.101c-.204-.505-.102-1.011 0-1.517 0-.101 0-.101.101-.202-.305-.606-.305-1.213-.101-1.82 0-.101.101-.202.101-.303-.305-.607-.305-1.314-.101-1.921 0-.101.101-.202.101-.303-.305-.607-.305-1.214-.101-1.82-.204-.506-.204-1.113 0-1.72a1.956 1.956 0 010-1.516c0-.101.101-.303.203-.405-.305-.606-.305-1.213-.102-1.82 0-.1.102-.202.102-.303-.305-.607-.407-1.213-.203-1.82.101-.101.101-.303.203-.404-.305-.607-.407-1.214-.102-1.82 0-.101.102-.203.102-.304-.305-.606-.407-1.213-.203-1.82.101-.1.101-.303.203-.404-.305-.506-.305-1.112-.102-1.618 0-.101.102-.303.203-.404-.304-.506-.304-1.113-.203-1.618 0-.101 0-.101.102-.202-.305-.506-.305-1.011-.102-1.618 0-.101.102-.202.102-.304-.203-.505-.305-1.01-.102-1.516l.305-.607-.102-.101c-.304-.506-.304-1.011-.101-1.517v-.1c-.203-.405-.305-.91-.102-1.416.102-.203.203-.506.406-.708 0-.101-.101-.101-.101-.202-.203-.405-.305-.91-.102-1.416l.305-.607c-.102-.1-.102-.202-.203-.303-.203-.404-.305-.91-.102-1.314 0-.102.102-.304.203-.405-.203-.404-.304-.809-.101-1.314 0-.101.101-.203.101-.304 0 0 0-.1-.101-.1-.203-.405-.305-.81-.102-1.214l.305-.607c-.102-.1-.102-.1-.203-.202-.203-.303-.203-.708-.102-1.112.102-.202.203-.506.406-.708l-.304-.303c-.203-.304-.203-.708-.102-1.011l.305-.607-.305-.303c-.203-.304-.203-.607-.101-.91.101-.304.203-.506.507-.81a.793.793 0 01-.406-.404c-.101-.202-.203-.505-.101-.809a5.72 5.72 0 01.406-.707c-.102-.102-.203-.203-.203-.304-.305-.505-.102-.91.304-1.314l-.304-.304c-.305-.606 0-1.112.609-1.82h-.203c-.203 0-.406-.202-.508-.303-.203-.404 0-.91.203-1.415-.101 0-.101-.102-.203-.203-.203-.303-.101-.606.203-.708 0 0 .102 0 .102-.1.101-.102.304-.304.609-.304.203 0 .305.101.406.303.203.304.102.607 0 1.012.711-.607 1.117-1.012 1.625-.91.203 0 .406.202.508.303.406.708-.406 1.517-1.32 2.427l-.305.303c.305-.303.609-.506.914-.809 1.32-1.213 2.132-1.82 2.843-1.719.203 0 .406.202.61.405.101.1.101.303.101.404.508-.303.914-.404 1.32-.404.305 0 .508.202.711.505.102.101.102.202.102.303.406-.202.71-.202 1.015-.202.305 0 .609.202.711.506.101.202.101.303.203.505.406-.202.812-.303 1.117-.202.305.101.609.202.812.607.102.1.102.303.102.404.304-.1.609-.1.914-.1.406.1.711.302.914.606.101.1.101.303.203.404.406-.1.711-.202 1.015-.1.406.1.711.302.914.606.102.1.102.202.102.303h.507c.407.101.813.303 1.016.708 0 .101.101.202.101.202h.102c.406.101.812.303 1.015.708 0 0 0 .101.102.101h.203c.508.101.812.303 1.117.809.102.101.102.303.203.404h.406c.508.101.914.405 1.219.81.102.201.203.404.203.606.508.101.914.404 1.219.91.101.101.101.202.101.303.305.203.609.405.711.708.102.202.203.303.203.506.508.1 1.016.404 1.219.91.101.202.203.303.203.505.304.202.609.405.812.708.102.101.102.202.203.303.406.203.711.506 1.016.91.203.304.304.607.304.91.305.203.508.405.711.708.203.303.305.607.305.91.304.202.507.404.609.708.203.303.305.606.305.91.304.202.507.404.71.809.204.303.305.606.305 1.01.203.203.406.405.609.709.204.404.305.808.305 1.213.203.202.305.404.508.607.304.505.406 1.01.304 1.617.102.102.102.203.204.304.203.404.304.707.304 1.112 0 .101.102.101.102.202.203.405.304.81.304 1.214 0 .1.102.1.102.202.203.404.406.91.305 1.314.101.101.304.304.406.506.406.606.406 1.314.203 2.022v.101c.304.607.406 1.315.203 1.921a2.24 2.24 0 01.305 1.618c.203.506.304 1.011.203 1.517.304.606.304 1.213.101 1.82 0 .1 0 .1-.101.202.304.607.406 1.314.101 2.022-.101.202-.101.405-.304.506a2.502 2.502 0 010 1.719c0 .1 0 .1-.102.202a2.3 2.3 0 01-.102 1.415l-.304.607a2.796 2.796 0 010 1.82c-.102.202-.102.303-.203.506.101.505.101.91-.102 1.415-.101.405-.406.809-.711 1.214.102.404 0 .707-.101 1.112a3.053 3.053 0 01-.406.809c.101.404 0 .809-.102 1.112-.101.404-.406.809-.711 1.112.102.405 0 .708-.101 1.112-.203.506-.61 1.012-1.117 1.618 0 .202 0 .506-.102.708-.203.607-.711 1.213-1.523 1.82 0 .303 0 .607-.102.91-.203.708-.812 1.416-1.726 2.022 0 .101 0 .304-.101.405-.305 1.011-1.524 1.921-3.148 2.831v.202c-.407 1.112-2.438 2.123-5.687 3.64a3.03 3.03 0 00-.812.404l.203.203c.101.303.101.606-.203.707a.646.646 0 01-.61 0c-.304.203-1.117.809-1.624 1.315-1.219 1.112-1.93 1.618-2.539 1.517-.203 0-.406-.203-.508-.405 0-.101-.101-.202-.101-.303-3.148 2.629-5.179 4.145-6.601 3.842-.203 0-.304-.101-.406-.101-1.828 1.011-3.046 1.618-4.062 1.618zm-.812-1.618c.203.303.406.404.609.506.711.101 1.828-.304 3.148-1.214-.102-.101-.102-.202-.102-.404-1.421.809-2.64 1.314-3.655 1.112zm0-1.112c.101 0 .101.101.203.101.812.101 2.132-.506 3.757-1.517.102-.202.305-.404.508-.607-1.625 1.012-3.047 1.517-4.062 1.517-.102.101-.305.304-.406.506zm12.388-5.056c-2.132 1.921-4.265 3.64-6.092 5.056 1.726-.809 4.569-3.337 7.006-5.46-.304.101-.609.303-.914.404zm-7.616 4.348s0 .101-.101.101c0 .101-.102.202 0 .303 1.32-.91 2.742-2.123 4.265-3.336-.305.101-.609.303-.813.404-1.218 1.011-2.234 1.82-3.351 2.528zm-4.975-1.315c.101.102.203.203.304.203.203-.203.406-.405.711-.506h-.711c-.101 0-.203.202-.304.303zm13.912-1.921c-.407.304-.711.506-.914.708.304-.101.609-.404.914-.708zm-8.429-1.617c-1.421.707-2.742 1.415-3.757 2.022 1.015-.304 2.234-1.011 3.757-2.022zm-5.483 1.718l.101.102c.203-.203.406-.304.609-.506h-.406c-.101.202-.203.303-.304.404zm8.936-1.213c-.508.405-1.117.809-1.625 1.213.102-.101.305-.101.406-.202a12.86 12.86 0 001.32-1.112c-.101 0-.101.101-.101.101zm-6.195-.91l-.914.607c1.016-.304 2.133-1.011 3.555-1.921-1.016.505-1.828 1.011-2.641 1.314zm-2.741.405l.101.101.203-.203c-.101 0-.101 0-.203-.101-.101.101-.101.101-.101.203zm9.647-1.82c-.813.606-1.524 1.213-2.234 1.82.304-.102.71-.304 1.015-.405.711-.505 1.32-1.112 2.031-1.719-.305.101-.609.202-.812.304zm2.538 1.011a4.392 4.392 0 01-.711.606c.203-.101.305-.101.508-.202.203-.202.406-.404.609-.505-.101 0-.304 0-.406.101zm4.468-.304c-.101.101-.304.203-.406.304.406-.203.914-.405 1.32-.607l1.828-.91c-.812.404-1.828.809-2.742 1.213zm-9.24-3.437c-2.641 1.112-4.976 2.325-6.296 3.437.304 0 .71-.101 1.117-.202.812-.505 1.624-.91 2.64-1.415.711-.506 1.625-1.113 2.539-1.82zm-7.616 2.831l.101.101c.203-.202.406-.405.609-.506-.101 0-.304-.101-.406-.101-.101.202-.203.405-.304.506zm15.841-.405c-.203.101-.305.304-.508.405.102 0 .203-.101.203-.101.203-.102.508-.203.711-.304.203-.101.305-.303.508-.404-.305.101-.61.303-.914.404zm-6.093-1.516l-1.523 1.213c.304-.101.711-.303 1.015-.405.406-.404.914-.707 1.32-1.112-.203.101-.507.202-.812.304zm6.905-.91c-.609.505-1.218 1.011-1.828 1.617.102-.101.305-.101.407-.202.609-.505 1.218-1.112 1.929-1.618-.203.101-.406.203-.508.203zm-13.912.505c-.507.303-1.015.607-1.32.91 1.422-.101 3.554-1.415 5.991-3.134-.406.202-.812.404-1.218.505-1.32.809-2.437 1.416-3.453 1.719zm-2.234.202c-.101.101-.101.203-.203.203l.203-.203zm20.31-.303c-.204.101-.508.303-.813.506.813-.405 1.726-.708 2.437-1.113h-.304c-.406.203-.813.405-1.32.607zm-7.109-1.011c-.406.404-.812.708-1.218 1.011.203-.101.406-.202.609-.202.406-.304.812-.708 1.219-1.011-.203.101-.407.101-.61.202zm6.905-.91c-.71.505-1.421 1.112-2.234 1.719.711-.304 1.321-.506 2.031-.809a5.457 5.457 0 011.422-.607c1.726-.809 3.25-1.516 4.367-2.325-.102-.203-.204-.304-.305-.304-1.625.708-3.351 1.517-5.281 2.326zm-13.404-1.82c-2.234 1.011-4.163 2.022-5.483 2.932.203 0 .406-.101.609-.101 1.016-.607 2.133-1.112 3.351-1.719.508-.303 1.016-.708 1.523-1.112zm-7.108 2.528l.203.202c.305-.303.711-.506 1.016-.809h-.711a3.791 3.791 0 00-.508.607zm23.457-.101c.102.101.102.101 0 0l.61-.304-.61.304zm-9.647-1.618c-.507.404-1.015.809-1.421 1.213.203-.101.508-.202.711-.303.507-.405.914-.809 1.421-1.214-.304.102-.507.203-.711.304zm3.351.606c-.203.102-.304.304-.507.405.101-.101.304-.303.507-.405zm-6.194-1.415c-.609.505-1.117.91-1.726 1.314.406-.202.812-.303 1.218-.505.508-.405 1.016-.809 1.524-1.315-.305.203-.61.405-1.016.506zm9.444.101c-.406.303-.812.708-1.32 1.011.304-.101.609-.202.812-.303.609-.506 1.32-.91 1.93-1.315-.407.203-.914.405-1.422.607zm-3.046-.708c-.508.405-.914.809-1.422 1.214.203-.102.406-.102.609-.203.508-.404 1.016-.809 1.422-1.213-.203.101-.406.202-.609.202zm-17.162 1.112l.102.102.304-.304c-.101 0-.203 0-.304-.101 0 .101-.102.202-.102.303zm5.484-1.82c-1.32.607-2.539 1.214-3.453 1.82 1.016-.303 2.133-.91 3.453-1.82zm5.28-.303c-.406.303-.711.607-1.117.91.203-.101.305-.101.508-.202a7.116 7.116 0 011.015-.809c-.101 0-.304.101-.406.101zm10.256-.404c-.507.404-1.015.91-1.624 1.314.101 0 .203-.101.203-.101.71-.506 1.32-1.011 1.929-1.416-.101 0-.305.102-.508.203zm-13.607-2.124c-2.539 1.113-4.671 2.225-6.194 3.337.609-.101 1.218-.303 2.031-.708.101-.101.304-.101.406-.202 1.218-.506 2.437-1.416 3.757-2.427zm19.091 3.034c.101.101.101.202.203.202.305-.303.508-.506.711-.809-.305.303-.61.506-.914.607zm-26.808-.304c.101.101.203.304.304.304.305-.304.609-.506.914-.809h-.609c-.102 0-.203 0-.203-.101-.203.303-.305.404-.406.606zm17.669-1.011c-.508.405-.914.809-1.422 1.214.203-.102.406-.203.711-.203.508-.404.914-.809 1.421-1.213-.304 0-.507.101-.71.202zm-7.515-.708c-.711.607-1.421 1.113-2.132 1.618.812-.303 1.624-.708 2.437-1.011.508-.505 1.117-.91 1.726-1.415-.711.202-1.32.505-2.031.808zm17.669 0a76.832 76.832 0 01-2.945 1.517c.305 0 .61-.101.813 0a21.72 21.72 0 002.234-1.314c-.102-.101-.102-.203-.102-.203zm-13.201.203a7.187 7.187 0 01-1.015.809c.304-.102.609-.203 1.015-.405.305-.303.711-.607 1.016-.91-.406.202-.711.303-1.016.506zm6.804-1.011l-1.523 1.213c.304-.101.507-.202.812-.303.609-.506 1.117-.91 1.726-1.315-.304.202-.609.303-1.015.405zm-14.521-1.922c-2.234 1.012-4.062 1.922-5.382 2.933 1.32-.203 3.249-1.315 5.382-2.933zm-5.992 1.922l-.304.303c.101-.101.304-.202.304-.303.102 0 .102 0 0 0zm14.319-1.214c-.508.405-1.016.91-1.524 1.315.102 0 .203-.101.305-.101.508-.405 1.015-.91 1.523-1.315-.101.101-.203.101-.304.101zm-5.078.506c-.203.202-.406.303-.609.505.305-.101.508-.303.609-.505zm-10.358.303v.101-.101zm27.418-.202h.203c.203 0 .305.101.508.101.711-.404 1.218-.809 1.726-1.112 0-.101 0-.101-.101-.202v-.102c-.813.405-1.524.809-2.336 1.315zm-5.991-1.011c-.406.303-.813.606-1.219 1.011.305-.101.609-.202.813-.303.406-.405.914-.708 1.32-1.012-.203.102-.61.203-.914.304zm6.6-.607c-.812.202-1.726.708-2.741 1.416 1.015-.506 1.929-1.011 2.741-1.416zm-9.444-.202c-.507.404-1.015.809-1.421 1.314.304-.101.711-.303 1.015-.404.508-.405 1.016-.91 1.523-1.315-.406.203-.71.304-1.117.405zm-18.176.91c.101.101.304.303.406.303.101-.101.304-.202.508-.404h-.508c-.102 0-.203 0-.305-.101 0 .101-.101.202-.101.202zm5.585-1.416a20.224 20.224 0 00-2.945 1.618c.914-.404 1.828-.91 2.945-1.618zm9.037-.101c-.609.506-1.218 1.112-1.827 1.618.609-.202 1.117-.404 1.726-.607.609-.505 1.218-1.112 1.828-1.618a4.384 4.384 0 00-1.727.607zm-4.062-.505c-.812.606-1.624 1.314-2.335 1.82.812-.405 1.726-.708 2.64-1.113.609-.505 1.219-1.011 1.93-1.617-.813.404-1.524.707-2.235.91zm19.599 1.011s0 .101 0 0c.101 0 .101-.101.203-.101-.102 0-.102.101-.203.101zm-.914-2.326c-1.117.101-2.742 1.011-4.671 2.326 1.828-.809 3.351-1.517 4.671-2.326zm-27.214 1.618l-.914.607c1.523-.102 3.858-1.618 6.6-3.64-.203.101-.508.202-.711.303-1.929 1.415-3.655 2.325-4.975 2.73zm-2.234.101l.101.101c.102-.101.203-.101.203-.202-.101 0-.203-.101-.203-.101 0 .101 0 .101-.101.202zm19.496-1.82c-.609.607-1.32 1.112-1.929 1.719.102 0 .203-.101.305-.101.711-.607 1.32-1.112 1.929-1.719-.101.101-.203.101-.305.101zm9.546 1.618c.101 0 .304.101.406.101.508-.303.914-.607 1.219-1.011 0 0 0-.101-.102-.101-.406.303-.914.707-1.523 1.011zm-2.234-2.427c-.813.506-1.625 1.112-2.539 1.719 2.437-1.011 4.671-2.123 6.296-3.134-.305 0-.711 0-1.117.101l-2.64 1.314zm-16.349.708c-.406.303-.813.607-1.219 1.011.305-.101.61-.303 1.016-.404.406-.304.711-.607 1.117-.91-.406.101-.711.202-.914.303zm-9.546.809h.813c1.32-.91 2.945-1.719 4.874-2.629.711-.506 1.32-1.011 2.031-1.517-.812.304-1.625.708-2.336 1.011-1.421 1.011-2.741 1.719-3.858 2.023-.61.404-1.117.707-1.524 1.112zm22.138-2.124c-.711.607-1.524 1.214-2.234 1.922.406-.203.812-.304 1.218-.506a24.986 24.986 0 012.742-2.123c-.508.202-1.117.505-1.726.707zm-4.367-.101c-.508.405-1.015.809-1.422 1.315.508-.202 1.117-.405 1.625-.607.508-.404.914-.809 1.422-1.213-.508.101-1.117.303-1.625.505zm-7.108-1.314c-1.016.809-1.93 1.618-2.843 2.325.406-.202.71-.303 1.117-.505.913-.708 1.726-1.416 2.64-2.225-.305.102-.61.203-.914.405zm2.843 1.112c-.406.303-.812.708-1.117 1.011.711-.202 1.32-.505 2.031-.708.406-.303.812-.707 1.219-1.011-.711.203-1.422.506-2.133.708zm15.943.809c.101 0 .203.101.305.101.304-.303.609-.505.913-.809v-.101c-.406.405-.71.607-1.218.809zm-23.66-3.236c-2.133.91-3.961 1.82-5.179 2.73.101 0 .203 0 .406-.101 1.117-.707 2.336-1.314 3.859-2.022.304-.101.609-.303.914-.606zm23.965.102c-1.117.202-2.742 1.011-4.57 2.325.102-.101.203-.101.406-.202.914-.506 1.726-1.011 2.539-1.213.508-.304 1.117-.607 1.625-.91zm-29.754 1.718l-.609.607c.305-.202.508-.404.813-.607h-.204zm22.442-1.011c-.406.405-.914.708-1.32 1.113.102-.102.305-.102.406-.203.508-.404 1.016-.809 1.422-1.112a.78.78 0 01-.508.202zm-7.717-1.112c-.813.708-1.625 1.416-2.437 2.022.203-.101.406-.202.71-.303.813-.708 1.524-1.314 2.336-2.022-.203.202-.406.202-.609.303zm15.739 1.213c.102 0 .204.102.305.203.203-.101.305-.304.406-.405 0-.101-.101-.101-.101-.202-.203.202-.406.303-.61.404zm-31.073-.505c.102.101.203.202.406.202.61-.505 1.32-1.011 2.234-1.516-.609.202-1.218.404-1.726.404-.406.303-.711.607-.914.91zm22.442-1.213c-.508.404-1.015.91-1.625 1.314.61-.202 1.117-.404 1.727-.607l1.827-1.516a15.83 15.83 0 01-1.929.809zm-10.662.1c-.508.405-.914.81-1.422 1.214.101 0 .203-.101.406-.101a7.647 7.647 0 011.422-1.112c-.203-.101-.305 0-.406 0zm7.108-1.01c-.711.606-1.523 1.314-2.234 1.921 0 0-.102 0-.102.101.711-.303 1.422-.506 2.031-.81.813-.707 1.625-1.415 2.437-2.021-.711.303-1.421.606-2.132.809zm11.881-.708c-1.117.303-2.64 1.112-4.468 2.325 1.726-.707 3.249-1.516 4.468-2.325zm-31.277 1.517v.202s.102-.101 0-.203c0 .102.102.102 0 0zm31.175-.102h.406c.204 0 .305.102.508.102.406-.304.711-.607 1.016-.91-.102-.102-.203-.304-.305-.405-.508.404-1.117.809-1.726 1.213h.101zm-15.638-.91c-.406.304-.812.708-1.218 1.011.304-.1.609-.202.812-.303.406-.303.812-.708 1.117-1.011-.102.101-.406.202-.711.303zm-4.773.405c-.203.202-.406.303-.609.505l1.523-.606c.203-.203.406-.304.61-.506l-1.524.607zm-10.256-.303a.78.78 0 00.508.202c.305-.203.609-.506.914-.708-.406.101-.813.101-1.117 0-.102.202-.203.303-.305.506zm31.48-2.528c-1.219.202-3.047 1.213-5.078 2.629 2.031-.91 3.758-1.72 5.078-2.63zm-7.007.404c-.914.708-1.828 1.416-2.742 2.225h.102c1.015-.81 1.929-1.618 2.843-2.326 0 .101-.102.101-.203.101zm-15.334 1.112c-.507.405-.914.708-1.421 1.113.609-.304 1.32-.506 1.929-.81.406-.303.812-.707 1.219-1.01-.508.202-1.117.505-1.727.707zm-.406-1.92c-1.218.91-2.335 1.82-3.452 2.426a53.552 53.552 0 013.351-1.517c.71-.606 1.523-1.213 2.335-1.92-.812.404-1.523.707-2.234 1.01zm10.053 1.415c-.406.303-.711.606-1.117.91.203-.101.406-.202.61-.202.406-.304.71-.607 1.117-.91-.204 0-.407.1-.61.202zm-3.96 0c-.203.202-.406.303-.508.505.102 0 .203-.1.203-.1.203-.203.407-.304.508-.506-.101.1-.203.1-.203.1zm17.06-3.337c-1.422.101-3.656 1.416-6.296 3.337 2.64-1.112 4.874-2.326 6.296-3.337zm.203 3.236h.101c.204-.101.305-.304.508-.405-.203.101-.406.202-.609.405zm-32.292-.304c.102.101.203.203.305.203.101-.102.203-.203.406-.304h-.102c-.203 0-.304-.1-.406-.1-.101.1-.203.1-.203.201zm5.585-1.719a26.267 26.267 0 00-3.452 1.922c1.015-.304 2.132-1.012 3.452-1.922zm8.632.708c-.407.303-.813.708-1.219 1.011.406-.202.914-.303 1.32-.505.406-.405.813-.708 1.219-1.011-.406.1-.813.303-1.32.505zm8.53 0c-.407.303-.711.607-1.118.91.813-.303 1.727-.708 2.539-1.01.406-.304.813-.709 1.219-1.012-.914.404-1.727.708-2.64 1.112zm-4.57.303c-.203.203-.406.304-.508.506.305-.101.508-.202.813-.303.203-.203.406-.304.507-.506-.304.101-.609.202-.812.303zm-10.662-3.943c-2.742 1.213-5.078 2.326-6.398 3.54 1.32 0 3.656-1.417 6.398-3.54zm2.437 1.011c-1.016.81-2.031 1.618-3.047 2.326.406-.202.914-.405 1.32-.607.813-.708 1.727-1.415 2.539-2.123-.203.101-.508.303-.812.404zm4.366.405l-2.132 1.82 1.523-.607c.711-.607 1.422-1.213 2.031-1.82-.508.303-1.016.404-1.422.607zm4.265.505c-.406.405-.914.708-1.32 1.112.102 0 .203-.1.203-.1a12.85 12.85 0 011.32-1.113s-.101.101-.203.101zm13.607 1.011h.203c.102 0 .305.102.407.102.203-.203.406-.506.609-.708v-.101c0-.102-.102-.102-.102-.203-.304.304-.71.607-1.117.91zm-32.19.102c.203-.203.508-.405.812-.708h-.203a1.906 1.906 0 00-.609.708zm21.934-.506c-.203.202-.406.303-.609.505.304-.1.508-.202.711-.303.203-.202.406-.303.609-.505-.102 0-.406.1-.711.303zm.102-1.921l-1.524 1.213c.305-.1.61-.202.813-.303.508-.405 1.015-.91 1.523-1.315-.203.102-.508.304-.812.405zm-3.25-.91c-.711.606-1.421 1.213-2.031 1.82a5.88 5.88 0 011.422-.506l2.132-1.82a5.365 5.365 0 00-1.523.506zm-4.671-.303c-.711.606-1.523 1.314-2.234 1.92.609-.202 1.219-.505 1.828-.707l2.132-1.82c-.609.101-1.218.303-1.726.606zm12.49 1.112c-.304.202-.609.404-.812.606 2.742-1.213 5.077-2.426 6.499-3.538h-.305c-1.32 1.112-3.148 2.022-5.382 2.932zm-26.3.606c.406-.404.914-.707 1.523-1.112-.102 0-.305.101-.406.101a3.605 3.605 0 00-1.117 1.011zm4.569-1.516a54.58 54.58 0 00-2.64 1.415c.813-.303 1.726-.809 2.64-1.415zm27.519 1.01h.407c.101 0 .304.102.406.102.101-.101.203-.202.203-.303-.102-.102-.305-.304-.508-.304-.101.203-.304.304-.508.506zm-21.426-2.021c-.711.606-1.32 1.112-1.929 1.617.101-.1.203-.1.406-.202.609-.505 1.218-1.01 1.929-1.618-.203.102-.304.102-.406.203zm16.044-.101c-.71.505-1.421 1.112-2.234 1.718.508-.202.914-.404 1.321-.606 2.132-1.517 3.96-2.528 5.483-2.933.508-.303.914-.707 1.219-1.01-.305 0-.61 0-.914.1-1.219.91-2.945 1.82-4.875 2.73zm-27.214 1.415v.202l.102-.1c0-.102-.102-.102-.102-.102zm23.762-2.123c-.812.606-1.625 1.314-2.437 2.022.101 0 .203-.101.304-.101.914-.708 1.727-1.416 2.539-2.124-.101.102-.203.102-.406.203zM195.68 90.9l.102.1c0-.1 0-.202.101-.303l-.203.203zm-15.029-1.922c-.711.607-1.421 1.214-2.031 1.82.508-.202.914-.404 1.422-.606l2.132-1.82a4.787 4.787 0 01-1.523.606zm-18.481 1.416c.101.101.203.101.406.101h.305c1.421-1.011 3.452-2.022 5.788-3.134.914-.708 1.828-1.416 2.843-2.225-.812.303-1.625.708-2.437 1.011-2.234 1.72-4.265 2.932-5.788 3.135-.508.404-.813.809-1.117 1.112zm32.19.101h.203c.406-.303.711-.607.914-.91-.406.303-.812.607-1.117.91 0 0-.102 0 0 0zm-18.177-1.719c-.508.506-1.117.91-1.625 1.416.305-.101.508-.202.813-.304.508-.505 1.117-.91 1.625-1.415-.305.101-.508.202-.813.303zm-4.976.405a7.13 7.13 0 01-1.015.809c.711-.304 1.422-.607 2.132-.81.305-.202.61-.505.914-.707-.711.202-1.421.404-2.031.708zm22.848-3.54c-1.624.102-4.163 1.72-7.108 3.944.508-.202.914-.404 1.32-.607 1.93-1.415 3.656-2.426 4.976-2.73.305-.202.609-.404.812-.606zm-24.879 2.73c-.507.405-.913.709-1.421 1.012.914-.405 1.828-.81 2.843-1.213.305-.304.711-.607 1.117-.91-.914.404-1.726.808-2.539 1.112zm-7.514.709v.303l.203-.202c-.101 0-.203-.102-.203-.102zm23.863-2.023c-.812.607-1.523 1.315-2.335 1.921.609-.202 1.117-.505 1.726-.707 1.016-.81 2.031-1.618 2.945-2.225-.812.303-1.523.708-2.336 1.011zm-5.686.405c-.508.404-1.016.91-1.523 1.314a12.416 12.416 0 001.726-.708c.508-.404 1.015-.91 1.523-1.314-.508.202-1.117.404-1.726.708zm-17.568.707c.102 0 .203.102.305.102h.305c1.421-1.011 3.351-2.023 5.585-3.034.71-.606 1.523-1.213 2.335-1.82-1.015.405-2.031.81-2.945 1.315-1.624 1.112-3.046 2.022-4.265 2.325-.507.304-1.015.708-1.32 1.112zm32.901 0c.102 0 .102 0 0 0 .102 0 0 0 0 0zm-18.989-.91c-.304.203-.508.506-.812.708.101 0 .203-.1.304-.1.305-.203.508-.506.813-.709-.102 0-.203 0-.305.102zm-14.521-.303v.303c.102-.1.203-.1.203-.202 0-.1-.101-.1-.203-.1zm13.201-.91c-.406.303-.711.607-1.117.91.609-.202 1.117-.404 1.726-.606.407-.304.711-.607 1.117-.91a7.103 7.103 0 00-1.726.606zm9.952-.505c-.508.404-1.016.91-1.625 1.314.609-.202 1.218-.505 1.726-.708a23.263 23.263 0 011.93-1.415c-.711.202-1.321.505-2.031.809zm-5.484.505c-.305.202-.508.506-.812.708.203-.101.507-.202.711-.303.304-.203.507-.506.812-.708a4.953 4.953 0 01-.711.303zm15.74.101c.101 0 .203 0 .203.101 0-.1-.102-.1-.102-.1 0-.102 0-.102-.101 0zm-2.742-1.516c-.812.303-1.726.91-2.742 1.516a33.105 33.105 0 002.742-1.516zm-30.058 1.314c.102 0 .203.101.203.101h.711a30.924 30.924 0 014.164-2.224c1.015-.708 2.132-1.618 3.249-2.528a66.04 66.04 0 00-2.64 1.213c-1.625 1.214-3.148 2.022-4.367 2.427a3.306 3.306 0 00-1.32 1.011zm12.389-2.022c-.812.708-1.625 1.314-2.336 2.022.61-.303 1.32-.505 2.031-.809.711-.606 1.524-1.314 2.234-1.921-.71.202-1.32.404-1.929.708zm8.53.606c-.305.203-.609.506-.914.708.609-.202 1.218-.505 1.929-.707.305-.304.61-.506 1.016-.81-.711.304-1.32.607-2.031.81zm-3.554-.404c-.406.303-.813.708-1.219 1.011.102 0 .203-.101.305-.101.406-.404.812-.708 1.218-1.112 0 .1-.101.202-.304.202zm-17.974.506c0 .1-.102.303 0 .404l.305-.303c-.203 0-.203-.101-.305-.101zm32.698-.102h.609s0-.1.102-.1c-.102-.102-.203-.203-.406-.203-.102.202-.203.202-.305.303zm-11.069-1.82l-1.523 1.214c.305-.101.508-.202.813-.303.507-.506 1.117-.91 1.624-1.315-.203.101-.609.202-.914.404zm-3.757-.707c-.711.606-1.421 1.213-2.031 1.82l-.101.1a12.404 12.404 0 001.726-.707c.812-.708 1.523-1.314 2.234-1.921-.609.202-1.219.404-1.828.708zm-17.263 1.719c.102 0 .203.1.203.1h.711c1.117-.808 2.64-1.516 4.265-2.325a25.076 25.076 0 002.742-2.123c-.914.404-1.726.708-2.539 1.112-1.523 1.112-2.945 1.921-4.062 2.225-.507.303-1.015.606-1.32 1.01zm11.881-1.618c-.609.505-1.32 1.112-1.929 1.618.609-.203 1.218-.506 1.828-.708.609-.506 1.218-1.011 1.828-1.618a12.32 12.32 0 00-1.727.708zm20.005.202c-.406.303-.812.708-1.219 1.011.508-.101 1.016-.202 1.422-.202.203-.202.305-.404.508-.607-.305-.1-.508-.202-.711-.202zm-1.93-1.82c-1.117.404-2.437 1.213-3.858 2.225 1.624-.708 2.945-1.416 3.858-2.225zm-30.463 2.022v.203l.203-.203h-.203zm30.87-4.044c-1.524.202-3.859 1.719-6.398 3.64 2.844-1.213 5.179-2.427 6.398-3.64zm-18.786 1.415c-.813.708-1.727 1.517-2.539 2.124a49.664 49.664 0 012.234-.91l2.437-2.124-2.132.91zm10.967-.1c-.813.707-1.727 1.415-2.641 2.123.203-.102.305-.102.508-.203 1.016-.808 1.93-1.617 2.843-2.325-.203.202-.406.303-.71.404zm-5.89.404c-.609.505-1.219 1.112-1.828 1.617.609-.202 1.219-.505 1.828-.707.609-.607 1.32-1.112 1.929-1.618-.609.101-1.218.404-1.929.708zm-16.552 1.415h.812c1.117-.707 2.437-1.415 3.961-2.123.812-.607 1.624-1.213 2.437-1.921-.711.303-1.422.606-2.133 1.01-1.523 1.113-2.843 1.922-4.062 2.225-.406.203-.711.506-1.015.81zm32.495-.202c.101 0 .101.101.203.101 0-.101 0-.202-.102-.303 0 .1 0 .1-.101.202zm-.711-1.112c-.305.303-.609.708-1.016 1.01.204 0 .407-.1.61-.1.304-.303.507-.607.609-.91h-.203zm-2.64-3.135c-1.219.405-2.945 1.416-4.773 2.73 2.031-.91 3.656-1.82 4.773-2.73zm-12.389.607c-.812.708-1.625 1.416-2.336 2.022l-.101.101c.609-.202 1.117-.505 1.726-.707.914-.81 1.726-1.517 2.539-2.225-.609.303-1.219.506-1.828.809zm5.382.101c-.812.607-1.523 1.214-2.336 1.921l2.133-.91c2.843-2.224 5.382-3.842 7.21-4.246.203-.304.406-.506.507-.81h-.812c-1.422 1.315-3.757 2.63-6.702 4.045zm-22.34 1.82h.711c1.015-.708 2.335-1.415 3.858-2.123.711-.506 1.422-1.112 2.234-1.72-.507.203-.914.405-1.421.608-1.828 1.314-3.453 2.325-4.671 2.527l-.711.708zm11.271-1.82c-.71.607-1.421 1.213-2.031 1.719.61-.303 1.219-.505 1.93-.809.609-.607 1.32-1.112 1.929-1.719-.609.405-1.218.607-1.828.81zm20.411.91c-.101.101-.203.202-.304.405h.101c.102-.203.102-.304.203-.405zm-31.682-.91h.406c1.117-.809 2.64-1.618 4.468-2.427.508-.404 1.015-.808 1.625-1.213-2.945 1.213-5.484 2.528-6.499 3.64zm22.645-2.629a385.875 385.875 0 00-3.25 2.63c.812-.304 1.523-.709 2.336-1.012 2.538-2.022 4.874-3.539 6.702-4.044.203-.304.406-.506.507-.81-.304 0-.812 0-1.218.203-1.117 1.011-2.945 2.022-5.077 3.033zm-11.881.91c-.61.506-1.219 1.112-1.828 1.618.609-.202 1.218-.506 1.828-.708l1.828-1.516a6.468 6.468 0 00-1.828.606zm5.28-.1c-.609.606-1.32 1.111-1.929 1.718l2.132-.91 2.133-1.82c-.711.303-1.524.607-2.336 1.011zm14.826 1.314h.304v-.102c-.101-.1-.203-.1-.203-.202-.101.101-.101.202-.203.304h.102zm-31.175-.81c0 .102-.101.203-.101.203.101-.101.203-.101.203-.202-.102.1-.102 0-.102 0zm30.159-.91c-.101.102-.304.203-.406.405.406-.101.813-.202 1.117-.101 0 0 0-.101.102-.101-.102-.101-.203-.101-.305-.101-.305-.101-.406-.101-.508-.101zm-19.598-1.213c-.508.506-1.117.91-1.625 1.315l1.523-.607c.508-.404 1.016-.91 1.524-1.314-.508.202-.914.404-1.422.606zm5.382-.303c-.609.506-1.219 1.011-1.828 1.618a12.428 12.428 0 001.726-.708c.61-.506 1.219-1.112 1.93-1.618-.61.303-1.219.506-1.828.708zm-14.115.809l-.914.606c1.015-.202 2.539-1.112 4.163-2.426-.304.101-.507.303-.812.404a10.627 10.627 0 01-2.437 1.416zm21.02-1.719c-.914.708-1.828 1.416-2.843 2.224.812-.404 1.624-.707 2.335-1.112 1.93-1.415 3.656-2.528 5.078-3.033.304-.303.507-.607.71-.809a3.07 3.07 0 00-1.218.303c-1.016.81-2.437 1.618-4.062 2.427zm-22.645.809h.102c.304 0 .609 0 1.015-.101.711-.405 1.523-.91 2.336-1.315.812-.606 1.726-1.314 2.64-2.022-2.742 1.213-5.179 2.427-6.093 3.438zm14.826-1.315c-.508.405-1.015.81-1.422 1.214.61-.203 1.219-.506 1.727-.708.507-.404 1.015-.91 1.523-1.314-.609.303-1.219.505-1.828.808zm-4.874.203c-.406.404-.813.707-1.219 1.01.305-.1.711-.303 1.016-.404.406-.303.812-.707 1.218-1.01-.406.1-.711.201-1.015.404zm11.373-1.214c-.812.607-1.625 1.315-2.539 2.022a496.15 496.15 0 013.148-1.415c1.523-1.112 2.844-1.921 4.062-2.427.406-.404.711-.707.914-1.112-.305 0-.711.101-1.117.202-.914.91-2.539 1.82-4.468 2.73zm-12.592-.202c-.609.506-1.117.91-1.625 1.416.711-.304 1.524-.607 2.336-.91.508-.506 1.117-.91 1.625-1.416-.813.303-1.625.607-2.336.91zm-8.834 1.213c-.102 0-.102 0 0 0-.102 0 0 0 0 0zm14.115-1.415c-.407.303-.813.708-1.117 1.011.507-.202.914-.404 1.421-.607.406-.303.813-.707 1.219-1.01-.609.201-1.117.404-1.523.606zm6.499-1.011c-.61.505-1.321 1.01-1.93 1.618.813-.304 1.523-.708 2.234-1.012 1.727-1.314 3.25-2.325 4.57-2.73.304-.303.508-.505.609-.808-.305 0-.609.1-1.015.202-1.016.809-2.539 1.719-4.468 2.73zm-20.614.202c-.102.101-.203.303-.203.404-.102.203 0 .304 0 .405.406-.303.812-.708 1.421-1.011-.406.1-.812.202-1.218.202zm2.437.303zm26.503.203c.102 0 .102 0 0 0 .102 0 .102-.102 0 0 0 0 0-.102 0 0zm-14.622-1.82c-.61.505-1.219 1.01-1.727 1.516.305-.1.61-.303 1.016-.404.609-.506 1.218-1.112 1.929-1.618-.507.202-.914.404-1.218.505zm-4.773.1c-.609.506-1.117 1.012-1.625 1.416.102 0 .203-.1.305-.1.508-.507 1.117-.91 1.625-1.416-.102 0-.203.1-.305.1zm9.444-.1c-.508.404-.914.808-1.422 1.213.813-.405 1.625-.708 2.437-1.112 1.727-1.315 3.25-2.225 4.468-2.832.305-.303.508-.606.508-.808v-.102c-.203 0-.305 0-.508.102-.914 1.213-2.945 2.426-5.483 3.538zm-11.576-.708c-.407.404-.813.707-1.219 1.01.914-.404 1.828-.707 2.843-1.111.406-.405.813-.708 1.32-1.113-1.117.405-2.031.81-2.944 1.214zm20.613.809c0 .1 0 .1 0 0 0 .1 0 .1 0 0 0 .1 0 .1 0 0zm-15.13-1.315c-.406.405-.914.81-1.32 1.213l-.102.102a23.193 23.193 0 002.336-1.011c.508-.405 1.015-.81 1.422-1.214-.813.303-1.625.607-2.336.91zm-13.099.607c0 .1 0 .1 0 0-.102.202-.102.404 0 .505.203-.1.304-.303.507-.404h-.406s-.101 0-.101-.101zm20.004-2.022c-.914.707-2.031 1.516-3.046 2.426.609-.202 1.117-.505 1.726-.707 2.031-1.618 3.96-2.933 5.382-3.438.102-.101.102-.203.203-.405-.508 0-1.218.304-1.929.708-.609.506-1.422 1.011-2.336 1.416zm-13.201.1a93.9 93.9 0 01-2.945 2.326c1.016-.505 2.031-1.01 3.148-1.415.711-.607 1.422-1.214 2.234-1.921-.812.303-1.624.606-2.437 1.01zm-3.859-.202c-.609.304-1.218.708-1.726 1.012.508-.203 1.016-.607 1.726-1.011zm10.764-.707c-.507.404-1.015.91-1.624 1.415.101 0 .203-.1.304-.1.61-.506 1.117-1.012 1.625-1.416 0 0-.102.1-.305.1zm-13.708 1.213c.101 0 0 0 0 0zm19.801-2.022c-.711.505-1.422 1.112-2.234 1.719.609-.304 1.32-.607 1.828-.91a22.626 22.626 0 012.335-1.517c.305-.303.61-.506.813-.809-.305.101-.711.303-1.219.506-.406.404-.914.708-1.523 1.01zm-12.795-.303c-.711.606-1.421 1.112-2.031 1.617l1.219-.606c.609-.506 1.218-1.011 1.726-1.517-.203.202-.609.303-.914.505zm19.294 1.415s0 .101 0 0zm-13.81-1.921c-.711.607-1.422 1.213-2.133 1.921l2.742-1.213c1.016-.81 1.929-1.618 2.843-2.326-1.015.506-2.132 1.112-3.452 1.618zm9.444-2.326c-1.321.101-3.656 1.82-6.195 3.843 1.32-.607 2.539-1.113 3.554-1.72a6.068 6.068 0 011.524-.91c.507-.404.913-.808 1.117-1.213zm-21.731 3.135c-.102.1-.203.303-.305.404.203-.1.305-.303.508-.404h-.203zm11.068-2.123c-.508.505-1.015.91-1.523 1.314.812-.303 1.523-.708 2.336-1.011l1.827-1.517c-.913.506-1.827.809-2.64 1.214zm-4.874.303c-.406.404-.914.708-1.32 1.112.406-.202.914-.404 1.32-.607.406-.303.812-.707 1.219-1.01-.407.202-.813.404-1.219.505zm-5.687-.607c-.406.303-.609.607-.71.809v.303c.913-.808 2.538-1.617 4.569-2.527.609-.506 1.32-1.113 1.93-1.72l-.102.102c-.914.404-1.929.91-2.945 1.415-1.117.91-2.031 1.517-2.742 1.618zm23.153.809s-.102 0 0 0c0 .101.102.101.102.101 0-.101-.102-.101-.102-.101zm-18.786-1.213c-.406.303-.812.708-1.219.91.61-.304 1.219-.506 1.828-.81.305-.303.711-.606 1.016-.91l-1.625.81zm14.419-.708c-.609.303-1.32.809-2.03 1.314.812-.404 1.523-.91 2.03-1.314zm-8.631-.202c-.406.404-.812.707-1.219 1.112.305-.101.711-.303 1.016-.404.508-.405.914-.81 1.422-1.113-.407.101-.813.304-1.219.405zm-10.155-.708c-.406.303-.71.607-.71.809v.202c0 .101.101.101.101.101h.102c.609-.505 1.523-1.011 2.64-1.517.711-.606 1.523-1.314 2.335-1.92-.812.404-1.726.808-2.538 1.314-.813.404-1.422.809-1.93 1.01zm9.647-.809c-.406.404-.914.708-1.32 1.112.406-.202.813-.303 1.219-.505.609-.506 1.117-.91 1.624-1.416a5.376 5.376 0 01-1.523.809zm6.905.708c-.203.1-.304.202-.507.303.203-.101.406-.202.507-.303zm2.438-1.011c-.102.404-.407.707-.813 1.112a4.808 4.808 0 011.523-.607s0-.1-.101-.1c-.102-.203-.203-.304-.406-.304 0-.101-.102-.101-.203-.101zm-2.945-.708c-.61.303-1.32.809-2.031 1.314a11.77 11.77 0 002.031-1.314zm-6.296-1.214c-.813.708-1.726 1.416-2.437 2.124.609-.303 1.218-.506 1.726-.809 1.929-1.618 3.351-2.73 4.57-3.236v-.1c0-.102-.102-.102-.203-.102-.305 0-.813.101-1.321.506-.507.505-1.218 1.01-2.335 1.617zm-6.499-.606c-1.726.91-3.757 2.022-3.96 2.629h.203c.507-.304 1.015-.708 1.726-1.011.711-.506 1.422-1.113 2.031-1.618zm14.318 1.314c0 .101 0 .101 0 0-.102.203-.102.405-.203.506.203-.101.406-.202.609-.202v-.101c-.101-.102-.203-.102-.406-.203zm-8.936-2.224c-.914.708-1.828 1.517-2.64 2.224 1.117-.505 2.234-1.01 3.148-1.617.812-.607 1.523-1.214 2.132-1.517.102-.101.102-.202.102-.303v-.203c0-.1-.102-.1-.102-.1-.305 0-.812.201-1.422.606-.203.202-.609.505-1.218.91zm-6.905-.101c-1.016.606-2.234 1.213-2.336 1.617.305-.1 1.32-.91 2.336-1.617zm12.795.505c-.102.101-.204.304-.305.405.305-.202.609-.304.812-.405 0 0-.101 0-.101-.1-.102.1-.203.1-.406.1zm-5.078-2.83c-.711 0-2.742 1.718-4.062 2.83.914-.505 1.93-.91 2.742-1.415l1.219-.91c.101-.101.203-.304.304-.405v-.1h-.203zm-9.037 1.415c-.305.202-.508.303-.711.505.203-.1.406-.303.711-.505zm7.006-2.124c-.507 0-2.031 1.315-3.249 2.326 1.523-.91 3.148-1.719 3.249-2.326zm-1.828-.606c-.406.1-1.015.606-1.624 1.213.711-.505 1.421-.91 1.624-1.213zM65.193 129.019h-.305a1.996 1.996 0 01-1.32-.91c-.101-.304-.203-.506-.304-.809-.102-.101-.102-.202-.204-.304-.304-.606-.406-1.112-.203-1.719a1.962 1.962 0 010-1.516 1.965 1.965 0 010-1.517c0-.101.102-.202.102-.303-.305-.607-.305-1.214-.102-1.82 0-.101 0-.101.102-.202-.305-.607-.305-1.214-.102-1.719-.203-.607-.304-1.113-.101-1.719 0 0 0-.101.101-.101-.304-.607-.304-1.214-.101-1.719 0-.101.101-.202.101-.304-.304-.606-.304-1.213-.101-1.82 0 0 0-.101.101-.101-.304-.606-.304-1.213-.101-1.719v-.101c-.203-.505-.203-1.011 0-1.415a2.224 2.224 0 010-1.618c0-.101 0-.101.101-.202a1.965 1.965 0 010-1.517c0-.101.102-.101.102-.202-.305-.607-.406-1.214-.102-1.82 0-.101.102-.202.102-.304-.305-.505-.305-1.112-.102-1.617a2.875 2.875 0 010-1.315c0-.101.102-.202.102-.303-.305-.506-.305-1.112-.102-1.618 0-.101.102-.101.102-.202-.305-.506-.305-1.112-.102-1.618 0-.101.102-.303.203-.404-.304-.506-.304-1.011-.101-1.517 0-.101.101-.101.101-.202-.304-.506-.304-1.011-.203-1.517 0-.101.102-.202.102-.303a1.284 1.284 0 010-1.214c0-.1 0-.1.101-.202-.203-.505-.304-1.01-.101-1.516 0-.102.101-.203.101-.304-.203-.404-.203-.809-.101-1.213 0-.101.101-.303.203-.405 0 0 0-.1-.102-.1-.203-.405-.304-.81-.101-1.214.101-.202.203-.404.406-.607-.101-.1-.101-.202-.203-.303-.203-.303-.203-.708-.102-1.112.102-.203.204-.405.305-.506-.101-.101-.203-.202-.203-.303-.203-.303-.203-.708-.102-1.011l.305-.607-.203-.202c-.305-.506-.102-1.112.305-1.517a.79.79 0 01-.407-.404c-.304-.506-.101-1.011.305-1.416l-.305-.303c-.304-.506-.101-1.011.102-1.517v-.101c-.102-.101-.203-.101-.203-.202-.102-.304-.102-.607.203-.708h.102c.101-.101.304-.303.609-.303.203 0 .304.1.406.303.203.404.102.91-.102 1.416l.204-.203c.609-.606 1.117-1.112 1.624-1.01.203 0 .407.201.508.404.102.202.102.404.102.606.507-.404.913-.606 1.32-.505.304 0 .507.202.609.404.102.202.203.405.203.607.508-.303.914-.506 1.32-.405.305 0 .61.203.711.506.101.101.102.202.102.303.203 0 .406-.1.507 0 .203 0 .61.203.813.607.101.101.101.202.101.303.305-.1.61-.1.813-.1.406.1.71.303.913.606.102.101.102.303.204.404h.507c.406.102.813.304 1.016.708.101.101.101.202.101.303.508.102.813.304 1.117.81v.1c.407.102.813.405 1.016.81.101.1.101.202.101.303.407.1.813.404 1.016.809.406.1.812.404 1.015.808.102.203.203.405.203.607.305.202.508.405.711.708.102.202.203.506.305.708.305.202.508.404.61.707.1.203.202.405.202.607.305.202.508.405.711.708.203.303.305.607.305.809.203.202.406.404.609.708.203.303.305.505.305.809.101.1.101.202.203.303.203.404.304.809.304 1.314.102.101.203.203.305.405.203.404.305.809.305 1.213.101.101.203.303.304.404.305.506.406 1.012.305 1.416 0 0 0 .101.101.101.305.506.407 1.011.305 1.517a2.03 2.03 0 01.203 1.719c.305.505.305 1.011.203 1.516.406.708.406 1.416.203 2.023 0 .101-.101.202-.101.303.304.607.304 1.213.101 1.82-.101.202-.101.303-.203.506.203.505.102 1.011 0 1.516 0 .101-.101.304-.203.405.102.505.102 1.011 0 1.415a2.193 2.193 0 01-.508.809c.102.506.102.91 0 1.416-.203.505-.507.91-.913 1.314.101.405.101.809-.102 1.214-.102.303-.305.606-.61.91 0 .303 0 .606-.1.808-.204.506-.61 1.012-1.118 1.416 0 .202-.101.404-.101.506-.204.606-.813 1.213-1.625 1.718v.102c-.406 1.112-1.93 1.921-4.062 2.831.102.202 0 .505-.305.606-.304.101-.609.101-.71-.202a4.967 4.967 0 01-.711.303c-.711.506-1.727 1.416-2.336 2.124-1.828 1.719-2.945 2.831-3.96 2.629-.203 0-.508-.202-.61-.304-1.117 1.214-2.437 2.023-3.452 2.023zm-.71-2.124c.1.101.202.101.304.101.507.102 1.117-.202 1.828-.606-.711.404-1.422.505-2.031.404h-.102v.101c0-.101 0-.101 0 0zm7.514-2.73c-.711.708-1.422 1.416-2.133 2.023.508-.102 2.133-1.517 2.945-2.326-.203.101-.508.202-.812.303zm-4.976.607l-1.219.607c.305-.102.711-.304 1.219-.607zm-2.844.505c0 .102 0 .102 0 0 .102 0 .102.001.102-.101 0 .102-.102.101-.102.101zm3.453-2.224c-.914.404-1.726.809-2.335 1.213.609-.101 1.421-.606 2.335-1.213zm-2.945.303l-.101.101.101-.101zm-.304-1.314s.101 0 0 0c.507-.202.913-.506 1.421-.708-.304.101-.508.101-.812.101l-.61.607zm9.85 0s.101 0 0 0c.101 0 0 0 0 0zm-4.164-1.416c-.203.101-.304.304-.508.405.305-.101.508-.202.813-.304l.406-.404a1.1 1.1 0 01-.71.303zm-.406-1.617c-.61.505-1.219.91-1.828 1.314.508-.202 1.117-.404 1.726-.708.407-.303.813-.708 1.219-1.112-.406.303-.71.404-1.117.506zm-5.28 1.011c.101.101.304.202.406.202.304-.202.71-.405 1.015-.607-.406.101-.812.101-1.117.101-.203.101-.304.203-.304.304zm12.49-.304c-.203.101-.305.304-.508.405 1.625-.607 3.148-1.214 4.265-1.82a32.352 32.352 0 01-3.757 1.415zm-3.453-2.022c-.406.405-.812.708-1.117 1.112.203-.101.305-.101.508-.202.305-.303.71-.607 1.015-1.011l.102-.101a.778.778 0 00-.508.202zm-2.945-1.011a19.069 19.069 0 01-2.437 1.82c.305-.101.711-.303 1.016-.404.609-.506 1.218-1.012 1.828-1.618-.102.101-.203.101-.407.202zm-6.296 1.618c.102.101.102.202.204.202l.913-.607h-.71a.792.792 0 00-.407.405zm16.35-1.416c.101 0 .203.101.203.101.609-.303 1.117-.505 1.523-.809v-.101a8.967 8.967 0 01-1.727.809zm-6.906-1.314c-.507.505-1.015 1.011-1.523 1.415.203-.101.508-.202.71-.303l1.423-1.416-.61.304zm-9.444.91c0 .101.102.101.102.101.406-.303.812-.506 1.219-.809-.305 0-.508.101-.711 0a4.41 4.41 0 01-.61.708zm6.398-1.719c-.61.505-1.117.91-1.726 1.314.304-.101.71-.303 1.015-.404.406-.405.914-.809 1.32-1.213-.101.101-.406.202-.61.303zm6.093-.303c-.508.404-.914.91-1.422 1.314.203-.101.305-.101.508-.202.507-.506 1.015-.91 1.523-1.416l-.61.304zm4.975.101h.204c.203 0 .507.101.71.202a4.372 4.372 0 001.016-.708v-.101c-.102-.101-.102-.202-.203-.303-.61.404-1.117.606-1.727.91zm-7.819-.91c-.406.404-.812.707-1.117 1.112.102 0 .204-.101.305-.101l1.117-1.112c-.102 0-.203 0-.305.101zm-9.545.809c.102.101.203.101.305.202.507-.304 1.015-.708 1.624-1.011-.507.202-.913.303-1.32.202-.203.303-.406.404-.609.607zm5.89-1.315c-.61.506-1.117.91-1.625 1.213l1.523-.606c.406-.304.813-.708 1.219-1.011-.407.202-.813.303-1.117.404zm10.256-.101c-.305.303-.71.506-1.117.91 1.421-1.011 2.64-1.618 3.656-1.517h.203c.304-.202.609-.303.812-.505-.203-.202-.406-.304-.508-.304-.812.506-1.93 1.012-3.046 1.416zm-3.859-.404c-.406.303-.71.707-1.117 1.011.203-.101.406-.101.61-.203.406-.404.71-.707 1.116-1.011-.101.101-.406.203-.609.203zm7.616.505c.102 0 .102 0 0 0 .102 0 .102 0 0 0 .102 0 .102 0 0 0zm-14.216-1.82c-.914.708-1.727 1.315-2.438 1.719.61-.303 1.32-.607 2.031-.809.508-.404 1.016-.91 1.524-1.314-.305.101-.711.202-1.117.404zm3.858.506c-.406.303-.71.707-1.015 1.011.203-.101.406-.101.508-.202l1.015-1.012c-.203.102-.406.102-.508.203zm-9.545.707c.102.102.203.203.406.203l.914-.607c-.305.101-.61.101-.914 0h-.101c-.102.202-.305.303-.305.404zm15.74-1.112c-.407.304-.813.708-1.219 1.112.406-.202.813-.303 1.219-.505 1.218-.91 2.335-1.416 3.35-1.517.712-.404 1.32-.809 1.829-1.213l-.203-.202c-1.422.91-3.047 1.617-4.976 2.325zm-3.25-.606l-1.015 1.011c.101 0 .203-.101.304-.101.407-.304.711-.708 1.117-1.012-.203 0-.304 0-.406.102zm7.82.202c.1.101.202.101.202.202.204-.202.407-.506.407-.708a1.04 1.04 0 01-.61.506zm-10.866-1.112c-.406.404-.914.808-1.32 1.213.304-.101.507-.202.812-.303l1.219-1.214c-.203.101-.406.202-.711.304zm-9.546.808c.102.102.102.203.204.203.101-.101.304-.203.406-.304h-.102c-.101 0-.203 0-.304-.101-.102.101-.204.101-.204.202zm15.639-1.011c-.407.304-.813.708-1.219 1.113l.914-.304c.61-.505 1.219-.91 1.726-1.314-.507.101-.914.303-1.421.505zm-9.343-.606c-.71.606-1.421 1.213-2.132 1.719.305-.102.71-.304 1.117-.405.508-.505 1.117-.91 1.726-1.517-.203.102-.507.102-.71.203zm6.5-.304c-.407.405-.813.809-1.32 1.214.202-.101.405-.101.507-.203.406-.404.914-.808 1.32-1.213-.102.101-.305.101-.508.202zm-9.546-.303c-.61.303-1.219.607-1.726.91a9.643 9.643 0 001.726-.91zm6.397-.607c-.507.405-.913.91-1.421 1.315.304-.101.507-.202.812-.304.406-.404.914-.808 1.32-1.314-.304.202-.507.303-.71.303zm-9.342.91l-.305.304c.102-.101.204-.203.407-.304h-.102zm15.943-1.314c-.508.404-1.016.91-1.625 1.415.102-.101.305-.101.406-.202.711-.606 1.32-1.112 1.93-1.516-.203.101-.406.202-.711.303zm-9.342-.506c-.508.506-1.016.91-1.524 1.315.102-.101.305-.101.407-.202.507-.405.914-.809 1.421-1.214-.101.101-.203.101-.304.101zm5.89-.101c-.407.405-.915.809-1.32 1.214.202-.102.507-.203.71-.203.406-.404.914-.809 1.32-1.314-.203.101-.508.202-.71.303zm7.31 1.011h.508c.407-.303.711-.505.914-.809 0-.101-.101-.101-.101-.202-.508.304-1.016.607-1.625.91.102.101.203.101.305.101zm-20.004-.505c0 .101 0 .101 0 0 .406-.202.812-.405 1.219-.708-.204 0-.407.101-.61.101-.203.202-.507.405-.609.607zm9.647-1.416c-.406.405-.812.809-1.219 1.112.204-.101.305-.101.508-.202.406-.404.813-.809 1.219-1.112-.203.101-.406.202-.508.202zm6.6-.404c-.507.404-1.015.91-1.523 1.314.305-.101.61-.202.813-.303.812-.708 1.523-1.214 2.234-1.719-.406.202-.914.505-1.523.708zm-9.951.101c-.203.202-.508.404-.71.606.202-.101.405-.101.507-.202.203-.202.406-.404.61-.505-.103 0-.204.101-.407.101zm6.296-.708c-.406.404-.813.708-1.219 1.112.203-.101.508-.202.711-.202.406-.404.812-.809 1.219-1.112-.203.101-.508.202-.711.202zm7.92.708h.305c.102 0 .203 0 .305.101.203-.101.304-.303.406-.405l-.305-.303c-.304.202-.61.405-1.015.607h.304zm-20.41-.101c.101 0 .101.101.203.101 1.117-.809 2.64-1.517 4.366-2.225.406-.303.813-.606 1.117-1.011l-1.523.607c-1.219.91-2.234 1.517-3.148 1.618-.406.303-.71.606-1.015.91zm5.178-1.113c-.507.405-1.015.809-1.421 1.113.61-.304 1.32-.506 1.93-.809a8.997 8.997 0 011.015-.91c-.61.202-1.117.404-1.524.606zm4.062.102c-.203.202-.406.303-.507.505l.203-.101c.203-.202.406-.303.507-.506 0 .102-.101.102-.203.102zm6.702-.809c-.406.404-.914.809-1.32 1.213.305-.101.711-.303 1.016-.404.609-.506 1.218-1.012 1.828-1.416l-1.524.607zm-16.45.707zm12.389-.808c-.204.202-.407.303-.508.505.203-.101.304-.101.507-.202.204-.202.407-.405.61-.506-.203.101-.406.203-.61.203zm9.443-.708c-.507.303-1.015.708-1.624 1.011.406-.101.913-.202 1.218-.101a2.37 2.37 0 00.711-.708c-.102-.101-.203-.202-.305-.202zm-12.084 0c-.304.303-.609.606-.914.809.102 0 .204-.101.305-.101.305-.304.61-.607.914-.809-.102 0-.203 0-.305.101zm-9.24.606c.101.102.304.203.406.203h.203c.305-.203.508-.304.812-.506-.406.101-.914.202-1.218.101h-.102s0 .101-.101.202zm15.13-1.011l-.61.607c.305-.101.61-.202.813-.303a4.39 4.39 0 00.71-.607c-.202.101-.608.202-.913.303zm-3.148-.606l-.914.91c.102 0 .102 0 .203-.101l.914-.91c0 .101-.101.101-.203.101zm-6.296-1.517c-.914.809-1.726 1.416-2.538 1.921.203-.101.406-.202.609-.202.61-.506 1.32-1.112 1.93-1.719 0 0 .1 0 0 0zm2.844 1.011c-.305.303-.61.607-1.016.91.406-.101.812-.303 1.219-.404l.913-.91c-.406.202-.812.303-1.117.404zm-8.734.506l.204.202c.406-.303.913-.607 1.523-1.011-.406.101-.813.202-1.117.202-.305.202-.508.404-.61.607zm15.13-1.113c-.405.304-.71.607-1.116 1.012.203-.102.508-.203.71-.203.407-.404.813-.707 1.22-1.112-.204.101-.508.202-.813.303zm6.601.102c-.406.303-.812.606-1.32.91.305-.102.508-.102.813-.102.304-.202.507-.505.609-.707l-.102-.101zm-9.342-.809c-.305.303-.71.606-1.015.91l.304-.101c.305-.304.711-.607 1.016-1.011-.102.1-.203.202-.305.202zm-3.656-.708c-.507.505-1.015 1.011-1.624 1.517.304-.102.609-.203 1.015-.405.508-.505 1.016-.91 1.523-1.415l-.913.303zm-3.757-.303c-.609.505-1.32 1.011-1.828 1.415.711-.303 1.422-.606 2.234-.91.305-.303.711-.606 1.118-.91-.61 0-1.118.202-1.524.405zm10.561-.203c-.406.405-.812.708-1.218 1.113.101 0 .203-.102.304-.102.508-.404 1.016-.808 1.422-1.213-.203.101-.305.202-.508.202zm-13.912.304c-.406.202-.71.505-1.015.707 1.015-.606 2.335-1.314 3.858-1.82.204-.202.407-.303.61-.505a9.019 9.019 0 00-1.727.809c-.71.404-1.218.708-1.726.809zm18.075.202c-.304.101-.609.303-1.015.505.406-.202.71-.303 1.016-.505zm1.524.303h.203c.101-.1.203-.202.203-.303-.102 0-.305.202-.406.303zm-9.038-1.516c-.508.505-1.015.91-1.523 1.415.406-.101.71-.303 1.117-.404.508-.506 1.015-1.011 1.523-1.416-.406.101-.812.202-1.117.405zm-3.25-.506c-.304.303-.609.506-.812.809.305-.303.508-.607.813-.809zm-8.63.607h.1c.204 0 .407 0 .712-.101.507-.304 1.015-.607 1.624-.81.61-.404 1.219-.91 1.93-1.516-1.93.809-3.555 1.618-4.367 2.427zm16.246-1.82c-.609.505-1.32 1.112-2.03 1.719.203-.102.304-.102.406-.203 2.03-1.719 3.859-2.932 5.28-3.033.102-.101.203-.202.203-.404h-.609a18.287 18.287 0 01-3.25 1.92zm4.367 1.516h.406c.102-.1.102-.202.102-.202-.102-.101-.102-.101-.203-.101 0 .101-.203.202-.305.303zm-9.545-1.112l-.711.708.914-.303.71-.708c-.304 0-.609.1-.913.303zm-3.554-.404l-.61.606c.406-.1.813-.303 1.117-.404l.61-.607c-.305.101-.711.304-1.117.405zm12.896-.506l-.406.405h.71c0-.102.102-.102.102-.203-.203-.1-.305-.1-.406-.202zm-20.31.405c.813.1 2.133-.708 3.555-1.922-1.422.607-2.742 1.214-3.554 1.922zm14.725-.91c-.305.202-.508.404-.813.707.61-.202 1.117-.404 1.625-.707.406-.304.813-.607 1.32-.91l-2.132.91zm-7.616-.708c-.406.404-.813.809-1.219 1.112.305-.101.61-.202.914-.404l1.117-1.113c-.304.203-.609.304-.812.405zm4.062.404c-.305.202-.508.506-.813.708.305-.202.508-.506.813-.708zm2.945-1.213c-.407.303-.711.606-1.117 1.011.406-.101.812-.303 1.218-.404a21.088 21.088 0 012.031-1.517l-2.132.91zm-3.656-.405l-1.117 1.113c.406-.102.812-.304 1.218-.405.407-.404.813-.809 1.219-1.112-.406.101-.812.202-1.32.404zm-9.24.203c-.407.202-.813.505-1.118.707.711 0 1.727-.707 2.843-1.617-.304.1-.609.303-.812.404-.406.202-.71.404-.914.506zm5.381-.506c-.406.303-.71.708-1.117 1.011.305-.1.711-.202 1.016-.404.304-.304.71-.607 1.015-1.011-.305.202-.61.303-.914.404zm12.694-.303c-.305.303-.711.606-1.118.91.204-.101.407-.203.61-.203.304-.303.507-.505.507-.707 0 0 .102 0 0 0zm-3.96-1.416c-.61.405-1.22 1.011-1.93 1.618h.101a19.04 19.04 0 012.438-1.82c-.204 0-.407.101-.61.202zm-5.281.405c-.305.303-.711.606-1.016 1.01.305-.1.508-.202.813-.303.406-.303.71-.707 1.117-1.01-.305.1-.61.201-.914.303zm-10.155.91c.305 0 .508 0 .813-.102.203-.1.507-.303.812-.404.508-.303 1.015-.708 1.625-1.213-1.422.606-2.64 1.112-3.25 1.719zm5.991-1.214c-.406.405-.812.81-1.218 1.112.406-.202.812-.303 1.218-.505l1.117-1.112a3.76 3.76 0 01-1.117.505zm12.694-.404c-.305.404-.813.708-1.32 1.112.507-.303 1.117-.404 1.523-.505.101-.102.101-.203.203-.304v-.1c-.102-.102-.203-.102-.305-.102 0-.101 0-.101-.101-.101zm-4.164-1.112c-.507.404-1.117.91-1.726 1.415.812-.303 1.523-.606 2.132-1.01.508-.405 1.117-.709 1.625-1.012.406-.303.711-.607.813-.91-.305 0-.61.101-.914.303-.61.405-1.219.81-1.93 1.214zm-4.772.1c-.407.405-.813.709-1.117 1.113l.913-.303c.407-.405.813-.81 1.219-1.113-.305.102-.61.203-1.015.304zm-7.82 0c-.609.304-1.218.607-1.624.91.507-.1 1.015-.505 1.624-.91zm15.13.304c-.202.101-.405.303-.608.404.609-.303 1.117-.606 1.624-.707v-.101c-.203.1-.609.202-1.015.404zm-11.068-.505c-.304.202-.507.505-.812.707.102 0 .102 0 .203-.1.305-.203.508-.506.813-.709 0 .102-.102.102-.204.102zm10.257-2.63c-.914.203-2.336 1.113-3.758 2.427.508-.202 1.016-.404 1.422-.708.61-.505 1.218-.808 1.726-1.112.305-.202.508-.404.61-.606zm-7.515 1.72c-.203.202-.508.404-.71.707.406-.1.812-.303 1.116-.404.203-.202.508-.405.711-.708-.304.101-.71.202-1.117.404zm-6.905-.405c-.61.303-1.219.607-1.625.91.406-.101 1.016-.404 1.625-.91zm3.453.101l-.61.607c.305-.101.508-.202.813-.303l.609-.607c-.305.101-.61.202-.813.303zm3.35-1.314c-.203.202-.507.404-.71.707.101 0 .101 0 .203-.1.203-.203.508-.405.71-.708 0 .1-.1.1-.202.1zm6.703-1.416c-.813.202-1.93 1.011-3.148 2.022 1.421-.707 2.64-1.314 3.148-2.022zm-10.358 1.416c-.203.202-.406.404-.61.505.102 0 .204-.1.305-.1.203-.203.406-.304.508-.506-.102 0-.102 0-.203.1zm-4.976-.91c-.203.202-.406.404-.406.606v.102c.812-.708 2.132-1.315 3.656-1.922.406-.404.812-.707 1.117-1.112-.61.303-1.219.506-1.828.809-1.016 1.011-1.828 1.517-2.539 1.517zm12.592-.91c-.508.404-1.117.809-1.625 1.314.813-.303 1.523-.708 2.133-1.011a1.4 1.4 0 00.406-.303c.406-.304.71-.607.812-.91-.304.1-.812.303-1.218.606-.102.102-.305.203-.508.304zm-8.835.708l-.609.606c.406-.202.812-.303 1.219-.505l.609-.607c-.406.202-.813.404-1.219.506zm4.062 0l-.508.505c.305-.101.508-.202.813-.303.203-.203.406-.304.508-.506-.305.101-.508.202-.813.303zm-.101-1.618l-.813.809c.102 0 .203-.102.305-.102.305-.303.61-.606.914-.808-.102 0-.305.1-.406.1zm-7.413-.203c-.305.203-.61.506-.61.708v.303c.61-.404 1.32-.808 2.234-1.213.508-.404 1.016-.91 1.422-1.314-.71.303-1.421.606-2.03.91a8.824 8.824 0 00-1.016.606zm12.591-.404c-.406.202-1.015.607-1.523 1.011.203-.101.406-.202.508-.303.203-.202.508-.303.71-.506.102-.1.204-.1.306-.202zm-5.585-1.112c-.507.404-1.015.91-1.421 1.314.406-.202.812-.303 1.218-.505 1.32-1.315 2.64-2.326 3.656-2.73l-.203-.203c-.102 0-.305 0-.61.102-.406.707-1.32 1.415-2.64 2.022zm4.57.1a8.181 8.181 0 00-1.422.91c.61-.302 1.117-.606 1.422-.91zm-9.647-1.516c-1.218.607-2.538 1.214-2.742 1.72v.201h.102c.305-.202.71-.404 1.015-.606.61-.405 1.219-.91 1.625-1.315zm4.57-.404c-.61.505-1.219 1.112-1.828 1.618.61-.304 1.219-.506 1.726-.81.914-.808 1.625-1.415 2.437-1.82 0-.1 0-.201-.101-.201 0-.102-.102-.102-.102-.102-.203 0-.61.203-1.117.506-.203.303-.61.505-1.015.809zm-5.18-1.011c-.71.404-1.928 1.112-1.928 1.415.304.101 1.117-.707 1.929-1.415zm5.484-1.113c-.507 0-2.03 1.416-2.945 2.326.711-.303 1.422-.708 2.032-1.011.304-.303.609-.506.913-.809.102-.101.102-.101.102-.202v-.202l-.102-.102zm-1.421-.808c-.305 0-1.219.809-1.93 1.415.914-.404 1.828-1.011 1.93-1.415zm38.79.91h-.406c-.609-.102-1.015-.405-1.32-.91-.203-.304-.203-.506-.304-.81a3.081 3.081 0 01-.813-.808c-.304-.607-.406-1.214-.203-1.82-.101-.304-.101-.607 0-.81-.203-.505-.305-1.01-.101-1.516-.102-.404-.102-.809.101-1.213-.101-.405-.101-.809.102-1.214 0-.1.101-.1.101-.202-.203-.404-.203-.809-.203-1.213-.203-.607-.305-1.112 0-1.719l.305-.607c-.305-.606-.406-1.314-.102-2.022v-.101a2.502 2.502 0 010-1.719c0-.101.102-.202.102-.303 0 0 0-.101-.102-.101-.406-.708-.508-1.416-.203-2.124.102-.202.102-.303.203-.505-.304-.607-.304-1.214-.101-1.82-.102-.506-.102-.91.101-1.416 0-.1.102-.202.102-.303-.305-.607-.305-1.213-.102-1.82 0-.101 0-.101.102-.202-.406-.708-.406-1.315-.203-2.023 0-.1.101-.303.203-.404-.305-.607-.305-1.213-.102-1.921-.304-.607-.304-1.112-.101-1.72-.102-.505-.102-.91.101-1.415.102-.202.102-.404.305-.505-.203-.506-.305-.91-.203-1.416a3.312 3.312 0 010-1.415c0-.101 0-.101.101-.203-.304-.606-.304-1.213-.101-1.82 0-.1.101-.202.203-.404a2.512 2.512 0 01-.305-1.719 2.889 2.889 0 010-1.314l.305-.607c-.305-.506-.406-1.112-.203-1.618-.203-.404-.203-.91-.102-1.415-.203-.506-.203-.91 0-1.416 0-.101 0-.101.102-.202-.102-.303 0-.708.101-1.011-.203-.506-.203-.91-.101-1.416.101-.303.203-.505.406-.809-.102-.1-.102-.202-.203-.303-.305-.506-.305-1.011-.203-1.517-.203-.404-.203-.809 0-1.314 0-.101.101-.303.203-.405 0 0-.102-.1-.102-.202-.304-.505-.304-1.011-.101-1.517-.203-.404-.305-.91-.102-1.415a1.725 1.725 0 010-1.011c.102-.202.203-.405.305-.708-.102-.101-.203-.202-.203-.303-.203-.405-.305-.91-.102-1.315 0 0 0-.1.102-.1a1.391 1.391 0 010-.91c0-.102.101-.203.101-.304-.101-.304-.101-.708 0-1.113 0-.1.102-.202.102-.303 0-.1-.102-.1-.102-.202-.203-.405-.304-.809-.101-1.213l.304-.607-.101-.101c-.203-.303-.203-.708-.102-1.112.102-.405.406-.708.711-1.113a1.224 1.224 0 01-.508-.505c-.203-.303-.203-.607-.101-1.011v-.101s-.102-.101-.102-.203c-.203-.303-.203-.606-.101-.91 0-.1.101-.202.101-.303-.203-.303-.203-.607-.101-.809.101-.202.101-.303.304-.505-.304-.506-.101-1.012.407-1.618-.204 0-.407-.202-.61-.405-.406-.707.203-1.415 1.016-2.325a1.108 1.108 0 01-.508.1c-.203 0-.406-.201-.508-.302-.203-.405 0-.91.203-1.517 0-.101 0-.101.102-.202-.102 0-.102-.101-.102-.203-.203-.303-.101-.606.203-.707h.102c.102-.101.305-.304.609-.203.203 0 .305.102.406.304.204.303.102.708-.101 1.213.711-.708 1.218-1.011 1.625-.91.203 0 .406.202.507.303.407.81-.406 1.618-1.421 2.73-.305.304-.711.708-.914 1.012.508-.405 1.32-1.012 1.929-1.517 1.625-1.416 2.539-2.123 3.25-2.022.304 0 .507.202.609.404.101.303.203.506.101.809.711-.506 1.219-.708 1.727-.607.304 0 .508.203.711.506 0 0 0 .101.101.101h.406c.305 0 .508.202.711.506h.406c.305.1.61.202.813.505h.507c.407.101.61.303.813.607.101.202.203.505.203.809.508-.203 1.015-.304 1.422-.304.406.101.71.304.913.607 0 .101.102.101.102.202h.508c.406.101.812.304 1.015.708.102.101.102.202.203.404h.102c.406.102.711.203.914.506h.304c.508.101.813.303 1.016.708v.1a.911.911 0 01.609.608c.102.202.203.303.203.505h.406c.407.101.813.303 1.016.607.508.1.812.404 1.117.809.101.202.203.303.203.505.203.101.406.304.508.607.101.202.203.303.203.505.508.102.914.405 1.218.91.305.203.61.405.813.81.203.303.304.606.304.91a1.992 1.992 0 011.32.91c.102.1.102.202.102.303.305.202.508.404.711.707.101.203.203.304.203.506.102.101.203.202.305.404.101.203.203.405.203.506.101.101.203.303.304.404.102.304.203.506.305.81.102.1.203.303.305.404.203.303.304.607.304 1.011.305.202.61.404.711.809.102.101.102.303.203.404.102.102.203.304.305.506.203.404.406.91.304 1.314.204.203.407.405.508.607.203.405.305.809.305 1.112.101.101.203.304.304.405.305.404.407.91.305 1.415.102.405.203.708.203 1.113.102.1.203.303.305.404.101.202.203.506.304.708.102.1.102.202.204.303.304.506.406 1.011.304 1.618l.102.101c.406.708.507 1.415.203 2.123v.101c.406.708.406 1.416.203 2.124v.1c.305.608.406 1.214.203 1.922.305.505.406 1.011.305 1.517.203.606.304 1.213 0 1.82-.102.202-.203.505-.407.708.305.606.305 1.213.102 1.82a3.04 3.04 0 01-.406.808c.406.607.406 1.315.203 2.023 0 .1-.102.202-.203.404.203.506.101 1.011 0 1.618-.102.404-.305.708-.609 1.112a2.225 2.225 0 010 1.618l-.305.606c0 .304 0 .607-.102.91-.101.405-.406.81-.71 1.113.101.404 0 .809-.102 1.112-.102.202-.203.505-.406.708 0 .202-.102.505-.102.708a3.007 3.007 0 01-.406.808c0 .203-.101.405-.101.607-.204.506-.508.91-.914 1.416 0 .202-.102.303-.102.505-.203.506-.508.91-1.015 1.416 0 .1 0 .202-.102.303-.305.91-1.218 1.719-2.437 2.629 0 .202 0 .404-.102.607-.507 1.617-3.452 3.134-7.006 4.853.101.101.304.202.406.404.101.304.101.607-.203.708-.305.101-.609.101-.711-.202-.609-.101-2.843 1.82-4.062 2.932-2.437 2.124-3.96 3.438-5.077 3.236-.305-.101-.609-.202-.711-.506-.102-.202-.203-.404-.203-.707-3.351 1.92-5.89 3.64-7.515 3.64zm-.812-1.618c0 .1 0 .1 0 0 .203.303.305.404.609.505 1.93.304 6.906-4.044 11.272-7.785l.305-.304c-.407.203-.813.304-1.219.506-4.468 3.741-8.53 6.977-10.967 7.078zm.102-1.112c.203.1.609 0 .914-.203-.305.101-.61.101-.914.203zm-.813-1.315c.102.101.203.101.406.202l.102-.1h-.305c-.101-.102-.203-.102-.203-.102zm15.334-4.145c-2.742 1.314-5.281 2.73-5.585 3.74-.102.203 0 .304 0 .405.507.101 2.843-1.82 4.163-3.033.508-.405 1.016-.81 1.422-1.112zm-11.983 3.336c-.101 0-.101.101-.203.101.102 0 .203-.1.203-.1.102 0 .102 0 0 0zm-1.015-1.719c-.102 0-.102.101-.203.101l.609-.303c-.102.101-.305.202-.406.202zm-2.336-1.01s0 .1 0 0c.305-.203.508-.304.813-.506h-.203c-.305.202-.508.404-.61.505zm4.468-1.315c-.304.202-.711.303-1.015.505.304-.1.508-.303.812-.404l.203-.101zm11.577-1.618c-.711.607-1.321 1.112-1.93 1.719 1.016-.506 2.234-1.011 3.351-1.618 2.945-1.415 6.296-2.932 7.515-4.145-2.437 1.314-5.585 2.73-8.936 4.044zm-15.74-1.314c-.305.303-.508.606-.609.91a9.094 9.094 0 011.015-.91h-.406zm15.029-.102c-.406.304-.711.607-1.117.91.406-.202.812-.303 1.218-.505.305-.303.711-.607 1.016-.91-.406.202-.711.404-1.117.505zm-7.413-2.527c-2.437 1.01-4.57 2.123-6.093 3.134 1.523-.91 3.351-1.719 5.484-2.629.203-.101.406-.303.609-.505zm.508 2.426c-.305.203-.508.405-.813.607.305-.101.508-.202.813-.303.203-.203.406-.405.71-.506-.203 0-.507.101-.71.202zm11.271-1.516c-.304.202-.609.404-.914.707 2.133-.91 4.164-1.82 5.788-2.73-1.421.607-3.046 1.315-4.874 2.023zm-14.318-1.416a22.457 22.457 0 00-3.554 1.921c1.016-.303 2.234-1.011 3.554-1.921zm-5.382 1.82c.203-.101.305-.303.508-.404h-.102c-.101.1-.203.303-.406.404zm18.076-1.112l-.305.303 1.523-.606c.102-.102.305-.203.406-.304-.609.202-1.117.405-1.624.607zm-18.279-.91c.102.202.305.303.406.404 2.031-1.617 5.382-3.235 9.241-4.853.914-.708 1.828-1.416 2.64-2.225-1.015.405-2.031.81-2.945 1.214-3.452 2.73-6.499 4.65-8.529 4.55-.305.303-.61.606-.813.91zm5.585-1.416c-1.218.607-2.234 1.112-3.148 1.72.914-.304 2.031-.91 3.148-1.72zm4.164-.202l-1.219.91c.812-.303 1.625-.708 2.437-1.011.305-.202.609-.506.914-.809-.609.404-1.422.708-2.132.91zm4.874-.202c-.305.202-.508.505-.813.708.204-.102.305-.102.508-.203.305-.202.508-.505.813-.707a.775.775 0 00-.508.202zm6.803.202c-.101.101-.304.202-.406.303a62.758 62.758 0 005.078-2.224c-1.422.607-2.945 1.213-4.672 1.921zm3.859-.303c.406-.101.711-.304.914-.506-.305.202-.609.303-.914.506zm-25.082-.304c.102 0 .203.101.305.101 1.828-1.415 4.773-2.932 8.327-4.347.812-.607 1.624-1.315 2.538-2.023-1.117.506-2.234.91-3.249 1.416-2.539 1.82-4.671 3.134-6.296 3.539-.711.404-1.219.91-1.625 1.314zm9.952-1.213c-.508.404-1.016.809-1.422 1.112.102-.1.305-.1.508-.202.406-.404.914-.708 1.32-1.112-.102.1-.203.1-.406.202zm-10.561-.404a1.107 1.107 0 000 .809c.102-.203.305-.304.508-.506-.203-.101-.406-.202-.508-.303zm14.216-1.113c-.507.405-.913.81-1.421 1.214.609-.203 1.32-.506 1.929-.708.508-.405.914-.809 1.32-1.213l.102-.102a15.59 15.59 0 01-1.93.81zm3.859.405l-.609.606c.203-.1.305-.1.508-.202l.609-.606c-.203.1-.305.202-.508.202zm-17.567-.304c.203.102.304.203.507.203h.61c.101-.101.304-.203.406-.304-.406.101-.812.101-1.117 0-.102.101-.203.101-.406.101.101 0 .101 0 0 0zm15.232-2.932c-.813.708-1.625 1.416-2.336 2.022.102 0 .203-.1.203-.1.813-.709 1.523-1.315 2.336-2.023l-.203.101zm11.271 1.517c-.304.101-.609.303-.914.404.305-.1.61-.202.914-.404zm-22.746-1.315c-1.016.506-1.828 1.113-2.539 1.618 1.523-.1 3.859-1.618 6.499-3.64-1.015.405-1.929.91-2.742 1.315-.507.303-.913.505-1.218.707zm-4.062 1.011s.102 0 0 0c.102.102.102.203.203.304.203-.202.406-.405.711-.506-.203 0-.406-.1-.609-.202a1.397 1.397 0 00-.305.404zm22.137-1.617c-.609.505-1.218 1.01-1.929 1.617.203-.1.406-.202.609-.202.711-.606 1.422-1.213 2.133-1.719-.204.102-.508.203-.813.304zm-3.452-.81c-.61.506-1.117 1.012-1.727 1.518-.203.1-.304.303-.507.404.609-.303 1.32-.506 1.929-.809.711-.607 1.523-1.314 2.234-1.921-.609.303-1.32.506-1.929.809zm9.85 1.416c.101 0 .101 0 0 0 .304 0 .406.102.609.102a3.638 3.638 0 001.015-.708c-.101-.101-.203-.101-.304-.203-.406.304-.813.506-1.32.81zm-13.811-2.224c-.812.708-1.624 1.314-2.335 2.022.812-.303 1.726-.708 2.538-1.01.508-.405 1.016-.91 1.524-1.315.304-.203.507-.506.812-.708-.812.303-1.625.708-2.539 1.011zm-13.505 1.921c.609 0 1.32-.202 2.132-.505.508-.304 1.016-.506 1.523-.81 1.016-.606 2.133-1.415 3.351-2.325-2.945 1.112-5.483 2.427-7.006 3.64zm29.651-1.112s0 .101 0 0c.102.101.203 0 .203 0v-.101c-.101 0-.203.1-.203.1zm-16.247-3.337c-1.016.91-2.031 1.82-3.047 2.63.813-.405 1.727-.709 2.641-1.113l2.437-2.123c.101-.102.304-.203.406-.405-.813.405-1.625.708-2.437 1.011zm5.788.202c-.812.708-1.726 1.416-2.539 2.225.102 0 .102 0 .203-.101.813-.708 1.727-1.517 2.539-2.225 0 .101-.102.101-.203.101zm3.554 1.012c-.406.303-.812.606-1.117.91.406-.304.812-.607 1.117-.91.102 0 .102 0 0 0zm-23.559.707c.102.101.305.101.406.203.711-.607 1.625-1.113 2.742-1.72-.812.304-1.523.506-2.132.607-.508.203-.813.506-1.016.91zm29.956-.91c-.609 0-1.32.203-2.234.708.711-.303 1.422-.404 1.93-.303.203-.101.406-.203.508-.304 0-.1-.102-.1-.204-.1zm.508-2.325c-1.32.1-3.249 1.213-5.382 2.932 2.133-1.112 3.961-2.022 5.382-2.932zm-6.803 0c-1.016.809-1.93 1.617-2.945 2.426.812-.303 1.523-.606 2.335-.91 3.554-2.83 6.601-4.65 8.53-4.347.508-.405.914-.81 1.219-1.113-.203-.202-.305-.404-.61-.505-1.929 1.517-4.975 3.033-8.529 4.449zm-24.27 1.82v.404c.102-.1.203-.202.203-.303 0 0-.101-.101-.203-.101zm11.881-1.214c-.609.506-1.117.91-1.726 1.416.406-.202.812-.303 1.218-.506.508-.404 1.016-.91 1.523-1.314-.304.202-.609.303-1.015.404zm8.327-1.415l-2.742 2.426-.102.102c.813-.304 1.727-.708 2.641-1.011 1.015-.91 2.031-1.72 3.046-2.528-.914.303-1.828.708-2.843 1.01zm10.865 2.022c.305.101.508.202.711.303.305-.202.508-.505.711-.707 0-.101-.102-.203-.102-.304l-.101-.1a3.657 3.657 0 01-1.219.808zm-30.565-.404c.203.202.406.202.609.303.508-.404 1.015-.708 1.625-1.112-.711.202-1.219.303-1.828.303-.102.101-.203.303-.406.506zm8.834-2.831c-1.421 1.112-2.742 2.022-3.96 2.73 1.117-.607 2.437-1.113 3.757-1.72.813-.606 1.625-1.314 2.437-2.022-.812.405-1.523.708-2.234 1.011zm.305 2.022c-.305.202-.609.404-.812.606.812-.303 1.624-.707 2.538-1.01.305-.203.508-.405.813-.709-.914.506-1.727.81-2.539 1.113zm17.466-3.64c-1.219.809-2.437 1.82-3.757 2.932.101 0 .203-.101.304-.101 1.93-1.517 3.656-2.831 5.179-3.64-.508.202-1.117.505-1.726.809zm-8.632 1.82c-.406.303-.71.606-1.117 1.01a56.403 56.403 0 002.336-.91c.406-.303.711-.606 1.117-.91-.812.304-1.625.608-2.336.81zm-18.075.708c.102.1.203.202.406.202l.203-.203h-.609s0-.1 0 0zm31.378 0c.203 0 .406.1.508.1l.304-.303c-.101-.1-.203-.202-.304-.202-.102.101-.305.303-.508.404zm-16.552-1.113c-.305.203-.609.506-.812.708.304-.101.71-.202 1.015-.404.305-.304.609-.506.914-.81-.406.304-.812.405-1.117.506zm-10.561.101c-.406.203-.812.405-1.117.607a4.134 4.134 0 001.117-.607zm5.281-2.426c-1.321 1.01-2.539 2.022-3.758 2.73.813-.405 1.625-.81 2.539-1.112.914-.708 1.828-1.416 2.742-2.225l-1.523.607zm-8.733 2.426c.71 0 1.523-.202 2.538-.808.102-.102.203-.102.305-.203 1.32-.708 2.843-1.82 4.468-3.033-3.047 1.416-5.788 2.73-7.311 4.044zm32.088-.1s0 .1 0 0a.217.217 0 00.203-.203l-.203.202zm-18.583-2.023c-.711.607-1.421 1.315-2.234 1.921.711-.303 1.422-.505 2.133-.809.71-.606 1.421-1.213 2.031-1.82-.61.203-1.219.506-1.93.708zm-14.521 1.416c0 .1 0 .1.102.1.304-.201.507-.505.914-.707h-.102c-.102 0-.203 0-.305-.101-.304.303-.507.505-.609.708zm23.66-1.012c-.304.304-.71.506-1.015.81a67.065 67.065 0 003.656-1.517c.507-.405 1.015-.708 1.523-1.011-1.32.606-2.64 1.112-4.164 1.718zm-1.827-1.01c-.407.303-.813.707-1.219 1.01.812-.303 1.726-.606 2.539-1.01l1.523-1.214c-.914.404-1.93.809-2.843 1.213zm-2.336-1.315l-2.133 1.82c.407-.101.711-.303 1.118-.404.71-.607 1.523-1.315 2.234-1.922-.407.203-.813.405-1.219.506zm-4.976-.303c-.812.707-1.625 1.415-2.437 2.022.609-.202 1.219-.506 1.929-.708.813-.708 1.524-1.314 2.336-2.022-.711.303-1.32.505-1.828.708zm-12.49 1.718c-.102.102-.203.102-.203.203 1.218-.203 2.843-1.113 4.671-2.427-1.726 1.112-3.249 2.022-4.468 2.224zm29.855-1.516c-.711.505-1.524.91-2.437 1.415 1.117-.505 2.132-.809 2.944-.707l.61-.607c-.102-.101-.203-.101-.407-.101h-.71zm1.624 1.112l.102.101v-.202l-.102.101zm-26.402-3.741c-2.335 1.112-4.366 2.123-5.686 3.134h.203c1.218-.707 2.64-1.516 4.265-2.224.406-.202.812-.506 1.218-.91zm-7.006 2.629c.101.1.101.1.101.202.203-.202.406-.303.609-.505-.101 0-.304-.102-.406-.102-.203.102-.304.304-.304.405zm19.192-2.022l-2.133 1.82c-.101 0-.101.1-.203.1.61-.201 1.32-.505 1.93-.707.812-.708 1.624-1.416 2.335-2.022a15.52 15.52 0 00-1.929.809zm12.693-.81c-1.218.203-2.945 1.214-4.874 2.63 1.929-.81 3.656-1.72 4.874-2.63zm-17.364.405c-.711.607-1.422 1.213-2.031 1.82.406-.202.914-.303 1.32-.505.711-.607 1.32-1.113 2.031-1.72-.508.102-.914.304-1.32.405zm18.583 1.517c.101.1.304.1.406.202.101-.101.101-.202.101-.303.102-.203.102-.304.102-.506-.102.202-.305.405-.609.607zm0-1.517c-.61.506-1.422 1.011-2.336 1.517.203-.101.406-.101.609-.202.711-.405 1.321-.81 1.727-1.315zm-4.671-1.314c-1.219.707-2.438 1.719-3.859 2.83 3.554-1.516 6.6-3.033 8.022-4.55-.508 0-1.219.203-1.929.506-.61.405-1.422.81-2.234 1.214zm-21.325-.81c-2.539 1.113-4.671 2.124-5.991 3.236 1.32-.1 3.554-1.415 5.991-3.235zm3.148 2.225c-.406.304-.813.607-1.117.91l2.132-.91c.305-.303.61-.505.914-.809-.711.304-1.32.506-1.929.81zm14.419-1.92c-.914.707-1.726 1.415-2.64 2.224l1.523-.607c1.219-1.011 2.437-1.921 3.554-2.629a17.64 17.64 0 00-2.437 1.011zm-5.991.201c-.609.506-1.218 1.113-1.828 1.618l-.101.101c.609-.202 1.218-.505 1.828-.708.71-.606 1.32-1.112 2.031-1.718-.61.303-1.219.505-1.93.707zm-18.786 1.113c0 .1 0 0 0 0zm.508-.91c.101 0 .203.1.304.1h.204s.101 0 .101-.1h-.609s.101 0 0 0zm32.088-.102h.407c.101 0 .203 0 .203.102.304-.304.609-.708.711-1.012l-.102-.1c-.305.303-.711.707-1.219 1.01zm-8.529-2.123l-2.133 1.82a23.392 23.392 0 002.336-1.011c1.015-.809 2.031-1.517 2.944-2.224a43.063 43.063 0 01-3.147 1.415zm-10.054.607c-.406.303-.71.606-1.117 1.01.61-.201 1.219-.404 1.828-.707.406-.303.813-.708 1.219-1.011-.711.202-1.32.505-1.93.708zm3.758.303c-.203.202-.508.405-.711.607.406-.202.812-.304 1.218-.506.204-.202.508-.404.711-.607-.406.304-.812.405-1.218.506zm-7.109-.809c-.507.506-1.117.91-1.624 1.315.406-.203.812-.304 1.218-.506.508-.404.914-.809 1.422-1.213-.305.1-.609.303-1.016.404zm-4.569-1.415c-1.625.809-3.148 1.617-4.265 2.325 1.117-.303 2.539-1.112 4.265-2.325zm-6.093 1.92c.102.203.203.304.305.304.507-.404 1.015-.91 1.726-1.314-.508.1-.914.202-1.32.1-.406.304-.609.607-.711.91zm30.362-.606l-.609.303c.102-.1.305-.1.406-.202.102 0 .203 0 .203-.1zm-22.644-.101c-.102.101-.305.202-.407.303.914-.404 1.828-.707 2.844-1.112.203-.101.304-.303.507-.404-1.015.404-1.929.809-2.944 1.213zm14.216-.506c-.203.203-.406.405-.609.506l2.132-.91c.203-.202.508-.404.711-.506-.711.304-1.422.607-2.234.91zm11.069.102h.304-.304zm-11.272-1.922c-.508.405-1.117.91-1.625 1.315.406-.202.813-.303 1.219-.506l1.828-1.516c-.407.303-.914.505-1.422.707zm10.865-.1c-.406.404-.913.707-1.523 1.111.61-.202 1.117-.303 1.625-.303.203-.202.406-.404.508-.606-.203-.102-.406-.102-.61-.203zm-15.13.1c-.305.304-.711.607-1.015.91.609-.202 1.218-.505 1.929-.707.305-.304.609-.506.914-.81l-1.828.607zm-13.506 0l-1.218.607 1.218-.607zm9.749-.1c-.203.202-.406.303-.609.505.304-.101.609-.202 1.015-.405.203-.202.406-.404.609-.505-.304.202-.609.303-1.015.404zm-1.016-1.618c-.609.606-1.32 1.112-1.929 1.617.812-.303 1.523-.606 2.336-.91.609-.505 1.218-1.112 1.827-1.617-.609.303-1.421.606-2.234.91zm-3.858-.405c-.914.708-1.828 1.416-2.641 2.022a115.55 115.55 0 013.453-1.516l1.828-1.517c-1.016.303-1.828.607-2.64 1.011zm-8.632 1.416c.102.1.203.202.406.202l.203-.202h-.406c-.101.1-.101.1-.203 0zm31.581-3.742c-1.625.203-4.062 1.72-6.804 3.944 2.945-1.416 5.586-2.73 6.804-3.944zm-1.828 2.832a23.55 23.55 0 010-.001zm2.64-.607c-.507.404-1.117.91-1.827 1.314.507-.202 1.015-.303 1.421-.303.305-.303.61-.607.813-.91-.102 0-.203-.101-.407-.101zm.914 1.314c.102 0 0 0 0 0 0-.1 0 0 0 0zm-31.987-1.01c-.101.1-.203.202-.304.202.609-.102 1.421-.506 2.335-1.012-.812.405-1.421.708-2.031.81zm19.193-.91c-.305.303-.61.505-.914.808.71-.303 1.32-.505 2.031-.809.406-.303.812-.707 1.218-1.01-.812.404-1.523.707-2.335 1.01zm-2.641-1.012c-.609.607-1.32 1.112-1.929 1.72.305-.102.711-.304 1.015-.405.711-.607 1.422-1.214 2.031-1.72-.304.102-.71.203-1.117.405zm7.819.607c-.304.202-.507.404-.812.606 2.031-.91 3.757-1.82 4.874-2.73-1.117.708-2.437 1.416-4.062 2.124zm-17.466-.202c-.203.1-.406.303-.507.404.101 0 .203-.101.406-.101.203-.101.406-.303.508-.404-.203 0-.305.1-.407.1zm-7.412.404h.101l.914-.607c-.102 0-.203.102-.305.102-.304.202-.507.404-.71.505zm31.174-.404a.79.79 0 00.406-.405l-.406.405zm-15.638-1.618c-.406.404-.812.708-1.218 1.112l-.102.101c.711-.303 1.523-.607 2.234-.91.406-.404.812-.708 1.219-1.112a29.55 29.55 0 00-2.133.809zm-6.905-.91c-.711.607-1.422 1.112-2.031 1.618.102 0 .102-.102.203-.102.609-.505 1.32-1.01 1.93-1.617 0 .1 0 .1-.102.1zm2.539 1.01c-.203.203-.508.405-.711.608a15.848 15.848 0 012.335-.81c.305-.201.508-.505.813-.707l.101-.101c-.914.303-1.726.607-2.538 1.01zm-7.007-1.617c-1.219.607-2.336 1.112-3.25 1.618a42.638 42.638 0 013.047-1.517c.101-.1.203-.1.203-.1zm.406 1.011c-.203.101-.406.304-.609.405.304-.101.609-.304.914-.405.101-.1.304-.202.406-.303-.305.101-.508.202-.711.303zm24.676-3.539c-1.523.203-3.859 1.72-6.601 3.843 2.945-1.315 5.382-2.528 6.601-3.843zm1.726 3.54h.406c0-.102.102-.203.102-.304-.102-.101-.203-.101-.203-.101-.102.202-.305.303-.406.505 0-.1.101-.1.101-.1zm-19.091-1.618c-.507.404-1.015.91-1.523 1.314.102 0 .203-.101.305-.101.508-.405 1.015-.91 1.523-1.315-.203.102-.305.102-.305.102zm17.568.1c-.609.102-1.32.506-2.132.91a9.64 9.64 0 012.132-.91zm-8.53-.1c-.406.303-.812.606-1.218 1.01.507-.202 1.015-.404 1.421-.606.406-.303.914-.708 1.32-1.011l-1.523.607zm-13.302-2.225c-1.93.809-3.656 1.517-5.179 2.326a57.798 57.798 0 014.874-2.124c.203 0 .305-.1.305-.202zm11.677 1.112c-.507.405-.914.81-1.421 1.214l2.437-.91a33.06 33.06 0 012.234-1.72c-1.016.405-2.133.91-3.25 1.416zm-4.265-.1c-.406.404-.914.808-1.32 1.213.813-.304 1.625-.607 2.437-1.012.407-.404.813-.707 1.321-1.112l-2.438.91zm-14.216.808c-.102.101-.305.202-.406.303.304-.1.711-.202 1.015-.404.203-.101.508-.303.711-.404.711-.405 1.422-.91 2.234-1.517-1.32.91-2.539 1.719-3.554 2.022zm10.662-.708c-.101.101-.203.101-.203.203h.102l.101-.203zm-3.554.101l-.101.102c.101 0 .203-.102.406-.102l.101-.1c-.101 0-.304.1-.406.1zm22.239-.1h.304c0-.102.102-.102.102-.203v-.101c-.102-.101-.102-.202-.203-.202-.102.202-.305.303-.406.505h.203zm-30.972-.405c.102.1.203.202.406.202h.711c1.016-.708 2.234-1.314 3.656-2.022.914-.708 1.929-1.416 2.843-2.326-.812.304-1.726.708-2.437 1.011-1.625 1.214-3.046 2.023-4.265 2.225-.406.303-.711.607-.914.91zm15.232-.708l-.203.202c.102 0 .102-.1.203-.202.102 0 .203 0 .305-.101-.102 0-.203.101-.305.101zm12.186-1.719c-.508.202-.914.506-1.422.809.406-.202.914-.505 1.422-.809zm-15.842.506a1.394 1.394 0 01-.406.303c.102 0 .203-.101.305-.101.101-.101.203-.202.406-.303-.101 0-.203.1-.305.1zm-2.234-.91c-.507.404-1.015.809-1.421 1.213 1.015-.404 2.031-.809 3.148-1.213.507-.405.914-.81 1.421-1.214.102-.1.102-.1.203-.202-.101.101-.203.101-.406.202-1.015.405-2.031.81-2.945 1.214zm5.382 1.112c-.101 0-.101 0 0 0-.101.101-.101.101 0 0zm3.859-.303l-.203.202c.914-.405 1.828-.708 2.742-1.112.101-.101.203-.101.304-.203-1.015.405-1.929.81-2.843 1.113zm11.069-.81l-.406.405h.101c.203-.202.305-.303.305-.404zm-2.844-1.617c-.812.404-1.827 1.011-2.843 1.719a10.503 10.503 0 002.843-1.72zm-24.98 1.618s-.102 0-.102.1l.102-.1s.102 0 0 0zm15.841 0c.102 0 .203 0 .305-.101 0 0-.203 0-.305.1zm-14.115-.91c-.203.1-.406.303-.609.404.508-.303 1.117-.505 1.726-.809.203-.1.305-.202.508-.404-.609.303-1.117.505-1.625.809zm-3.452.202c.304.101.711 0 1.218-.202-.406.1-.812.202-1.218.202zm28.839-1.416c-.305.405-.711.81-1.219 1.214.508-.203 1.016-.304 1.524-.405 0-.1.101-.1.101-.202.102-.202.102-.303.102-.404-.102-.101-.305-.101-.508-.203zm-11.272.708c-.203.202-.406.303-.609.506.305-.203.508-.405.609-.506zm-1.726-1.415c-.609.505-1.32 1.112-1.929 1.617.101 0 .203-.1.304-.1.711-.607 1.32-1.113 1.93-1.72-.102.101-.204.101-.305.203zm5.687 1.213c.101 0 .203-.101.304-.101-.101 0-.203 0-.304.1zm-15.436-3.842c-2.944 1.213-5.381 2.325-6.295 3.438 1.218-1.012 3.351-2.023 5.788-3.034.203-.101.304-.303.507-.404zm7.312 1.82a9.1 9.1 0 00-1.016.91c-.101.1-.304.202-.406.404 1.117-.505 2.234-.91 3.351-1.415.406-.405.813-.708 1.32-1.113-1.117.405-2.132.81-3.249 1.214zm8.022.505a7.052 7.052 0 00-1.015.81c.203-.102.304-.203.507-.203.406-.303.914-.708 1.32-.91-.203 0-.507.202-.812.303zm-12.693-.202c-.203.202-.406.404-.61.506.61-.203 1.321-.506 1.93-.708.203-.202.508-.405.711-.607a12.12 12.12 0 00-2.031.809zm.101-1.82c-.507.404-1.015.809-1.421 1.213.304-.1.507-.202.812-.303.406-.405.914-.809 1.32-1.213a4.943 4.943 0 00-.711.303zm16.146-1.416c-1.117.405-2.539 1.315-4.163 2.528 1.624-1.112 2.945-2.022 4.163-2.528zm.609.91c-.203.203-.406.304-.609.506.406-.202.711-.303 1.016-.405.101-.1.203-.202.203-.303-.203.101-.407.202-.61.202zm-25.691.203s.102 0 .203.1c.914.102 2.742-1.111 4.874-2.83-2.132 1.617-3.655 2.628-4.772 2.527a1.266 1.266 0 00-.305.203zm12.592-1.214c-.406.304-.812.708-1.219 1.011.711-.303 1.32-.606 2.031-.809.406-.303.813-.707 1.117-1.01-.609.303-1.218.606-1.929.808zm8.225-.1c-.508.302-1.015.707-1.523 1.111l.609-.303a29.04 29.04 0 013.25-2.123l.304-.304-.609.304c-.406.404-1.117.91-2.031 1.314zm-3.148-.304c-.508.404-1.015.91-1.625 1.314 1.625-.606 3.047-1.314 4.265-1.92.711-.506 1.422-.91 2.133-1.315a4.744 4.744 0 001.015-1.113c0-.1.102-.202.102-.303-.305 0-.609.101-1.016.202-1.015 1.011-2.741 2.023-4.874 3.135zm-11.068.101c-.102.101-.305.202-.407.303a43.971 43.971 0 002.539-1.01c.203-.203.406-.405.711-.607 0 0-.102 0-.102.1l-2.741 1.214zm5.077-.607l-.305.304c.203-.102.508-.203.711-.304l.305-.303c-.305.101-.508.202-.711.303zm-11.678-1.82c-.101.101-.203.304-.203.405v.202c.203-.202.508-.405.812-.607h-.609zm15.537.304c-.102.1-.203.1-.305.202a36.24 36.24 0 002.742-1.213c.203-.102.305-.203.508-.405-.813.506-1.828.91-2.945 1.416zm-5.078-1.214c-.304.304-.609.506-.913.81 0 0-.102 0-.102.1l2.742-1.213c.304-.202.507-.506.812-.708-.711.303-1.625.607-2.539 1.011zm6.093-1.314c-.812.607-1.625 1.213-2.437 1.921.305-.101.508-.202.812-.303 2.133-1.72 3.961-2.933 5.382-3.438v-.202c-.507.1-1.218.404-2.03.91-.508.303-1.016.707-1.727 1.112zm-10.967.809c-.203.202-.508.404-.711.606a28.424 28.424 0 011.625-.606c.203-.203.508-.405.711-.607-.508.101-1.016.303-1.625.607zm.813-4.247c-.204.101-.508.202-.711.404-2.437 1.214-5.484 2.832-5.788 3.742v.1c1.015-.707 2.437-1.516 4.468-2.426.71-.607 1.421-1.213 2.031-1.82zm-1.524 2.831c-.507.405-1.015.91-1.523 1.213.508-.202 1.117-.505 1.625-.707.406-.405.812-.708 1.218-1.113-.304.203-.812.405-1.32.607zm16.248-.303c-.203.404-.609.708-1.117 1.112.203-.101.304-.202.508-.303.304-.304.507-.506.71-.81h-.101zm-10.561-.405c-.305.304-.609.506-.914.81.305-.304.609-.607.914-.81zm-.812-1.415c-.508.404-.914.809-1.422 1.213.508-.202 1.117-.505 1.625-.708a12.043 12.043 0 011.828-1.516c-.61.303-1.321.606-2.031 1.01zm-9.85.91c0 .1 0 .1 0 0 0 .1 0 .1.101.1.609.102 2.234-1.111 3.757-2.426-.101 0-.203.101-.203.101-1.624 1.315-2.741 2.124-3.655 2.225zm17.669-2.022c-.305.505-.813 1.01-1.524 1.516 1.016-.505 1.625-1.112 1.828-1.618-.203.102-.304.102-.304.102zm-4.265-3.236c-1.016 0-3.453 2.123-5.585 3.943.507-.202.914-.404 1.421-.606 1.828-1.517 3.351-2.73 4.468-3.236-.101 0-.101 0-.304-.101.101 0 .101 0 0 0zm-6.093 1.416c-.406.404-.914.808-1.32 1.112-.102.1-.305.202-.406.303 2.437-1.213 5.382-2.73 5.585-3.741v-.202h-.305c-.305.91-1.523 1.618-3.554 2.528zm7.413-.506c-.102.202-.203.404-.406.607.406-.203.71-.405 1.117-.506-.102-.101-.102-.202-.203-.202-.204.101-.407.101-.508.101zm-12.084-1.213c-.711.404-1.625 1.01-2.133 1.415.305-.202.711-.404 1.117-.606a7.113 7.113 0 001.016-.81zm4.366-2.124c-.406.304-1.015.708-1.523 1.214 0 0 .102 0 .102-.101.507-.506 1.015-.81 1.421-1.113zm-2.335-.606c-.203.202-.508.404-.813.606.305-.1.61-.404.813-.606zM64.279 56.623h-.203c-.406-.101-.71-.304-.914-.607-.203-.404-.305-.809-.203-1.213.101-.304.203-.506.508-.81a1.396 1.396 0 01-.305-.404c-.203-.404-.203-.707-.102-1.112v-.101c-.203-.404-.304-.809-.101-1.213l.305-.607-.204-.202c-.203-.405-.304-.81-.101-1.214 0-.1.101-.202.203-.404 0-.101-.102-.101-.102-.202-.203-.405-.304-.81-.101-1.214l.305-.606-.204-.203c-.203-.404-.304-.808-.101-1.213.101-.303.203-.505.406-.809a1.399 1.399 0 01-.305-.404 1.459 1.459 0 01-.101-1.112v-.102c-.203-.303-.203-.707-.102-1.01 0-.102.102-.203.102-.304-.203-.303-.203-.708-.102-1.112.102-.202.203-.506.407-.708l-.305-.303c0-.304 0-.708.101-1.011 0-.102 0-.102.102-.203v-.1c-.203-.304-.203-.709-.102-1.012 0-.101.102-.202.102-.303-.203-.304-.203-.708-.102-1.011 0-.101.102-.101.102-.203-.203-.303-.203-.606-.102-.91.102-.202.204-.404.407-.606l-.203-.203c-.204-.303-.204-.606-.102-.91.102-.303.305-.707.71-1.01-.304-.102-.507-.203-.71-.506-.102-.202-.203-.506-.102-.81.102-.302.204-.505.508-.808l-.304-.303c-.102-.202-.204-.506-.102-.708l.305-.607-.305-.303c-.305-.506-.102-.91.305-1.314-.102-.102-.305-.203-.305-.304-.305-.505 0-1.011.508-1.517-.203 0-.305-.202-.406-.303-.204-.404-.102-.809.101-1.314v-.101c-.101 0-.101-.101-.101-.203-.102-.303-.102-.606.203-.707h.101a.778.778 0 01.508-.203c.203 0 .305.102.406.304.203.303.102.606 0 1.01l.102-.1c.71-.607 1.117-.91 1.523-.81a.56.56 0 01.508.304c.203.303.101.506 0 .809.609-.505 1.117-.809 1.523-.708.203 0 .406.203.507.405.102.202.102.404.102.505.305-.1.508-.1.71-.1.306 0 .509.201.61.404.102.1.102.303.102.404.203-.101.406-.101.609-.101.305 0 .508.202.71.506.102.202.102.404.102.606.305-.101.508-.101.813-.101.304 0 .507.202.71.506.204.303.204.606.102.91 0 .1 0 .1-.101.202.203 0 .406-.101.609 0 .305.1.61.202.812.505.102.203.203.405.203.607h.203c.305.101.61.303.813.607.101.1.101.202.101.404.203.101.406.304.508.506.102.202.203.303.203.505.203.101.305.304.406.506.102.202.203.404.203.606.102.102.305.203.305.405.203.404.203.708.102 1.112.304.101.507.303.71.607.102.202.204.505.204.809.101.1.203.202.203.303.203.303.203.708.101 1.112.203.405.203.81.102 1.214-.102.202-.102.303-.203.505.203.101.304.303.406.506.203.404.304.809.101 1.213 0 .101-.101.202-.101.303.101.102.203.203.304.405.203.404.305.809.102 1.213-.102.304-.203.506-.508.81.203.404.203.808.102 1.212-.102.304-.305.607-.508.91l.102.102c.203.404.203.808.101 1.213a5.794 5.794 0 01-.406.708c.102.303.102.606 0 .91-.203.606-.812 1.213-1.828 1.92l.102.102c.203.303.203.607.101.91-.304.91-1.523 1.719-3.554 2.73.102.101.102.101.102.202.101.303.101.607-.203.708-.204.101-.508.101-.61-.101-.406.202-1.421 1.011-2.03 1.618-1.524 1.314-2.336 2.022-3.047 1.92-.305 0-.508-.201-.61-.404-.1-.1-.1-.202-.1-.404-1.016.303-1.829.708-2.438.708zm.61-2.427c-.407.303-.712.708-.813 1.011v.303c0 .102.102.102.102.102.913.1 3.554-2.225 5.381-3.843l.102-.1c-.71.303-1.422.707-2.03 1.01-1.016.708-2.032 1.315-2.743 1.517zm4.467-.202c-.609.404-1.117.708-1.32 1.01.305-.201.813-.606 1.32-1.01zm-5.28-.91l.102.1h.203c.101 0 .101-.1.203-.1h-.508zm9.647-3.438c-.813.607-1.625 1.314-2.437 2.022.101-.1.203-.1.304-.202 1.727-.91 4.062-2.022 4.265-2.73v-.101c0-.101-.101-.101-.101-.101-.61.404-1.32.708-2.031 1.112zm-9.342 1.416l-.102.1c0-.1.102-.1.102-.1zm-.204-1.82c0 .1-.101.1-.101.202v.303c.203-.202.508-.404.812-.607-.203.102-.507.203-.71.102zm8.226-.708c-.508.404-.914.809-1.32 1.213.71-.303 1.32-.607 2.03-1.011.915-.708 1.625-1.112 2.235-1.213.71-.405 1.218-.81 1.624-1.113-1.117.607-2.64 1.315-4.57 2.124zm-3.453-.203c-.406.304-.812.708-1.218.91.507-.202.913-.404 1.421-.606.406-.303.711-.607 1.016-.91-.305.202-.711.404-1.219.606zm.61-2.224c-.813.708-1.524 1.315-2.235 1.719.407-.202.711-.303 1.117-.506l1.828-1.516a4.96 4.96 0 00-.71.303zm-5.18 1.112c-.203.203-.304.304-.304.506v.202c.305-.303.812-.607 1.32-.91-.508.101-.812.202-1.015.202zm4.57-2.73c-.914.708-1.625 1.315-2.335 1.82.71-.303 1.523-.707 2.335-1.112.61-.506 1.117-1.011 1.727-1.416-.61.203-1.22.506-1.727.708zm-4.265.304c-.304.303-.61.606-.71.809v.303c.913-.708 2.335-1.517 4.264-2.427.813-.708 1.625-1.415 2.438-2.022-.813.404-1.625.809-2.438 1.112-1.421 1.315-2.64 2.123-3.554 2.225zm8.835-.405c-.508.506-1.117.91-1.625 1.416.406-.203.914-.405 1.32-.607a22.57 22.57 0 012.234-1.719c-.61.303-1.218.607-1.93.91zm3.96-.101c.102 0 .203.101.305.101 0-.101.101-.101.101-.202v-.202c-.101.1-.304.202-.406.303zm-3.351-2.123c-.61.505-1.219 1.112-1.93 1.617.204-.1.407-.202.712-.303a28.363 28.363 0 012.437-1.921c-.305.202-.711.404-1.219.607zm-9.952 1.516h.204-.204zm14.115-1.718c-.406.303-.812.606-1.32.808.305-.1.61-.1.813-.1.203-.203.406-.405.507-.709 0 0-.101 0 0 0zm-12.388 0c-.305.202-.508.303-.813.505a2.22 2.22 0 01.813-.505zm8.733-2.225c-.914.708-1.828 1.517-2.742 2.326.61-.203 1.117-.506 1.726-.81 2.031-1.617 3.453-2.628 4.57-2.73.101-.1.101-.202.203-.303v-.303c-.102-.101-.102-.101-.203-.101h-.203c-.813.505-1.93 1.112-3.351 1.921zm3.859-.101c-.305.303-.813.607-1.422 1.011.406-.101.71-.202 1.015-.101h.102c.101-.202.203-.303.305-.506.203-.1.101-.202 0-.404 0 0 .101 0 0 0zm-13.71.404c-.1.101-.304.203-.405.304.203-.101.507-.304.71-.506-.101.101-.203.202-.304.202zm7.82-1.01c-.406.303-.711.606-1.117.91l2.437-1.214c.406-.303.71-.607 1.015-.809-.609.404-1.421.708-2.335 1.112zm-4.874-.709c-.508.405-1.016.708-1.422 1.012.812-.405 1.625-.81 2.64-1.214.406-.303.711-.606 1.117-1.01-.812.505-1.625.808-2.335 1.212zm-3.656.506v.101c0 .101.102.101.102.101h.101c.203-.1.305-.202.508-.404-.203.1-.508.202-.711.202zm4.671-2.831c-.71.606-1.422 1.213-2.03 1.618.1-.101.202-.101.304-.203l1.828-1.516s0 .1-.102.1zm3.351-1.416c-.406.405-.812.708-1.218 1.113.812-.405 1.523-.708 2.335-1.113.71-.606 1.32-1.01 1.93-1.415-.813.404-1.828.809-3.047 1.415zm-.406-1.112c-.102.101-.203.101-.203.202h.101c0-.1.102-.202.102-.202s.102-.101 0 0zm5.179 0l-.102.101c.203-.1.305-.1.508-.1h-.102c-.101-.102-.203-.102-.304 0zm-10.46-.303l-.203.202c.407-.202.914-.404 1.422-.607.102-.1.203-.202.406-.303-.508.202-1.015.404-1.624.708zm1.828-2.932c-1.726.91-3.96 2.224-4.062 2.83v.102h.102c.406-.304.914-.607 1.625-.91.71-.607 1.624-1.416 2.335-2.023zm8.327 1.82c-.305.303-.61.505-1.015.808a3.03 3.03 0 01.812-.404c.102-.101.102-.303.203-.404zm-9.748-3.135c-1.117.607-2.539 1.517-2.742 1.921.406-.1 1.625-1.112 2.742-1.921zm6.702-1.213c-.61 0-2.336 1.415-3.656 2.528.508-.304 1.117-.506 1.625-.81.812-.606 1.421-1.112 2.03-1.314.102-.101.102-.202.204-.303-.102 0-.102 0-.203-.101 0 0 0 .1 0 0zm-1.32-1.517c-.61 0-2.539 1.719-3.656 2.73 1.523-.91 3.453-2.022 3.656-2.73zm-7.007 1.921c-.305.202-.61.405-.812.506.203-.101.507-.304.812-.506zm5.28-2.831c-.406.101-1.218.809-1.929 1.416.812-.506 1.726-1.113 1.93-1.416zM1.422 165.52h3.35c1.829 0 2.336-.708 2.336-1.618 0-1.112-.71-1.719-2.437-1.719h-3.25v3.337zm0-4.449h3.554c1.117 0 1.828-.404 1.828-1.416 0-.91-.407-1.516-2.336-1.516H1.422v2.932zM0 157.128h4.57c2.64 0 3.655.809 3.655 2.426 0 1.214-.71 1.921-1.93 2.124 1.524.202 2.235 1.213 2.235 2.325 0 1.416-1.016 2.629-3.656 2.629H0v-9.504zm15.74 0h-1.422v9.504h1.421v-9.504zm15.333 0h1.32v9.504h-1.828l-5.89-8.089v8.089h-1.421v-9.504h1.93l5.889 8.089v-8.089zm11.17 1.112h-4.061v-1.112h9.545v1.112h-4.062v8.392h-1.422v-8.392zm17.365 4.853l-2.438-4.853-2.437 4.853h4.875zm.609 1.011h-5.89l-1.218 2.528h-1.524l4.875-9.504h1.624l4.875 9.504h-1.625l-1.117-2.528zm9.85-2.831h3.148c1.422 0 2.336-.303 2.336-1.516 0-1.113-.61-1.517-2.336-1.517h-3.148v3.033zm0 5.359h-1.421v-9.504h4.67c2.945 0 3.656 1.011 3.656 2.527 0 1.113-.812 2.023-2.234 2.225 1.32.202 1.625.708 1.93 2.326.203 1.011.304 1.82.507 2.527h-1.421c-.203-.707-.406-2.022-.61-3.033-.203-.708-.609-1.213-2.437-1.213h-2.64v4.145zm18.177-.809c2.335 0 3.96-1.618 3.96-3.943 0-2.326-1.625-3.944-3.96-3.944-2.336 0-3.96 1.618-3.96 3.944 0 2.325 1.624 3.943 3.96 3.943zm0-8.999c4.062 0 5.382 2.73 5.382 5.056 0 2.224-1.32 5.055-5.382 5.055-4.062 0-5.382-2.73-5.382-5.055 0-2.326 1.32-5.056 5.382-5.056zM1.422 189.686h2.64c3.148 0 3.96-1.82 3.96-3.64 0-2.427-1.117-3.641-4.366-3.641H1.422v7.281zM0 181.192h3.757c4.265 0 5.687 1.82 5.687 4.854 0 2.932-1.828 4.651-5.484 4.651H0v-9.505zm15.13 0h7.21v1.112h-5.788v3.034h5.382v1.112h-5.382v3.236h5.89v1.112H15.13v-9.606zm20.208 2.629c-.101-1.314-1.523-1.719-3.046-1.719-1.32 0-2.539.708-2.539 1.719 0 .506.305 1.011 1.523 1.214l3.555.606c1.523.304 2.233 1.112 2.233 2.326 0 1.921-1.726 3.033-4.57 3.033-2.74 0-4.264-1.011-4.467-3.134h1.421c0 1.314 1.32 2.022 3.047 2.022 2.03 0 3.046-.809 3.046-1.82 0-2.629-7.311-.202-7.311-4.247 0-1.82 1.523-2.932 4.163-2.932 2.031 0 4.062.607 4.265 2.831h-1.32v.101zm9.546-2.629h-1.422v9.505h1.422v-9.505zm11.779 4.55h4.468v4.348c-1.625.708-3.148.91-4.57.91-3.859 0-5.687-2.325-5.687-5.055 0-2.427 1.524-5.056 5.484-5.056 2.742 0 4.367.809 4.671 2.73h-1.422c-.304-1.213-1.523-1.618-3.147-1.618-2.742 0-4.164 1.719-4.164 3.944 0 2.123 1.422 3.943 4.265 3.943 1.016 0 2.234-.202 3.148-.607v-2.426h-3.046v-1.113zm18.583-4.55h1.32v9.606h-1.828l-5.89-8.19v8.19h-1.421v-9.606h1.93l5.889 8.19v-8.19zm17.466 8.494h2.64c3.148 0 3.96-1.82 3.96-3.64 0-2.427-1.117-3.641-4.366-3.641h-2.234v7.281zm-1.32-8.494h3.757c4.265 0 5.686 1.82 5.686 4.854 0 2.932-1.827 4.651-5.483 4.651h-3.96v-9.505zm16.044 0h-1.421v9.505h1.421v-9.505zm13.506 2.629c-.102-1.314-1.523-1.719-3.047-1.719-1.32 0-2.538.708-2.538 1.719 0 .506.304 1.011 1.523 1.214l3.554.606c1.523.304 2.234 1.112 2.234 2.326 0 1.921-1.726 3.033-4.57 3.033-2.741 0-4.265-1.011-4.468-3.134h1.422c0 1.314 1.32 2.022 3.046 2.022 2.031 0 3.047-.809 3.047-1.82 0-2.629-7.312-.202-7.312-4.247 0-1.82 1.524-2.932 4.164-2.932 2.031 0 4.062.607 4.265 2.831h-1.32v.101zm10.358-1.416h-4.062v-1.213h9.444v1.213h-4.062v8.393h-1.32v-8.393zm12.185 3.034h3.148c1.422 0 2.336-.304 2.336-1.517 0-1.112-.61-1.517-2.336-1.517h-3.148v3.034zm0 5.359h-1.422v-9.505h4.672c2.944 0 3.655 1.011 3.655 2.528 0 1.112-.812 2.022-2.234 2.224 1.32.203 1.625.708 1.93 2.326.203 1.011.304 1.82.507 2.528h-1.421c-.203-.708-.406-2.022-.61-3.034-.203-.707-.609-1.213-2.437-1.213h-2.64v4.146zm15.13-9.606h-1.421v9.505h1.421v-9.505zm15.943 6.876c-.305 2.123-2.336 2.932-4.671 2.932-3.453 0-4.976-2.427-4.976-5.055 0-2.225 1.32-5.056 5.382-5.056 2.234 0 3.96 1.112 4.164 2.73h-1.524c-.203-1.213-1.32-1.719-2.741-1.719-2.234 0-3.859 1.213-3.859 3.943s1.625 3.944 3.859 3.944c1.32 0 2.538-.607 2.843-1.82h1.523v.101zm8.936-5.663h-4.061v-1.213h9.545v1.213h-4.062v8.393h-1.422v-8.393z"/></g><defs><clipPath id="clip0_11_16"><path fill="#fff" d="M0 0h197v191H0z"/></clipPath></defs></svg>